<?xml version="1.0" encoding="UTF-8"?>
<svg id="Camada_1" xmlns="http://www.w3.org/2000/svg" version="1.1" viewBox="0 0 1920 587.8">
  <!-- Generator: Adobe Illustrator 29.1.0, SVG Export Plug-In . SVG Version: 2.1.0 Build 142)  -->
  <defs>
    <style>
      .st0 {
        fill: #fff;
      }
    </style>
  </defs>
  <path class="st0" d="M1576.9,293.9h0Z"/>
  <path class="st0" d="M608,23.6v540.6c0,5.7-4.7,10.4-10.4,10.4h-122.3c-5.7,0-10.4-4.7-10.4-10.4V23.6c0-5.7,4.6-10.4,10.4-10.4h122.3c5.7,0,10.4,4.7,10.4,10.4Z"/>
  <path class="st0" d="M1291,371.3c-27,126.7-141.1,216.5-286.1,216.5s-301.6-126.6-301.6-293.9S833.2,0,1004.9,0s258.6,89.5,285.9,215.8c1.5,6.8-3.8,13.2-10.7,13.2h-131.2c-4.4,0-8.4-2.6-10.1-6.7-20.7-50.3-71.9-83.7-134.2-83.6-85,.1-153.9,70.2-153.9,155.2s66.1,155.2,154.1,155.2,113.6-33.5,134.1-83.9c1.6-3.9,5.3-6.4,9.5-6.4h132.4c6.6,0,11.5,6,10.1,12.4h0Z"/>
  <path class="st0" d="M1573.2,385.3l-44,46.3c-1.9,2-3,4.7-3,7.6v124.6c0,6-4.9,10.9-10.9,10.9h-121.3c-6,0-10.9-4.9-10.9-10.9V24.1c0-6,4.9-10.9,10.9-10.9h121.3c6,0,10.9,4.9,10.9,10.9v189.3l-16.8,18.2-11.1,12c-11.3,12.3-12,30.7-1.8,43.9l73.9,94.1.6.8h0c0,.1,2.1,2.9,2.1,2.9h.1Z"/>
  <path class="st0" d="M1908.7,574.6h-155.2c-3.5,0-6.8-1.6-8.9-4.4l-70.4-91.4-10.3-13.3-74.8-96.9-.7-.9-73.9-94.1c-3.4-4.3-3.1-10.5.6-14.5l11.1-12,90.3-98.2,122.8-132.2c2.1-2.3,5.1-3.6,8.2-3.6h149.6c9.9,0,14.9,11.8,8.2,18.9l-211.1,224c-3.8,4-4.1,10.3-.7,14.6l224.2,285.8c5.8,7.4.5,18.2-8.8,18.2h-.2Z"/>
  <path class="st0" d="M361.7,24.1v121.3c0,6-4.9,10.9-10.9,10.9h-186.6c-11.5,0-20.8,9.3-20.8,20.8v386.5c0,6-4.9,10.9-10.9,10.9H10.9c-6,0-10.9-4.9-10.9-10.9V167.3c0-6,4.9-10.9,10.9-10.9h119.6c7.9,0,15-4.4,18.7-11.2L216,19c1.9-3.6,5.6-5.8,9.6-5.8h125.1c6,0,10.9,4.9,10.9,10.9h.1Z"/>
</svg>