<svg width="47" height="47" viewBox="0 0 47 47" fill="none" xmlns="http://www.w3.org/2000/svg">
<path d="M23.5 47C36.4787 47 47 36.4787 47 23.5C47 10.5213 36.4787 0 23.5 0C10.5213 0 0 10.5213 0 23.5C0 36.4787 10.5213 47 23.5 47Z" fill="#141414"/>
<path d="M23.6887 35.9739C21.6586 35.9564 19.7338 35.5112 17.9268 34.5961C17.7498 34.5065 17.5938 34.4909 17.4024 34.5408C15.372 35.0698 13.3395 35.5918 11.3071 36.1142C10.9999 36.1933 10.9824 36.1761 11.0669 35.8723C11.6068 33.9331 12.1459 31.9944 12.6921 30.0568C12.7473 29.8616 12.737 29.7015 12.6353 29.5184C11.7267 27.8792 11.2142 26.1306 11.1225 24.2611C10.9594 20.9391 11.9839 18.014 14.1938 15.5058C16.2361 13.1876 18.8259 11.8059 21.919 11.3649C28.5768 10.4156 34.8742 14.8182 36.0678 21.3181C36.8205 25.4165 35.7086 29.0342 32.8231 32.0933C30.9185 34.1123 28.5443 35.3187 25.7886 35.7986C25.0963 35.9194 24.3953 35.9848 23.6887 35.9739ZM23.666 33.819C24.2754 33.8256 24.8776 33.7672 25.4762 33.6647C30.9534 32.731 34.7321 27.6973 34.012 22.3048C33.7115 20.0533 32.7794 18.0958 31.1499 16.4897C28.4935 13.8712 25.2753 12.9157 21.5899 13.6036C19.2566 14.0391 17.3131 15.205 15.7769 16.9872C13.8611 19.2091 13.0601 21.7895 13.3407 24.6787C13.4983 26.3023 14.056 27.8052 14.9687 29.1729C15.0905 29.3556 15.1163 29.5188 15.056 29.7276C14.7543 30.7735 14.4645 31.8226 14.1735 32.8712C14.0969 33.147 14.1152 33.1649 14.3931 33.0944C15.4994 32.8132 16.6065 32.5354 17.7089 32.2409C17.9264 32.1829 18.0907 32.216 18.2769 32.3266C19.9322 33.311 21.7309 33.8061 23.666 33.819Z" fill="#F0F0F0"/>
<path d="M26.9748 29.5461C26.0463 29.5901 25.2218 29.2177 24.3862 28.9064C22.4935 28.2018 20.9878 26.9731 19.6878 25.4855C18.9197 24.6067 18.1917 23.6951 17.7038 22.6266C17.2648 21.6648 17.1219 20.6797 17.4704 19.6571C17.68 19.0416 18.0634 18.5422 18.5545 18.1211C18.8617 17.8578 19.2452 17.8676 19.6283 17.8563C20.1483 17.8415 20.4563 18.0569 20.6389 18.5391C20.9116 19.2586 21.226 19.9629 21.5349 20.6688C21.6615 20.9582 21.6516 21.2204 21.4578 21.4724C21.2193 21.7825 20.9855 22.0961 20.7374 22.3983C20.5786 22.5916 20.5571 22.7735 20.6873 22.9901C21.7036 24.6776 23.1279 25.8957 24.9892 26.6175C25.2206 26.7071 25.4116 26.6728 25.5795 26.4804C25.8998 26.113 26.2178 25.7441 26.5111 25.355C26.7457 25.0437 26.8894 24.9931 27.2582 25.1415C28.1462 25.4987 28.9973 25.9334 29.8516 26.36C30.1076 26.4878 30.1278 26.7234 30.0997 26.9638C29.9143 28.5446 28.7698 29.5387 27.1336 29.5457C27.0808 29.5457 27.0276 29.5461 26.9748 29.5461Z" fill="#F0F0F0"/>
</svg>
