<svg width="47" height="47" viewBox="0 0 47 47" fill="none" xmlns="http://www.w3.org/2000/svg">
<path d="M23.5 47C36.4787 47 47 36.4787 47 23.5C47 10.5213 36.4787 0 23.5 0C10.5213 0 0 10.5213 0 23.5C0 36.4787 10.5213 47 23.5 47Z" fill="#141414"/>
<path d="M12.0977 29.3868C12.0977 25.4618 12.0977 21.5372 12.0977 17.6122C12.1139 17.5503 12.1296 17.4883 12.147 17.4266C12.4811 16.2293 13.5388 15.4632 14.8613 15.4632C20.8235 15.4629 26.786 15.4621 32.7482 15.464C34.1936 15.4645 35.4235 16.6142 35.4243 17.9662C35.4269 21.6552 35.4269 25.3443 35.4243 29.0334C35.4235 30.3853 34.1939 31.535 32.7482 31.5353C26.7481 31.5372 20.7477 31.5356 14.7475 31.5372C14.4473 31.5372 14.158 31.4883 13.8809 31.3876C12.8947 31.0288 12.318 30.3463 12.0977 29.3868ZM23.7462 29.7968C26.5987 29.7968 29.4513 29.7968 32.3038 29.7968C32.4024 29.7968 32.5014 29.8 32.5997 29.795C33.199 29.7632 33.5308 29.453 33.5676 28.8923C33.5713 28.8357 33.5696 28.7785 33.5696 28.7216C33.5696 25.4445 33.5696 22.1673 33.5696 18.8902C33.5696 18.8547 33.5679 18.8191 33.5696 18.7836C33.5767 18.6335 33.5086 18.6479 33.4119 18.7189C33.3583 18.7585 33.3025 18.7953 33.2477 18.8335C30.1623 20.9845 27.0757 23.1341 23.9936 25.2893C23.8214 25.4098 23.7037 25.4244 23.5224 25.2973C20.9769 23.5142 18.4254 21.7383 15.8753 19.9608C15.3031 19.562 14.7313 19.1632 14.1577 18.7662C14.1001 18.7264 14.0436 18.6385 13.9687 18.6786C13.8994 18.7157 13.9467 18.8098 13.9367 18.8779C13.9347 18.8918 13.9364 18.9062 13.9364 18.9206C13.9364 22.1764 13.9364 25.4322 13.9364 28.688C13.9364 28.759 13.9336 28.8304 13.939 28.9011C13.9778 29.4239 14.2515 29.7052 14.8031 29.7835C14.9072 29.7982 15.0146 29.7963 15.1207 29.7963C17.996 29.7968 20.8708 29.7968 23.7462 29.7968ZM32.4047 17.2212H15.1093C15.2031 17.2906 15.2609 17.3355 15.3211 17.3774C18.0354 19.2692 20.7499 21.1608 23.4642 23.0526C23.6567 23.1867 23.8496 23.1863 24.0427 23.0515C26.1665 21.5711 28.291 20.0912 30.4148 18.6108C31.0651 18.1574 31.7148 17.7031 32.4047 17.2212Z" fill="#F0F0F0"/>
</svg>
