<svg width="47" height="48" viewBox="0 0 47 48" fill="none" xmlns="http://www.w3.org/2000/svg">
<path d="M23.4994 47.4988C36.4778 47.4988 46.9988 36.9778 46.9988 23.9994C46.9988 11.021 36.4778 0.5 23.4994 0.5C10.521 0.5 0 11.021 0 23.9994C0 36.9778 10.521 47.4988 23.4994 47.4988Z" fill="#F0F0F0"/>
<path d="M30.9841 11.7441C31.855 11.8895 32.6708 12.1802 33.4081 12.6748C35.7758 14.2655 36.8531 17.8159 34.5158 20.635C33.6015 21.738 32.5055 22.6769 31.5045 23.7025C31.406 23.8033 31.3299 23.8115 31.2255 23.706C30.7367 23.2102 30.2456 22.7155 29.7463 22.2291C29.5986 22.0849 29.6759 22.004 29.7814 21.8985C30.6547 21.0276 31.5268 20.1555 32.3989 19.2835C33.0541 18.6271 33.3577 17.8394 33.2803 16.9122C33.244 16.4668 33.0518 16.0671 32.9099 15.6509C32.611 14.773 31.9277 14.3979 31.1013 14.2268C29.9948 13.9982 29.0078 14.2467 28.1908 15.0672C26.4162 16.8489 24.6357 18.6247 22.8575 20.4029C21.9315 21.33 21.608 22.4084 22.0487 23.672C22.1741 24.0319 22.3816 24.3472 22.636 24.6285C22.7426 24.7469 22.7532 24.8278 22.6313 24.9462C22.1448 25.422 21.6631 25.9026 21.1872 26.3902C21.0559 26.5239 20.975 26.4946 20.8555 26.3774C19.1875 24.7422 18.8511 22.0263 20.0748 20.0243C20.3221 19.6187 20.614 19.2506 20.9516 18.9154C22.7661 17.1056 24.5817 15.2969 26.3869 13.4778C27.2894 12.5682 28.3444 11.9669 29.6197 11.7723C29.6431 11.7688 29.6642 11.7547 29.6865 11.7465C30.119 11.7465 30.5515 11.7465 30.9841 11.7465V11.7441Z" fill="#8C3EEF"/>
<path d="M11.1816 30.2009C11.3305 29.3394 11.613 28.5294 12.1018 27.798C12.294 27.5108 12.5085 27.2424 12.7535 26.9986C13.649 26.1042 14.5457 25.2111 15.4354 24.3108C15.5761 24.169 15.6616 24.1667 15.7999 24.3108C16.2559 24.7832 16.7201 25.2486 17.1936 25.7045C17.346 25.8522 17.339 25.9448 17.1936 26.0937C16.3169 26.9951 15.4506 27.9058 14.5774 28.8108C13.6596 29.7637 13.4498 30.8597 13.921 32.0858C14.044 32.4058 14.1976 32.7164 14.3535 33.0223C14.5082 33.3259 14.8153 33.4595 15.0978 33.6037C16.3485 34.2425 17.7973 34.0104 18.7948 33.0153C20.5636 31.25 22.3277 29.4801 24.0976 27.716C24.7646 27.0513 25.1573 26.2789 25.1116 25.3166C25.0799 24.6426 24.8373 24.0506 24.3954 23.5489C24.2266 23.3567 24.2348 23.2383 24.4047 23.0543C24.8713 22.5479 25.3202 22.0251 25.7668 21.5012C25.8981 21.3476 25.9872 21.3382 26.122 21.4965C26.8686 22.3639 27.3433 23.3579 27.4852 24.4914C27.7184 26.3539 27.1558 27.9422 25.8149 29.2667C24.0261 31.0343 22.2538 32.8184 20.478 34.6C19.6563 35.4241 18.6811 35.9515 17.5382 36.1731C15.4459 36.5798 13.0559 35.4921 11.9295 33.5885C11.545 32.9379 11.32 32.2346 11.1816 31.4985V30.2009Z" fill="#8C3EEF"/>
</svg>
