<svg width="64" height="73" viewBox="0 0 64 73" fill="none" xmlns="http://www.w3.org/2000/svg">
<g clip-path="url(#clip0_2950_1542)">
<path d="M62.4381 0C63.1273 0.448292 63.8124 0.930258 64 1.79317C62.573 22.2399 60.8129 42.6782 59.2825 63.125C59.0633 64.2299 58.5954 64.7203 57.5751 65.1307C49.7443 67.3869 42.08 70.2682 34.2533 72.5201C32.0211 73.1621 31.981 73.1621 29.7467 72.5201C21.92 70.2703 14.2536 67.3848 6.42487 65.1307C5.40676 64.7203 4.93881 64.2299 4.71748 63.125C3.18714 42.6782 1.42705 22.2399 0 1.79317C0.187603 0.930258 0.874778 0.448292 1.56195 0H62.4359H62.4381ZM52.2927 13.4109H11.7094L13.5664 37.808H42.432L41.5762 47.8683L32.215 50.3623C29.519 49.3815 25.7269 49.0574 23.1679 47.9798C23.0014 47.9104 22.8222 47.8893 22.7126 47.721V41.6575H13.8531L14.9366 54.3738L32.0506 59.7386L49.0677 54.3738L51.0069 29.8167H21.7114L20.8534 21.1139H51.7194L52.2906 13.4088L52.2927 13.4109Z" fill="#A3A3A3"/>
</g>
<defs>
<clipPath id="clip0_2950_1542">
<rect width="64" height="73" fill="white"/>
</clipPath>
</defs>
</svg>
