<svg width="76" height="74" viewBox="0 0 76 74" fill="none" xmlns="http://www.w3.org/2000/svg">
<path d="M31.0001 24.6C32.2001 29 33.6001 33.3 35.0001 37.6H27.1001C27.1001 37.5 27.1001 37.5 27.1001 37.4C28.0001 34.9 28.7001 32.3 29.5001 29.7C30.0001 28.1 30.5001 26.4 30.9001 24.8C30.9001 24.8 30.9001 24.7 31.0001 24.6Z" fill="#A3A3A3"/>
<path d="M75.8001 13C75.7001 12.9 75.8001 12.8 75.8001 12.7V12.6V12.1C75.8001 11.6 75.8001 11.1 75.7001 10.7C75.1001 7.9 73.7001 5.4 71.5001 3.5C69.3001 1.5 66.8001 0.399998 63.8001 0.0999985H62.9001C62.8001 0.0999985 62.7001 0.0999985 62.5001 0.0999985H13.5001C13.4001 0.199998 13.3001 0.0999985 13.1001 0.0999985H12.2001C11.1001 0.0999985 10.0001 0.399999 9.0001 0.799999C7.1001 1.5 5.4001 2.6 4.0001 4C2.8001 5.2 1.9001 6.6 1.2001 8.2C0.700096 9.4 0.300096 10.7 0.200096 12V12.3C0.200096 12.6 0.200098 12.8 0.100098 13V60.5C0.200098 60.7 0.200096 60.8 0.200096 61V61.1C0.200096 61.2 0.200096 61.2 0.200096 61.3V61.8C0.200096 61.9 0.200096 62 0.200096 62.1C0.400096 64 1.1001 65.8 2.1001 67.5C3.4001 69.5 5.0001 71 7.1001 72.1C8.6001 72.9 10.2001 73.5 11.9001 73.6H12.7001C12.8001 73.6 12.9001 73.6 13.1001 73.6H62.7001C62.8001 73.5 62.9001 73.6 63.1001 73.6H63.9001C64.3001 73.6 64.6001 73.6 65.0001 73.5C69.3001 72.5 72.4001 70.1 74.4001 66.1C75.1001 64.7 75.6001 63.2 75.6001 61.7V60.8C75.6001 60.7 75.6001 60.6 75.6001 60.5V13H75.8001ZM46.6001 51.9C46.5001 51.9 46.4001 51.9 46.3001 51.9C45.3001 51.9 44.2001 51.9 43.2001 51.9H40.3001C39.6001 51.9 39.6001 51.9 39.4001 51.3C38.6001 49 37.8001 46.7 37.0001 44.5C36.9001 44.1 37.0001 44.2 36.5001 44.2C32.9001 44.2 29.2001 44.2 25.6001 44.2C25.2001 44.2 25.2001 44.2 25.1001 44.6C24.4001 46.9 23.6001 49.2 22.9001 51.5V51.6C22.8001 52 22.6001 52.1 22.2001 52.1C20.3001 52.1 18.4001 52.1 16.5001 52.1C16.0001 52.1 15.9001 51.9 16.0001 51.5C16.2001 50.9 16.4001 50.4 16.6001 49.8C19.3001 41.9 22.1001 34 24.8001 26.1C25.3001 24.7 25.8001 23.3 26.3001 21.9C26.5001 21.2 26.6001 20.4 26.6001 19.7C26.6001 19.6 26.6001 19.5 26.6001 19.4C26.6001 19.2 26.7001 19.1 26.9001 19.1C27.0001 19.1 27.1001 19.1 27.2001 19.1C29.7001 19.1 32.3001 19.1 34.8001 19.1C34.9001 19.1 34.9001 19.1 35.0001 19.1C35.3001 19.1 35.4001 19.1 35.5001 19.5C35.8001 20.3 36.1001 21.2 36.4001 22C39.9001 31.8 43.3001 41.6 46.8001 51.4C46.9001 51.5 46.9001 51.7 46.9001 51.8C46.9001 51.7 46.8001 51.8 46.6001 51.9ZM57.4001 51.3C57.4001 51.4 57.4001 51.4 57.4001 51.5C57.4001 51.9 57.3001 52 56.9001 52C54.9001 52 53.0001 52 51.0001 52C50.6001 52 50.4001 51.9 50.4001 51.4C50.4001 50.8 50.4001 50.2 50.4001 49.6V27.6C50.4001 26.9 50.4001 26.9 51.1001 26.9H56.7001C56.8001 26.9 56.9001 26.9 57.0001 26.9C57.3001 26.9 57.4001 27 57.4001 27.3C57.4001 27.4 57.4001 27.5 57.4001 27.6C57.4001 35.5 57.4001 43.4 57.4001 51.3ZM57.4001 22.1C56.7001 23.6 55.5001 24.2 53.6001 24.2C53.3001 24.2 52.8001 24.1 52.3001 23.9C50.8001 23.3 50.1001 22.1 49.9001 20.6C49.8001 19.6 50.0001 18.7 50.6001 17.9C51.5001 16.7 52.7001 16.2 54.1001 16.3C54.4001 16.3 54.7001 16.4 55.1001 16.4C56.2001 16.7 56.9001 17.3 57.4001 18.4C58.0001 19.7 58.0001 20.9 57.4001 22.1Z" fill="#A3A3A3"/>
<path d="M12.5001 0.0999985C11.6001 0.299998 10.8001 0.399998 10.0001 0.599998C5.2001 2 1.6001 6.1 0.700096 11C0.600096 11.3 0.600098 11.6 0.600098 11.9C0.600098 12 0.600098 12 0.600098 12.1C0.600098 12.1 0.600099 12.1 0.500099 12.1C0.500099 12.1 0.500098 12.1 0.600098 12.1C0.600098 12 0.600098 12 0.600098 11.9V11.8C0.700098 10.5 1.1001 9.2 1.6001 8C2.3001 6.4 3.2001 5 4.4001 3.8C5.8001 2.4 7.5001 1.3 9.4001 0.599998C10.3001 0.399998 11.3001 0.0999985 12.5001 0.0999985C12.4001 0.0999985 12.4001 -1.52737e-06 12.5001 0.0999985Z" fill="#A3A3A3"/>
<path d="M12.2001 73.6C10.4001 73.5 8.8001 72.9 7.3001 72.1C5.2001 71 3.6001 69.4 2.3001 67.5C1.3001 65.8 0.600097 64.1 0.400097 62.1C0.400097 62 0.400097 61.9 0.400097 61.8V61.7C0.400097 61.6 0.400098 61.6 0.300098 61.6H0.400097C0.500097 61.7 0.400099 61.8 0.500099 61.9C0.800099 64.6 1.8001 66.9 3.6001 69C5.7001 71.5 8.4001 73 11.6001 73.6C11.8001 73.5 12.0001 73.5 12.2001 73.6Z" fill="#A3A3A3"/>
<path d="M75.8001 12.1C75.5001 9.2 74.4001 6.7 72.5001 4.6C70.5001 2.3 67.9001 0.899999 64.9001 0.299999C64.5001 0.199999 64.2001 0.199998 63.8001 0.0999985C66.8001 0.299998 69.3001 1.5 71.5001 3.5C73.7001 5.5 75.0001 7.9 75.7001 10.7C75.8001 11.1 75.8001 11.6 75.8001 12.1Z" fill="#A3A3A3"/>
<path d="M75.8001 61.6C75.8001 63.2 75.3001 64.7 74.6001 66.1C72.6001 70 69.5001 72.5 65.2001 73.5C64.8001 73.6 64.5001 73.6 64.1001 73.6C65.2001 73.4 66.4001 73.2 67.5001 72.7C71.9001 70.8 74.7001 67.5 75.6001 62.7C75.7001 62.3 75.7001 61.9 75.8001 61.6Z" fill="#A3A3A3"/>
<path d="M0.400097 60.4C0.600097 60.7 0.500099 61 0.500099 61.4C0.400099 61.4 0.400097 61.3 0.400097 61.3C0.400097 61.2 0.400097 61.2 0.400097 61.1C0.400097 61 0.400097 60.9 0.400097 60.8C0.400097 60.7 0.400097 60.5 0.400097 60.4Z" fill="#A3A3A3"/>
<path d="M0.500099 12.2C0.500099 12.5 0.500097 12.7 0.400097 13C0.400097 12.9 0.400097 12.8 0.400097 12.6C0.500097 12.5 0.400097 12.5 0.400097 12.4C0.400097 12.3 0.400099 12.2 0.500099 12.2C0.500099 12.1 0.500099 12.1 0.500099 12.2Z" fill="#A3A3A3"/>
<path d="M0.500099 61.8L0.400097 61.7C0.400097 61.6 0.400098 61.6 0.300098 61.6V61.3C0.300098 61.4 0.300097 61.4 0.400097 61.5C0.500097 61.5 0.500099 61.7 0.500099 61.8Z" fill="#A3A3A3"/>
<path d="M63.0001 73.6C63.1001 73.5 63.2001 73.5 63.4001 73.5C63.2001 73.6 63.1001 73.6 63.0001 73.6Z" fill="#A3A3A3"/>
<path d="M63.0001 0.0999985C62.9001 0.0999985 62.7001 0.1 62.6001 0C62.7001 0 62.9001 -1.52737e-06 63.0001 0.0999985Z" fill="#A3A3A3"/>
<path d="M13.0001 73.5C13.1001 73.5 13.3001 73.5 13.4001 73.6C13.2001 73.6 13.1001 73.6 13.0001 73.5Z" fill="#A3A3A3"/>
<path d="M13.7001 0C13.6001 0.1 13.5001 0.0999985 13.3001 0.0999985C13.4001 -1.52737e-06 13.5001 0 13.7001 0Z" fill="#A3A3A3"/>
<path d="M13.0001 73.5C12.9001 73.6 12.8001 73.6 12.7001 73.6C12.8001 73.5 12.9001 73.5 13.0001 73.5Z" fill="#A3A3A3"/>
<path d="M64.1001 73.5H63.8001C63.9001 73.5 64.0001 73.5 64.1001 73.5Z" fill="#A3A3A3"/>
<path d="M13.3001 0C13.2001 0.1 13.1001 0.0999985 13.0001 0.0999985C13.1001 -1.52737e-06 13.2001 0 13.3001 0Z" fill="#A3A3A3"/>
<path d="M63.0001 0.0999985C63.1001 -1.52737e-06 63.2001 0 63.3001 0C63.2001 0.1 63.1001 0.0999985 63.0001 0.0999985Z" fill="#A3A3A3"/>
<path d="M0.500099 12.2C0.500099 12.3 0.500099 12.4 0.500099 12.5V12.2Z" fill="#A3A3A3"/>
<path d="M75.8001 13C75.7001 12.9 75.7001 12.8 75.7001 12.7C75.7001 12.7 75.7001 12.7 75.8001 12.7C75.8001 12.8 75.8001 12.9 75.8001 13Z" fill="#A3A3A3"/>
<path d="M0.400097 60.8C0.500097 60.9 0.500099 61 0.500099 61.1C0.500099 61.1 0.500097 61.1 0.400097 61.1C0.400097 61 0.400097 60.9 0.400097 60.8Z" fill="#A3A3A3"/>
<path d="M12.7001 0.0999985C12.6001 0.0999985 12.5001 0.0999985 12.5001 0.0999985H12.7001Z" fill="#A3A3A3"/>
<path d="M12.6001 0.0999985C12.7001 -1.52737e-06 12.7001 0.0999985 12.6001 0.0999985C12.7001 -1.52737e-06 12.7001 0 12.8001 0C12.8001 0.1 12.7001 0.0999985 12.6001 0.0999985Z" fill="#A3A3A3"/>
<path d="M75.8001 61.1C75.8001 61 75.8001 61 75.8001 60.9C75.8001 60.9 75.8001 60.9 75.9001 60.9C75.8001 60.9 75.8001 61 75.8001 61.1Z" fill="#A3A3A3"/>
<path d="M75.8001 61.4C75.8001 61.3 75.8001 61.3 75.8001 61.2C75.8001 61.2 75.8001 61.2 75.9001 61.2C75.8001 61.3 75.8001 61.4 75.8001 61.4C75.8001 61.5 75.8001 61.5 75.8001 61.4Z" fill="#A3A3A3"/>
<path d="M63.8001 0.0999985C63.7001 0.0999985 63.7001 0.0999985 63.6001 0.0999985H63.8001Z" fill="#A3A3A3"/>
<path d="M63.6001 0C63.5001 0.1 63.5001 0.0999985 63.4001 0.0999985C63.5001 -1.52737e-06 63.5001 0 63.6001 0Z" fill="#A3A3A3"/>
<path d="M12.5001 73.6H12.3001C12.3001 73.5 12.4001 73.5 12.5001 73.6C12.5001 73.5 12.4001 73.5 12.5001 73.6C12.5001 73.5 12.5001 73.5 12.5001 73.6Z" fill="#A3A3A3"/>
<path d="M63.3001 73.6C63.4001 73.5 63.4001 73.5 63.5001 73.5C63.5001 73.6 63.4001 73.6 63.3001 73.6Z" fill="#A3A3A3"/>
<path d="M75.8001 12.7C75.7001 12.6 75.7001 12.6 75.7001 12.6C75.7001 12.6 75.7001 12.6 75.8001 12.6V12.7Z" fill="#A3A3A3"/>
<path d="M75.8001 60.9C75.7001 60.9 75.7001 60.8 75.7001 60.8C75.7001 60.8 75.7001 60.8 75.8001 60.8C75.8001 60.8 75.8001 60.8 75.8001 60.9Z" fill="#A3A3A3"/>
<path d="M0.400097 12.5C0.400097 12.4 0.400097 12.4 0.400097 12.5C0.500097 12.6 0.500097 12.6 0.400097 12.6C0.400097 12.5 0.400097 12.5 0.400097 12.5Z" fill="#A3A3A3"/>
<path d="M0.400097 61.1C0.500097 61.1 0.500099 61.2 0.500099 61.2C0.500099 61.2 0.500097 61.2 0.400097 61.2V61.1Z" fill="#A3A3A3"/>
<path d="M75.8001 61.2C75.7001 61.2 75.7001 61.1 75.7001 61.1C75.7001 61.1 75.7001 61.1 75.8001 61.1V61.2Z" fill="#A3A3A3"/>
<path d="M75.8001 12.6C75.7001 12.5 75.7001 12.5 75.7001 12.5C75.7001 12.5 75.7001 12.5 75.8001 12.5C75.8001 12.5 75.8001 12.5 75.8001 12.6Z" fill="#A3A3A3"/>
<path d="M12.4001 73.6C12.4001 73.5 12.5001 73.5 12.5001 73.5C12.5001 73.6 12.5001 73.6 12.4001 73.6Z" fill="#A3A3A3"/>
<path d="M12.6001 73.6C12.6001 73.5 12.7001 73.5 12.7001 73.5C12.7001 73.5 12.7001 73.5 12.7001 73.6H12.6001Z" fill="#A3A3A3"/>
<path d="M75.8001 12.5C75.7001 12.4 75.7001 12.4 75.7001 12.4C75.7001 12.4 75.7001 12.4 75.8001 12.4C75.8001 12.4 75.8001 12.4 75.8001 12.5Z" fill="#A3A3A3"/>
<path d="M63.4001 0C63.4001 0.1 63.3001 0.0999985 63.3001 0.0999985C63.3001 0.0999985 63.3001 0.1 63.3001 0H63.4001Z" fill="#A3A3A3"/>
<path d="M12.9001 0.0999985C13.0001 -1.52737e-06 13.0001 0 13.0001 0C13.0001 0 13.0001 -1.52737e-06 13.0001 0.0999985H12.9001Z" fill="#A3A3A3"/>
<path d="M63.5001 73.6C63.6001 73.5 63.6001 73.5 63.6001 73.5C63.6001 73.6 63.6001 73.6 63.5001 73.6Z" fill="#A3A3A3"/>
<path d="M63.7001 73.6C63.8001 73.5 63.8001 73.5 63.8001 73.5C63.8001 73.5 63.8001 73.5 63.8001 73.6H63.7001Z" fill="#A3A3A3"/>
<path d="M75.8001 61.4V61.5C75.8001 61.5 75.8001 61.5 75.8001 61.4Z" fill="#A3A3A3"/>
<path d="M35.0001 37.6H27.1001C27.1001 37.5 27.1001 37.5 27.1001 37.4C28.0001 34.9 28.7001 32.3 29.5001 29.7C30.0001 28.1 30.5001 26.4 30.9001 24.8C30.9001 24.7 30.9001 24.7 31.0001 24.6H31.1001C32.2001 29 33.6001 33.3 35.0001 37.6Z" fill="#A3A3A3"/>
<path d="M0.500099 12.2C0.400099 12.2 0.400099 12.2 0.500099 12.2C0.400099 12.1 0.400097 12.1 0.400097 12C0.400097 12 0.400099 11.9 0.500099 11.9C0.500099 12 0.500099 12.1 0.500099 12.2Z" fill="#A3A3A3"/>
<path d="M35.0001 37.6H27.1001C27.1001 37.5 27.1001 37.5 27.1001 37.4C28.0001 34.9 28.7001 32.3 29.5001 29.7C30.0001 28.1 30.5001 26.4 30.9001 24.8C30.9001 24.7 30.9001 24.7 31.0001 24.6H31.1001C32.2001 29 33.6001 33.3 35.0001 37.6Z" fill="#A3A3A3"/>
</svg>
