<svg width="35" height="35" viewBox="0 0 35 35" fill="none" xmlns="http://www.w3.org/2000/svg">
<rect x="0.843262" y="0.494629" width="34.0107" height="34.0107" rx="17.0054" fill="#8C3EEF"/>
<path d="M17.8454 10.8975C19.9967 10.8975 20.2492 10.9071 21.0995 10.9454C21.8858 10.9806 22.3109 11.1117 22.5954 11.2235C22.9726 11.3706 23.2411 11.5432 23.5224 11.8245C23.8037 12.1058 23.9795 12.3743 24.1234 12.7515C24.232 13.036 24.3663 13.4611 24.4015 14.2474C24.4398 15.0977 24.4494 15.3502 24.4494 17.5015C24.4494 19.6527 24.4398 19.9052 24.4015 20.7555C24.3663 21.5418 24.2352 21.967 24.1234 22.2515C23.9763 22.6286 23.8037 22.8972 23.5224 23.1784C23.2411 23.4597 22.9726 23.6355 22.5954 23.7794C22.3109 23.8881 21.8858 24.0223 21.0995 24.0575C20.2492 24.0958 19.9967 24.1054 17.8454 24.1054C15.6942 24.1054 15.4417 24.0958 14.5914 24.0575C13.8051 24.0223 13.3799 23.8913 13.0954 23.7794C12.7183 23.6323 12.4497 23.4597 12.1685 23.1784C11.8872 22.8972 11.7114 22.6286 11.5675 22.2515C11.4588 21.967 11.3246 21.5418 11.2894 20.7555C11.2511 19.9052 11.2415 19.6527 11.2415 17.5015C11.2415 15.3502 11.2511 15.0977 11.2894 14.2474C11.3246 13.4611 11.4556 13.036 11.5675 12.7515C11.7146 12.3743 11.8872 12.1058 12.1685 11.8245C12.4497 11.5432 12.7183 11.3674 13.0954 11.2235C13.3799 11.1149 13.8051 10.9806 14.5914 10.9454C15.4417 10.9039 15.6942 10.8975 17.8454 10.8975ZM17.8454 9.44629C15.659 9.44629 15.3841 9.45588 14.5243 9.49424C13.6676 9.53259 13.0827 9.67004 12.5712 9.86823C12.0406 10.0728 11.5931 10.3509 11.1456 10.7984C10.6981 11.2459 10.4232 11.6966 10.2154 12.224C10.0172 12.7355 9.87976 13.3204 9.8414 14.1803C9.80305 15.037 9.79346 15.3119 9.79346 17.4983C9.79346 19.6847 9.80305 19.9596 9.8414 20.8194C9.87976 21.6761 10.0172 22.2611 10.2154 22.7757C10.42 23.3063 10.6981 23.7538 11.1456 24.2013C11.5931 24.6488 12.0438 24.9237 12.5712 25.1315C13.0827 25.3297 13.6676 25.4671 14.5275 25.5055C15.3873 25.5439 15.659 25.5534 17.8486 25.5534C20.0382 25.5534 20.3099 25.5439 21.1698 25.5055C22.0265 25.4671 22.6114 25.3297 23.1261 25.1315C23.6567 24.9269 24.1042 24.6488 24.5517 24.2013C24.9992 23.7538 25.2741 23.3031 25.4819 22.7757C25.6801 22.2642 25.8175 21.6793 25.8559 20.8194C25.8942 19.9596 25.9038 19.6879 25.9038 17.4983C25.9038 15.3087 25.8942 15.037 25.8559 14.1771C25.8175 13.3204 25.6801 12.7355 25.4819 12.2208C25.2773 11.6902 24.9992 11.2427 24.5517 10.7952C24.1042 10.3477 23.6535 10.0728 23.1261 9.86503C22.6146 9.66685 22.0297 9.5294 21.1698 9.49104C20.3067 9.45588 20.0318 9.44629 17.8454 9.44629Z" fill="#F0F0F0"/>
<rect x="11.1025" y="10.7559" width="13.7475" height="13.7475" rx="3" fill="#F0F0F0"/>
<path d="M17.8453 13.3623C15.563 13.3623 13.709 15.2131 13.709 17.4986C13.709 19.7841 15.563 21.6348 17.8453 21.6348C20.1276 21.6348 21.9815 19.7809 21.9815 17.4986C21.9815 15.2163 20.1276 13.3623 17.8453 13.3623ZM17.8453 20.1836C16.3621 20.1836 15.1602 18.9818 15.1602 17.4986C15.1602 16.0154 16.3621 14.8135 17.8453 14.8135C19.3284 14.8135 20.5303 16.0154 20.5303 17.4986C20.5303 18.9818 19.3284 20.1836 17.8453 20.1836Z" fill="#8C3EEF"/>
<path d="M22.145 14.1641C22.6782 14.1641 23.1104 13.7319 23.1104 13.1987C23.1104 12.6656 22.6782 12.2334 22.145 12.2334C21.6119 12.2334 21.1797 12.6656 21.1797 13.1987C21.1797 13.7319 21.6119 14.1641 22.145 14.1641Z" fill="#8C3EEF"/>
</svg>
