<svg width="43" height="44" viewBox="0 0 43 44" fill="none" xmlns="http://www.w3.org/2000/svg">
<path d="M21.109 42.8997C17.7256 42.8698 14.5175 42.112 11.5059 40.5545C11.2108 40.402 10.9508 40.3754 10.6319 40.4603C7.24784 41.3607 3.86045 42.2492 0.473063 43.1384C-0.0390143 43.273 -0.0681246 43.2438 0.072796 42.7266C0.972571 39.4259 1.87102 36.1259 2.78138 32.8279C2.87334 32.4957 2.85614 32.2232 2.68677 31.9116C1.17237 29.1214 0.318249 26.145 0.16542 22.963C-0.106497 17.3085 1.60109 12.3296 5.28421 8.06022C8.68814 4.11439 13.0044 1.76254 18.1596 1.01196C29.2559 -0.603898 39.7515 6.88993 41.741 17.9536C42.9954 24.9296 41.1422 31.0874 36.3331 36.2943C33.1587 39.7309 29.2017 41.7844 24.6089 42.6013C23.455 42.8069 22.2866 42.9176 21.109 42.899V42.8997ZM21.0713 39.2317C22.0868 39.2429 23.0905 39.1435 24.0882 38.9691C33.2169 37.3798 39.5147 28.8118 38.3145 19.6331C37.8137 15.8007 36.2603 12.4689 33.5444 9.73509C29.117 5.27805 23.7534 3.65158 17.6111 4.82253C13.7222 5.56382 10.4831 7.54834 7.92267 10.5818C4.72979 14.3639 3.39468 18.7559 3.86244 23.6738C4.12509 26.4374 5.05464 28.9955 6.57565 31.3234C6.77876 31.6344 6.82177 31.9122 6.72121 32.2676C6.21839 34.0479 5.73542 35.8335 5.25047 37.6185C5.12278 38.0879 5.15321 38.1184 5.61633 37.9984C7.46021 37.5197 9.30541 37.0469 11.1427 36.5456C11.5052 36.4468 11.7791 36.5032 12.0894 36.6915C14.8483 38.3671 17.846 39.2085 21.0713 39.2303V39.2317Z" fill="#8C3EEF"/>
<path d="M26.5864 31.9588C25.0389 32.0338 23.6647 31.3999 22.2721 30.8701C19.1176 29.6706 16.6081 27.5794 14.4414 25.0472C13.1612 23.5513 11.9478 21.9998 11.1347 20.181C10.403 18.5439 10.1648 16.8671 10.7457 15.1266C11.095 14.0789 11.7341 13.2289 12.5525 12.5121C13.0646 12.0639 13.7037 12.0805 14.3421 12.0613C15.2088 12.0361 15.7222 12.4027 16.0266 13.2236C16.4811 14.4483 17.0051 15.6471 17.5198 16.8485C17.7309 17.3412 17.7143 17.7874 17.3915 18.2164C16.9938 18.7442 16.6042 19.2779 16.1907 19.7925C15.926 20.1213 15.8903 20.431 16.1073 20.7997C17.801 23.672 20.1748 25.7454 23.277 26.974C23.6628 27.1265 23.981 27.0682 24.2608 26.7406C24.7947 26.1153 25.3247 25.4874 25.8136 24.825C26.2046 24.2953 26.4441 24.2091 27.0587 24.4617C28.5387 25.0697 29.9572 25.8097 31.381 26.5357C31.8077 26.7532 31.8414 27.1544 31.7945 27.5635C31.4855 30.2541 29.5781 31.9462 26.851 31.9582C26.763 31.9582 26.675 31.9582 26.587 31.9582L26.5864 31.9588Z" fill="#8C3EEF"/>
</svg>
