<?xml version="1.0" encoding="UTF-8"?>
<svg id="Camada_1" xmlns="http://www.w3.org/2000/svg" version="1.1" viewBox="0 0 32 32">
  <!-- Generator: Adobe Illustrator 29.1.0, SVG Export Plug-In . SVG Version: 2.1.0 Build 142)  -->
  <defs>
    <style>
      .st0 {
        fill: #141414;
      }

      .st1 {
        fill: #fff;
      }

      .st2 {
        fill: #8c3eef;
      }
    </style>
  </defs>
  <circle class="st0" cx="16" cy="16" r="16"/>
  <g>
    <path class="st1" d="M18.9,7.6h-1.7c0,0-.1,0-.1.1v7.4c0,0,0,.1.1.1h1.7c0,0,.1,0,.1-.1v-7.4c0,0,0-.1-.1-.1Z"/>
    <path class="st1" d="M15.7,21.2c-.4,1.7-2,2.9-4,2.9s-4.2-1.7-4.2-4,1.8-4,4.2-4,3.6,1.2,4,2.9c0,0,0,.2-.2.2h-1.8c0,0-.1,0-.1,0-.3-.7-1-1.1-1.9-1.1-1.2,0-2.2,1-2.2,2.1s.9,2.1,2.2,2.1,1.6-.5,1.9-1.1c0,0,0,0,.1,0h1.9c0,0,.2,0,.1.2h0Z"/>
    <path class="st1" d="M19.9,21.2l-.8.9s0,0,0,.1v1.7c0,0,0,.1-.2.1h-1.7c0,0-.2,0-.2-.1v-7.3c0,0,0-.1.2-.1h1.7c0,0,.2,0,.2.1v3l-.2.2c0,0,0,.1,0,.2l1,1.3h0s0,0,0,0Z"/>
    <path class="st2" d="M24.4,24h-2.2s0,0-.1,0l-1-1.2v-.2c-.1,0-1.2-1.3-1.2-1.3h0s-1-1.3-1-1.3c0,0,0-.1,0-.2l1.4-1.5,1.7-1.8s0,0,.1,0h2.1c.1,0,.2.2.1.3l-3,3c0,0,0,.1,0,.2l3.2,3.9c0,.1,0,.2-.1.2Z"/>
    <path class="st1" d="M15.5,7.8v1.6c0,0,0,.1-.2.1h-2.6c-.2,0-.3.1-.3.3v5.3c0,0,0,.1-.2.1h-1.7c0,0-.2,0-.2-.1v-5.4c0,0,0-.1.2-.1h1.7c.1,0,.2,0,.3-.2l.9-1.7s0,0,.1,0h1.8c0,0,.2,0,.2.1h0Z"/>
  </g>
</svg>