<?xml version="1.0" encoding="UTF-8"?>
<svg id="Camada_1" xmlns="http://www.w3.org/2000/svg" version="1.1" xmlns:xlink="http://www.w3.org/1999/xlink" viewBox="0 0 32 32">
  <!-- Generator: Adobe Illustrator 29.7.1, SVG Export Plug-In . SVG Version: 2.1.1 Build 8)  -->
  <defs>
    <style>
      .st0 {
        fill: #141414;
      }

      .st1 {
        fill: url(#Gradiente_sem_nome_2);
      }

      .st2 {
        fill: url(#Gradiente_sem_nome);
      }

      .st3 {
        fill: #efefef;
      }
    </style>
    <linearGradient id="Gradiente_sem_nome" data-name="Gradiente sem nome" x1="18.26" y1="10.21" x2="32.71" y2="10.21" gradientTransform="translate(0 31.73) scale(1 -1)" gradientUnits="userSpaceOnUse">
      <stop offset="0" stop-color="#860cf4"/>
      <stop offset=".17" stop-color="#8a0ff3"/>
      <stop offset=".36" stop-color="#971af3"/>
      <stop offset=".56" stop-color="#ad2cf3"/>
      <stop offset=".76" stop-color="#cb45f2"/>
      <stop offset=".89" stop-color="#e45af2"/>
    </linearGradient>
    <linearGradient id="Gradiente_sem_nome_2" data-name="Gradiente sem nome 2" x1="17.23" y1="10.21" x2="21.99" y2="10.21" gradientTransform="translate(0 31.73) scale(1 -1)" gradientUnits="userSpaceOnUse">
      <stop offset="0" stop-color="#f2f2f2"/>
      <stop offset=".24" stop-color="#efefef"/>
      <stop offset=".38" stop-color="#e7e7e7"/>
      <stop offset=".49" stop-color="#d9d9d9"/>
      <stop offset=".59" stop-color="#c5c5c5"/>
      <stop offset=".66" stop-color="#b3b3b3"/>
    </linearGradient>
  </defs>
  <circle class="st0" cx="16" cy="16" r="16"/>
  <g>
    <g>
      <rect class="st3" x="17.23" y="5.4" width="2.48" height="9.75" rx=".19" ry=".19"/>
      <path class="st3" d="M15.44,5.59v2.11c0,.1-.09.19-.19.19h-3.24c-.2,0-.36.16-.36.36v6.71c0,.1-.09.19-.19.19h-2.11c-.1,0-.19-.09-.19-.19v-6.89c0-.1.09-.19.19-.19h2.08c.14,0,.26-.08.32-.2l1.16-2.19c.03-.07.09-.1.17-.1h2.17c.1,0,.19.09.19.19v.02Z"/>
    </g>
    <path class="st3" d="M15.63,22.86c-.47,2.2-2.45,3.76-4.97,3.76-2.98,0-5.23-2.2-5.23-5.1s2.26-5.1,5.23-5.1c2.51,0,4.49,1.55,4.97,3.75.03.11-.07.23-.19.23h-2.28c-.08,0-.14-.05-.18-.11-.36-.87-1.25-1.45-2.33-1.45-1.47,0-2.67,1.22-2.67,2.69s1.14,2.69,2.67,2.69c1.09,0,1.97-.59,2.33-1.45.03-.07.09-.11.16-.11h2.3c.11,0,.2.1.18.22h0Z"/>
    <path class="st0" d="M19.53,21.16c-.06-.08-.06-.17,0-.24l.17-.2h0l-.19.2c-.07.07-.07.18,0,.26l1.28,1.64h0s-1.28-1.64-1.28-1.64l.03-.02Z"/>
    <path class="st2" d="M26.36,26.39h-2.69c-.06,0-.11-.03-.15-.08l-1.22-1.59-.18-.23-1.29-1.68v-.02l-1.29-1.63c-.06-.08-.06-.18,0-.26l.19-.21,1.57-1.7,2.13-2.3s.09-.07.14-.07h2.6c.17,0,.26.21.14.33l-3.66,3.89c-.07.07-.08.18,0,.26l3.89,4.96c.1.13,0,.31-.15.31h-.02Z"/>
    <path class="st0" d="M20.6,22.91"/>
    <path class="st1" d="M20.81,22.81l-1.04,1.1s-.06.09-.06.13v2.16c0,.1-.09.19-.19.19h-2.11c-.1,0-.19-.09-.19-.19v-9.37c0-.1.09-.19.19-.19h2.11c.1,0,.19.09.19.19v3.87l-.19.21c-.07.07-.07.18,0,.26l1.28,1.63v.02h0Z"/>
  </g>
</svg>