<svg width="51" height="75" viewBox="0 0 51 75" fill="none" xmlns="http://www.w3.org/2000/svg">
<path d="M39.2657 1C41.1557 1.38 42.9457 1.99 44.5557 3.08C50.5857 7.17 51.7257 15.68 46.9757 21.19C44.9457 23.55 42.3757 24.93 39.2857 25.44C42.6357 25.95 45.3757 27.49 47.4757 30.14C49.6157 32.83 50.3857 35.93 49.9757 39.29C49.2957 44.82 44.6257 49.32 39.2857 49.87C33.3057 50.49 27.2957 46.86 25.6657 40C25.6657 40.25 25.6657 40.5 25.6657 40.75C25.6657 47.84 25.6757 54.93 25.6657 62.02C25.6557 67.25 22.5057 71.8 17.6357 73.65C9.79565 76.62 1.23565 70.71 1.10565 62.35C1.01565 56.45 5.33565 51.08 11.1557 50.07C11.3557 50.04 11.5557 49.99 11.8357 49.93C4.39565 48.8 0.725653 42.15 1.10565 36.87C1.42565 32.45 4.68565 26.67 11.7757 25.47C10.1657 25.18 8.75565 24.81 7.47565 24.1C3.65565 21.98 1.43565 18.76 0.985653 14.4C0.295653 7.78 5.04565 2.09 11.1957 1.1C11.2857 1.09 11.3757 1.04 11.4657 1C20.7257 1 29.9957 1 39.2657 1ZM25.6557 35.36C27.0457 30.1 30.3457 26.82 35.8157 25.52C32.4757 25.52 29.3157 25.52 26.1557 25.52C25.7857 25.52 25.6557 25.73 25.6557 26.07C25.6557 29.17 25.6557 32.27 25.6557 35.36Z" fill="#A3A3A3" stroke="#A3A3A3"/>
</svg>
