<svg width="64" height="68" viewBox="0 0 64 68" fill="none" xmlns="http://www.w3.org/2000/svg">
<mask id="path-1-inside-1_392_869" fill="white">
<path d="M12.13 67.7316C10.4299 67.4796 8.73267 67.2192 7.11958 66.5892C3.83449 65.3041 1.53128 63.137 0.989841 59.5223C0.280081 54.7821 2.23544 51.4419 6.67915 49.6163C6.94286 49.5072 7.20655 49.4036 7.61333 49.2384C5.85155 47.97 5.09971 46.2509 5.08849 44.2154C5.07727 42.2219 5.59626 40.4271 7.34681 39.1924C7.13641 38.9012 6.80538 38.8676 6.54729 38.722C4.95384 37.8233 3.86536 36.4625 2.97605 34.9142C0.069683 29.852 0.933741 23.6083 5.08289 19.7052C8.61205 16.3874 14.2957 15.413 18.8432 17.5269C20.274 18.1933 21.6178 18.1961 23.0681 17.9609C24.6868 17.7005 26.2495 17.2441 27.7756 16.659C28.2974 16.4574 28.4797 16.533 28.4741 17.1237C28.4517 19.2796 28.4573 21.4383 28.4741 23.5971C28.4769 24.0142 28.3507 24.255 27.9299 24.3586C27.3519 24.4986 26.7909 24.7058 26.2102 24.8346C25.7641 24.9354 25.607 25.0614 25.7501 25.5822C27.1471 30.6696 24.8131 36.3673 20.2656 39.0384C19.02 39.772 17.6762 40.2508 16.2651 40.5587C15.7938 40.6623 15.3225 40.7939 14.8708 40.9647C13.7291 41.3959 13.2072 42.2919 13.1287 43.4622C13.0614 44.5066 13.4541 45.3549 14.3294 45.9569C15.4039 46.6961 16.6382 47.0349 17.8726 47.3709C19.6372 47.8496 21.4242 48.2584 23.1186 48.964C25.1834 49.8236 26.8778 51.0807 27.7166 53.2534C28.23 54.5805 28.2665 55.9665 28.1767 57.3552C28.0337 59.5867 27.5119 61.7062 26.1148 63.5234C24.3923 65.7661 21.9937 66.8272 19.3089 67.3732C18.5992 67.516 17.8782 67.6168 17.1628 67.7344H12.1328L12.13 67.7316ZM9.37792 28.8188C9.37231 32.0163 10.6319 33.5618 13.6421 33.8138C15.5806 33.9762 17.1516 33.2986 17.8361 31.5151C18.5487 29.6588 18.5627 27.7521 17.7351 25.9238C17.017 24.3418 15.7742 23.4039 13.9731 23.3563C12.116 23.3059 10.8283 24.2102 10.0035 25.8146C9.52099 26.7525 9.35546 27.7717 9.38071 28.8216L9.37792 28.8188ZM14.8288 61.0987C15.9734 61.1463 17.1376 61.0623 18.2429 60.6199C19.7718 60.0095 20.4928 58.9148 20.504 57.2404C20.5124 55.7313 19.8027 54.6393 18.2289 54.113C15.8022 53.301 13.3223 53.2758 10.8928 54.0962C9.30217 54.6337 8.56716 55.8237 8.5868 57.4952C8.60363 58.9624 9.38632 59.9815 10.9573 60.5611C12.1973 61.0203 13.4878 61.1295 14.8288 61.0959V61.0987Z"/>
<path d="M47.2224 31.9381C47.2224 28.9562 47.2028 26.7975 47.2365 24.6416C47.2449 24.146 47.0765 24.006 46.6221 23.9444C45.8618 23.8408 45.124 23.9836 44.3862 24.0732C43.9205 24.1292 43.7353 24.0256 43.7381 23.544C43.7494 21.5197 43.7522 19.4926 43.7381 17.4683C43.7353 16.9783 43.9373 16.8047 44.4114 16.8187C45.0735 16.8411 45.7356 16.8243 46.3977 16.8243C47.3206 16.8243 47.3346 16.8243 47.3206 15.934C47.2982 14.394 47.4216 12.8513 47.1888 11.3197C47.1046 10.7682 47.2954 10.5946 47.8564 10.603C50.2382 10.631 52.62 10.6226 55.0017 10.6086C55.5348 10.6058 55.7255 10.729 55.6638 11.331C55.4983 12.9717 55.4506 14.6236 55.4702 16.2755C55.4759 16.7907 55.7452 16.8327 56.1435 16.8327C58.1943 16.8243 60.245 16.8467 62.2957 16.8187C62.9045 16.8103 63.1654 16.9699 63.1514 17.6279C63.1177 19.543 63.1205 21.4581 63.1514 23.3732C63.1598 23.978 62.9606 24.2104 62.349 24.1572C60.3039 23.978 58.2504 24.0592 56.2024 24.0172C55.6666 24.006 55.4702 24.1656 55.473 24.7256C55.4927 28.973 55.4674 33.2232 55.4955 37.4706C55.5039 38.5206 55.56 39.5845 55.9387 40.5925C56.469 42.0008 57.5883 42.7204 59.0864 42.5692C60.3207 42.4432 61.5355 42.2192 62.6183 41.5669C63.056 41.3037 63.1457 41.4941 63.1457 41.9057C63.1401 44.042 63.1317 46.1755 63.1514 48.3118C63.1542 48.7766 62.9045 48.9726 62.5398 49.1378C60.8678 49.8937 59.0948 50.2101 57.2797 50.3165C56.0004 50.3921 54.7212 50.3361 53.47 50.0197C50.833 49.3533 49.1469 47.6566 48.2492 45.1423C47.6376 43.4288 47.4104 41.6397 47.3234 39.8309C47.186 36.9275 47.2393 34.0212 47.2309 31.9437L47.2224 31.9381Z"/>
<path d="M36.1355 49.8068C35.0106 49.8068 33.8857 49.7732 32.7607 49.818C32.1014 49.846 31.9275 49.5968 31.9611 48.9753C32.1856 44.9294 32.0874 40.878 32.0986 36.8294C32.1182 30.9748 32.0846 25.1175 32.0677 19.2629C32.0677 18.647 32.0088 18.0338 31.9668 17.4178C31.9387 17.009 32.0874 16.8102 32.5278 16.813C34.9545 16.8242 37.3811 16.827 39.8078 16.813C40.3184 16.8102 40.3745 17.0818 40.3633 17.485C40.3156 19.0893 40.2454 20.6965 40.2426 22.3008C40.2314 29.5665 40.2314 36.8294 40.2426 44.0951C40.2454 45.6798 40.3212 47.2617 40.3548 48.8465C40.3745 49.804 40.3661 49.8068 39.3729 49.8068C38.2929 49.8068 37.21 49.8068 36.1299 49.8068H36.1355Z"/>
<path d="M31.0101 5.59957C31.0045 4.03164 31.5291 2.6681 32.6345 1.54535C34.6796 -0.53216 37.7683 -0.523761 39.7433 1.62375C41.3227 3.34567 41.7323 5.38399 40.9524 7.57909C40.2314 9.6118 38.7782 10.8493 36.5956 11.1461C34.298 11.4597 31.8237 9.609 31.1729 7.10311C31.0438 6.60753 30.9933 6.10916 31.0101 5.59678V5.59957Z"/>
</mask>
<path d="M12.13 67.7316C10.4299 67.4796 8.73267 67.2192 7.11958 66.5892C3.83449 65.3041 1.53128 63.137 0.989841 59.5223C0.280081 54.7821 2.23544 51.4419 6.67915 49.6163C6.94286 49.5072 7.20655 49.4036 7.61333 49.2384C5.85155 47.97 5.09971 46.2509 5.08849 44.2154C5.07727 42.2219 5.59626 40.4271 7.34681 39.1924C7.13641 38.9012 6.80538 38.8676 6.54729 38.722C4.95384 37.8233 3.86536 36.4625 2.97605 34.9142C0.069683 29.852 0.933741 23.6083 5.08289 19.7052C8.61205 16.3874 14.2957 15.413 18.8432 17.5269C20.274 18.1933 21.6178 18.1961 23.0681 17.9609C24.6868 17.7005 26.2495 17.2441 27.7756 16.659C28.2974 16.4574 28.4797 16.533 28.4741 17.1237C28.4517 19.2796 28.4573 21.4383 28.4741 23.5971C28.4769 24.0142 28.3507 24.255 27.9299 24.3586C27.3519 24.4986 26.7909 24.7058 26.2102 24.8346C25.7641 24.9354 25.607 25.0614 25.7501 25.5822C27.1471 30.6696 24.8131 36.3673 20.2656 39.0384C19.02 39.772 17.6762 40.2508 16.2651 40.5587C15.7938 40.6623 15.3225 40.7939 14.8708 40.9647C13.7291 41.3959 13.2072 42.2919 13.1287 43.4622C13.0614 44.5066 13.4541 45.3549 14.3294 45.9569C15.4039 46.6961 16.6382 47.0349 17.8726 47.3709C19.6372 47.8496 21.4242 48.2584 23.1186 48.964C25.1834 49.8236 26.8778 51.0807 27.7166 53.2534C28.23 54.5805 28.2665 55.9665 28.1767 57.3552C28.0337 59.5867 27.5119 61.7062 26.1148 63.5234C24.3923 65.7661 21.9937 66.8272 19.3089 67.3732C18.5992 67.516 17.8782 67.6168 17.1628 67.7344H12.1328L12.13 67.7316ZM9.37792 28.8188C9.37231 32.0163 10.6319 33.5618 13.6421 33.8138C15.5806 33.9762 17.1516 33.2986 17.8361 31.5151C18.5487 29.6588 18.5627 27.7521 17.7351 25.9238C17.017 24.3418 15.7742 23.4039 13.9731 23.3563C12.116 23.3059 10.8283 24.2102 10.0035 25.8146C9.52099 26.7525 9.35546 27.7717 9.38071 28.8216L9.37792 28.8188ZM14.8288 61.0987C15.9734 61.1463 17.1376 61.0623 18.2429 60.6199C19.7718 60.0095 20.4928 58.9148 20.504 57.2404C20.5124 55.7313 19.8027 54.6393 18.2289 54.113C15.8022 53.301 13.3223 53.2758 10.8928 54.0962C9.30217 54.6337 8.56716 55.8237 8.5868 57.4952C8.60363 58.9624 9.38632 59.9815 10.9573 60.5611C12.1973 61.0203 13.4878 61.1295 14.8288 61.0959V61.0987Z" fill="#A3A3A3"/>
<path d="M47.2224 31.9381C47.2224 28.9562 47.2028 26.7975 47.2365 24.6416C47.2449 24.146 47.0765 24.006 46.6221 23.9444C45.8618 23.8408 45.124 23.9836 44.3862 24.0732C43.9205 24.1292 43.7353 24.0256 43.7381 23.544C43.7494 21.5197 43.7522 19.4926 43.7381 17.4683C43.7353 16.9783 43.9373 16.8047 44.4114 16.8187C45.0735 16.8411 45.7356 16.8243 46.3977 16.8243C47.3206 16.8243 47.3346 16.8243 47.3206 15.934C47.2982 14.394 47.4216 12.8513 47.1888 11.3197C47.1046 10.7682 47.2954 10.5946 47.8564 10.603C50.2382 10.631 52.62 10.6226 55.0017 10.6086C55.5348 10.6058 55.7255 10.729 55.6638 11.331C55.4983 12.9717 55.4506 14.6236 55.4702 16.2755C55.4759 16.7907 55.7452 16.8327 56.1435 16.8327C58.1943 16.8243 60.245 16.8467 62.2957 16.8187C62.9045 16.8103 63.1654 16.9699 63.1514 17.6279C63.1177 19.543 63.1205 21.4581 63.1514 23.3732C63.1598 23.978 62.9606 24.2104 62.349 24.1572C60.3039 23.978 58.2504 24.0592 56.2024 24.0172C55.6666 24.006 55.4702 24.1656 55.473 24.7256C55.4927 28.973 55.4674 33.2232 55.4955 37.4706C55.5039 38.5206 55.56 39.5845 55.9387 40.5925C56.469 42.0008 57.5883 42.7204 59.0864 42.5692C60.3207 42.4432 61.5355 42.2192 62.6183 41.5669C63.056 41.3037 63.1457 41.4941 63.1457 41.9057C63.1401 44.042 63.1317 46.1755 63.1514 48.3118C63.1542 48.7766 62.9045 48.9726 62.5398 49.1378C60.8678 49.8937 59.0948 50.2101 57.2797 50.3165C56.0004 50.3921 54.7212 50.3361 53.47 50.0197C50.833 49.3533 49.1469 47.6566 48.2492 45.1423C47.6376 43.4288 47.4104 41.6397 47.3234 39.8309C47.186 36.9275 47.2393 34.0212 47.2309 31.9437L47.2224 31.9381Z" fill="#A3A3A3"/>
<path d="M36.1355 49.8068C35.0106 49.8068 33.8857 49.7732 32.7607 49.818C32.1014 49.846 31.9275 49.5968 31.9611 48.9753C32.1856 44.9294 32.0874 40.878 32.0986 36.8294C32.1182 30.9748 32.0846 25.1175 32.0677 19.2629C32.0677 18.647 32.0088 18.0338 31.9668 17.4178C31.9387 17.009 32.0874 16.8102 32.5278 16.813C34.9545 16.8242 37.3811 16.827 39.8078 16.813C40.3184 16.8102 40.3745 17.0818 40.3633 17.485C40.3156 19.0893 40.2454 20.6965 40.2426 22.3008C40.2314 29.5665 40.2314 36.8294 40.2426 44.0951C40.2454 45.6798 40.3212 47.2617 40.3548 48.8465C40.3745 49.804 40.3661 49.8068 39.3729 49.8068C38.2929 49.8068 37.21 49.8068 36.1299 49.8068H36.1355Z" fill="#A3A3A3"/>
<path d="M31.0101 5.59957C31.0045 4.03164 31.5291 2.6681 32.6345 1.54535C34.6796 -0.53216 37.7683 -0.523761 39.7433 1.62375C41.3227 3.34567 41.7323 5.38399 40.9524 7.57909C40.2314 9.6118 38.7782 10.8493 36.5956 11.1461C34.298 11.4597 31.8237 9.609 31.1729 7.10311C31.0438 6.60753 30.9933 6.10916 31.0101 5.59678V5.59957Z" fill="#A3A3A3"/>
<path d="M12.13 67.7316C10.4299 67.4796 8.73267 67.2192 7.11958 66.5892C3.83449 65.3041 1.53128 63.137 0.989841 59.5223C0.280081 54.7821 2.23544 51.4419 6.67915 49.6163C6.94286 49.5072 7.20655 49.4036 7.61333 49.2384C5.85155 47.97 5.09971 46.2509 5.08849 44.2154C5.07727 42.2219 5.59626 40.4271 7.34681 39.1924C7.13641 38.9012 6.80538 38.8676 6.54729 38.722C4.95384 37.8233 3.86536 36.4625 2.97605 34.9142C0.069683 29.852 0.933741 23.6083 5.08289 19.7052C8.61205 16.3874 14.2957 15.413 18.8432 17.5269C20.274 18.1933 21.6178 18.1961 23.0681 17.9609C24.6868 17.7005 26.2495 17.2441 27.7756 16.659C28.2974 16.4574 28.4797 16.533 28.4741 17.1237C28.4517 19.2796 28.4573 21.4383 28.4741 23.5971C28.4769 24.0142 28.3507 24.255 27.9299 24.3586C27.3519 24.4986 26.7909 24.7058 26.2102 24.8346C25.7641 24.9354 25.607 25.0614 25.7501 25.5822C27.1471 30.6696 24.8131 36.3673 20.2656 39.0384C19.02 39.772 17.6762 40.2508 16.2651 40.5587C15.7938 40.6623 15.3225 40.7939 14.8708 40.9647C13.7291 41.3959 13.2072 42.2919 13.1287 43.4622C13.0614 44.5066 13.4541 45.3549 14.3294 45.9569C15.4039 46.6961 16.6382 47.0349 17.8726 47.3709C19.6372 47.8496 21.4242 48.2584 23.1186 48.964C25.1834 49.8236 26.8778 51.0807 27.7166 53.2534C28.23 54.5805 28.2665 55.9665 28.1767 57.3552C28.0337 59.5867 27.5119 61.7062 26.1148 63.5234C24.3923 65.7661 21.9937 66.8272 19.3089 67.3732C18.5992 67.516 17.8782 67.6168 17.1628 67.7344H12.1328L12.13 67.7316ZM9.37792 28.8188C9.37231 32.0163 10.6319 33.5618 13.6421 33.8138C15.5806 33.9762 17.1516 33.2986 17.8361 31.5151C18.5487 29.6588 18.5627 27.7521 17.7351 25.9238C17.017 24.3418 15.7742 23.4039 13.9731 23.3563C12.116 23.3059 10.8283 24.2102 10.0035 25.8146C9.52099 26.7525 9.35546 27.7717 9.38071 28.8216L9.37792 28.8188ZM14.8288 61.0987C15.9734 61.1463 17.1376 61.0623 18.2429 60.6199C19.7718 60.0095 20.4928 58.9148 20.504 57.2404C20.5124 55.7313 19.8027 54.6393 18.2289 54.113C15.8022 53.301 13.3223 53.2758 10.8928 54.0962C9.30217 54.6337 8.56716 55.8237 8.5868 57.4952C8.60363 58.9624 9.38632 59.9815 10.9573 60.5611C12.1973 61.0203 13.4878 61.1295 14.8288 61.0959V61.0987Z" stroke="#A3A3A3" stroke-width="2" mask="url(#path-1-inside-1_392_869)"/>
<path d="M47.2224 31.9381C47.2224 28.9562 47.2028 26.7975 47.2365 24.6416C47.2449 24.146 47.0765 24.006 46.6221 23.9444C45.8618 23.8408 45.124 23.9836 44.3862 24.0732C43.9205 24.1292 43.7353 24.0256 43.7381 23.544C43.7494 21.5197 43.7522 19.4926 43.7381 17.4683C43.7353 16.9783 43.9373 16.8047 44.4114 16.8187C45.0735 16.8411 45.7356 16.8243 46.3977 16.8243C47.3206 16.8243 47.3346 16.8243 47.3206 15.934C47.2982 14.394 47.4216 12.8513 47.1888 11.3197C47.1046 10.7682 47.2954 10.5946 47.8564 10.603C50.2382 10.631 52.62 10.6226 55.0017 10.6086C55.5348 10.6058 55.7255 10.729 55.6638 11.331C55.4983 12.9717 55.4506 14.6236 55.4702 16.2755C55.4759 16.7907 55.7452 16.8327 56.1435 16.8327C58.1943 16.8243 60.245 16.8467 62.2957 16.8187C62.9045 16.8103 63.1654 16.9699 63.1514 17.6279C63.1177 19.543 63.1205 21.4581 63.1514 23.3732C63.1598 23.978 62.9606 24.2104 62.349 24.1572C60.3039 23.978 58.2504 24.0592 56.2024 24.0172C55.6666 24.006 55.4702 24.1656 55.473 24.7256C55.4927 28.973 55.4674 33.2232 55.4955 37.4706C55.5039 38.5206 55.56 39.5845 55.9387 40.5925C56.469 42.0008 57.5883 42.7204 59.0864 42.5692C60.3207 42.4432 61.5355 42.2192 62.6183 41.5669C63.056 41.3037 63.1457 41.4941 63.1457 41.9057C63.1401 44.042 63.1317 46.1755 63.1514 48.3118C63.1542 48.7766 62.9045 48.9726 62.5398 49.1378C60.8678 49.8937 59.0948 50.2101 57.2797 50.3165C56.0004 50.3921 54.7212 50.3361 53.47 50.0197C50.833 49.3533 49.1469 47.6566 48.2492 45.1423C47.6376 43.4288 47.4104 41.6397 47.3234 39.8309C47.186 36.9275 47.2393 34.0212 47.2309 31.9437L47.2224 31.9381Z" stroke="#A3A3A3" stroke-width="2" mask="url(#path-1-inside-1_392_869)"/>
<path d="M36.1355 49.8068C35.0106 49.8068 33.8857 49.7732 32.7607 49.818C32.1014 49.846 31.9275 49.5968 31.9611 48.9753C32.1856 44.9294 32.0874 40.878 32.0986 36.8294C32.1182 30.9748 32.0846 25.1175 32.0677 19.2629C32.0677 18.647 32.0088 18.0338 31.9668 17.4178C31.9387 17.009 32.0874 16.8102 32.5278 16.813C34.9545 16.8242 37.3811 16.827 39.8078 16.813C40.3184 16.8102 40.3745 17.0818 40.3633 17.485C40.3156 19.0893 40.2454 20.6965 40.2426 22.3008C40.2314 29.5665 40.2314 36.8294 40.2426 44.0951C40.2454 45.6798 40.3212 47.2617 40.3548 48.8465C40.3745 49.804 40.3661 49.8068 39.3729 49.8068C38.2929 49.8068 37.21 49.8068 36.1299 49.8068H36.1355Z" stroke="#A3A3A3" stroke-width="2" mask="url(#path-1-inside-1_392_869)"/>
<path d="M31.0101 5.59957C31.0045 4.03164 31.5291 2.6681 32.6345 1.54535C34.6796 -0.53216 37.7683 -0.523761 39.7433 1.62375C41.3227 3.34567 41.7323 5.38399 40.9524 7.57909C40.2314 9.6118 38.7782 10.8493 36.5956 11.1461C34.298 11.4597 31.8237 9.609 31.1729 7.10311C31.0438 6.60753 30.9933 6.10916 31.0101 5.59678V5.59957Z" stroke="#A3A3A3" stroke-width="2" mask="url(#path-1-inside-1_392_869)"/>
</svg>
