<svg width="34" height="34" viewBox="0 0 34 34" fill="none" xmlns="http://www.w3.org/2000/svg">
<path d="M16.9995 29.4392C23.8682 29.4392 29.4363 23.8697 29.4363 16.9994C29.4363 10.129 23.8682 4.55951 16.9995 4.55951C10.1309 4.55951 4.56277 10.129 4.56277 16.9994C4.56277 23.8697 10.1309 29.4392 16.9995 29.4392Z" fill="#F0F0F0"/>
<path d="M18.4613 0L20.651 0.36405C34.264 3.33861 38.7839 20.8811 27.979 29.9883C18.1462 38.2741 3.11137 33.028 0.384631 20.6354L0.0206708 18.4452C0.0694947 17.4907 -0.0444277 16.4725 0.0206708 15.5254C0.572529 7.53407 7.55286 0.551995 15.5422 0H18.4613ZM18.9924 21.9614C19.0561 22.1878 19.2528 22.3358 19.3564 22.5578C19.9438 23.8216 19.5044 25.4717 19.5887 26.7695C19.6641 27.9194 20.9572 27.178 21.5564 26.882C30.0488 22.7102 29.0516 9.6281 19.9334 6.98355C10.1923 4.15994 2.80511 15.5195 8.59 23.5745C9.56796 24.936 11.9988 27.0714 13.6677 27.3866C14.8868 27.616 14.19 25.8135 14.3483 25.1461C13.4236 25.2645 12.4604 25.3148 11.6733 24.7362C10.8122 24.1043 10.7974 23.0654 10.0695 22.3595C9.87718 22.173 8.73795 21.513 9.60495 21.4301C11.4144 21.257 11.333 23.6396 13.1868 23.6899C13.3792 23.6958 14.3172 23.5212 14.4015 23.4058C14.5391 23.2178 14.5554 22.25 15.0111 22.0591C15.0111 21.9511 14.292 21.8948 14.1485 21.8623C12.3346 21.4509 11.0637 20.5407 10.5518 18.6924C10.1494 17.2376 10.1805 15.774 10.9143 14.4421C10.9927 14.3001 11.3389 13.8857 11.3552 13.8191C11.3818 13.7066 11.1925 13.1029 11.1762 12.8957C11.1481 12.5597 11.2694 11.2456 11.4647 11.0118C11.7458 10.6759 13.0774 11.2663 13.4236 11.4424C13.6514 11.5579 14.2018 11.9781 14.3897 12.0077C14.6382 12.0462 15.4978 11.7858 15.8455 11.7443C16.6311 11.6511 17.4404 11.6526 18.2246 11.7517C18.59 11.7976 19.2647 12.027 19.5591 12.0137C19.8121 12.0018 20.3166 11.583 20.5859 11.4439C20.9706 11.2441 22.1408 10.7321 22.5137 10.9777C22.7119 11.1095 22.8599 12.5494 22.8421 12.838C22.8273 13.0599 22.6276 13.7052 22.6557 13.8206C22.672 13.8872 23.0182 14.3016 23.0966 14.4436C23.8304 15.777 23.86 17.2406 23.4606 18.6953C22.8776 20.8189 21.1052 21.8312 18.9984 21.9614H18.9924Z" fill="#8C3EEF"/>
</svg>
