<svg width="35" height="35" viewBox="0 0 35 35" fill="none" xmlns="http://www.w3.org/2000/svg">
<rect x="0.875488" y="0.5" width="33.2917" height="34" rx="16.6458" fill="#8C3EEF"/>
<g clip-path="url(#clip0_2525_408)">
<path d="M9.26625 11.9971C9.57435 12.3074 9.86877 12.6031 10.1627 12.9005C11.8948 14.653 13.6248 16.4082 15.3599 18.1574C16.6603 19.4683 18.4197 19.4487 19.717 18.1368C21.6888 16.1429 23.6691 14.1592 25.646 12.1718C25.687 12.1305 25.7306 12.092 25.7894 12.0372C25.9531 12.3324 26.0195 12.6416 26.02 12.9699C26.0215 13.8429 26.0205 14.7159 26.0205 15.5894C26.0205 17.7282 26.0225 19.8671 26.0195 22.0059C26.0184 22.9407 25.4899 23.6933 24.668 23.9287C24.4992 23.977 24.3193 23.9977 24.144 23.9977C19.7312 24.0015 15.3179 24.0015 10.9051 23.9998C9.81404 23.9993 9.02351 23.1567 9.0225 21.9929C9.02047 18.9935 9.0225 15.9953 9.02148 12.997C9.02148 12.6465 9.09446 12.3194 9.26625 11.9971Z" fill="#F0F0F0"/>
<path d="M24.8849 11.1041C24.7374 11.2734 24.6325 11.4074 24.5144 11.5268C22.6354 13.4187 20.7528 15.3074 18.8748 17.2015C18.3052 17.7761 17.6566 17.9904 16.9096 17.7007C16.6785 17.6112 16.4505 17.4609 16.2711 17.2807C14.2644 15.2667 12.2678 13.2413 10.2686 11.2186C10.2504 11.2001 10.2352 11.1795 10.186 11.1215C10.3852 11.0791 10.557 11.039 10.7303 11.007C10.7921 10.9956 10.8565 11.0016 10.9198 11.0016C15.321 11.0016 19.7221 10.9999 24.1237 11.0059C24.369 11.0059 24.6148 11.0678 24.8849 11.1041Z" fill="#F0F0F0"/>
</g>
<defs>
<clipPath id="clip0_2525_408">
<rect width="17" height="13" fill="white" transform="translate(9.02148 11)"/>
</clipPath>
</defs>
</svg>
