<svg width="35" height="35" viewBox="0 0 35 35" fill="none" xmlns="http://www.w3.org/2000/svg">
<rect x="0.854004" y="0.494629" width="34.0107" height="34.0107" rx="17.0054" fill="#8C3EEF"/>
<path d="M7.74414 17.4229C7.74414 15.5827 7.74414 13.7424 7.74414 11.9022C7.74414 11.3884 7.86593 11.2693 8.38689 11.2693C10.0627 11.2693 11.7384 11.2666 13.4142 11.2693C16.0314 11.2737 17.6743 13.9442 16.4866 16.2708C16.3914 16.4566 16.4234 16.5437 16.5728 16.6788C17.7996 17.7865 18.2654 19.1582 17.7987 20.7504C17.3382 22.3186 16.2261 23.2236 14.6241 23.5303C14.4125 23.5712 14.2001 23.5757 13.9867 23.5757C12.1136 23.5757 10.2405 23.5757 8.36733 23.5757C7.87393 23.5757 7.74414 23.4441 7.74414 22.9436C7.74414 21.1034 7.74414 19.2631 7.74414 17.4229ZM12.2247 21.2785C12.8239 21.2785 13.4222 21.2812 14.0214 21.2785C14.9459 21.2732 15.6536 20.5957 15.6705 19.7041C15.6873 18.824 14.9521 18.1074 14.0187 18.1048C12.8043 18.1012 11.5908 18.1083 10.3765 18.0994C10.1578 18.0977 10.0715 18.1546 10.0751 18.3875C10.0867 19.2569 10.0867 20.1264 10.0751 20.9958C10.0724 21.2314 10.1622 21.2874 10.3791 21.2829C10.9943 21.2714 11.6095 21.2794 12.2247 21.2785ZM11.9491 13.5993C11.4157 13.5993 10.8823 13.6055 10.3489 13.5967C10.1462 13.5931 10.0733 13.6687 10.0769 13.8705C10.0858 14.4119 10.0875 14.9542 10.0769 15.4956C10.0724 15.7054 10.1551 15.7605 10.3525 15.7587C11.3704 15.7507 12.3883 15.7587 13.4062 15.7534C14.0516 15.7498 14.5317 15.2724 14.5263 14.6572C14.521 14.0652 14.0534 13.61 13.4275 13.6011C12.935 13.594 12.4425 13.5993 11.95 13.5993H11.9491Z" fill="#F0F0F0"/>
<path d="M24.2965 19.4745C23.2866 19.4745 22.2767 19.4745 21.2668 19.4745C20.9832 19.4745 20.9752 19.4878 21.0633 19.7456C21.5406 21.1378 23.0902 21.8063 24.3312 21.1547C24.4041 21.1165 24.4859 21.0836 24.5392 21.0249C24.7979 20.7404 25.1242 20.7146 25.4816 20.7271C26.039 20.7466 26.5982 20.7306 27.1565 20.7333C27.4925 20.7351 27.5672 20.8666 27.408 21.1636C26.6275 22.618 25.4256 23.4963 23.7863 23.6954C22.3301 23.8723 21.0561 23.4047 20.016 22.3735C18.2834 20.6559 18.0647 17.8921 19.5377 15.9567C20.7139 14.4107 22.2999 13.7315 24.2183 14.1511C26.1537 14.5743 27.3218 15.8598 27.8321 17.756C27.9281 18.1143 27.9494 18.4841 27.9726 18.8531C27.9992 19.2673 27.8152 19.4682 27.4 19.4718C26.7102 19.478 26.0203 19.4736 25.3313 19.4736C24.9864 19.4736 24.6415 19.4736 24.2965 19.4736V19.4745ZM21.3157 17.4787C21.4224 17.4787 21.4953 17.4787 21.5673 17.4787C22.723 17.4787 23.8796 17.4787 25.0353 17.4778C25.2451 17.4778 25.1393 17.3729 25.0869 17.2964C24.1988 16.0047 22.1336 16.0838 21.3157 17.4796V17.4787Z" fill="#F0F0F0"/>
<path d="M23.1183 11.7294C23.7494 11.7294 24.3815 11.7267 25.0127 11.7302C25.4457 11.7329 25.5639 11.8574 25.5657 12.2921C25.5666 12.5623 25.5701 12.8335 25.5639 13.1037C25.5586 13.3713 25.451 13.4914 25.1879 13.5322C25.107 13.5447 25.0243 13.5482 24.9425 13.5491C23.7201 13.55 22.4986 13.55 21.2763 13.5491C21.1865 13.5491 21.0967 13.5385 21.0069 13.526C20.7873 13.4949 20.6691 13.3607 20.6646 13.1438C20.6566 12.8077 20.6531 12.4708 20.6646 12.1347C20.6744 11.8609 20.8246 11.7365 21.1482 11.732C21.6727 11.724 22.1981 11.7294 22.7227 11.7285C22.8542 11.7285 22.9849 11.7285 23.1165 11.7285L23.1183 11.7294Z" fill="#F0F0F0"/>
</svg>
