<svg width="48" height="48" viewBox="0 0 48 48" fill="none" xmlns="http://www.w3.org/2000/svg">
<path d="M14.6865 15.1513C14.6865 18.0259 14.6877 20.9006 14.6865 23.7752C14.6841 27.0765 12.2912 29.4669 8.98622 29.4706C7.8241 29.4718 6.6632 29.478 5.50108 29.4694C2.46338 29.4461 0.0153233 27.014 0.00919401 23.9824C-0.00306467 18.0958 -0.00306467 12.2092 0.00919401 6.32256C0.0140975 3.29099 2.46216 0.85764 5.49863 0.835575C6.72204 0.826994 7.94424 0.82822 9.16765 0.835575C12.2348 0.853963 14.6706 3.27995 14.6841 6.34462C14.6951 9.28058 14.6865 12.2153 14.6865 15.1513ZM11.0163 15.1525C11.0163 12.2484 11.0199 9.3431 11.015 6.43902C11.0126 5.28302 10.2403 4.51318 9.08797 4.50705C7.92585 4.50092 6.76495 4.50092 5.60283 4.50705C4.45051 4.51318 3.67699 5.28302 3.67699 6.43779C3.67331 12.2472 3.67331 18.0553 3.67699 23.8647C3.67822 25.0195 4.45051 25.7906 5.60283 25.7967C6.71837 25.8028 7.83391 25.7991 8.94945 25.7979C10.2832 25.7967 11.015 25.0636 11.015 23.7274C11.0163 20.8699 11.0163 18.0112 11.0163 15.1525Z" fill="#E4E4E4"/>
<path d="M47.3275 24.6988C47.0848 25.6304 46.8016 26.5413 46.1862 27.3111C45.0903 28.6829 43.6707 29.4539 41.9165 29.4613C35.9858 29.4846 30.0538 29.4833 24.123 29.465C21.1675 29.4552 18.7121 27.0022 18.7035 24.0515C18.6851 18.1196 18.6851 12.1864 18.7035 6.25438C18.7121 3.30249 21.1675 0.850754 24.1243 0.842173C30.0403 0.823785 35.9563 0.827462 41.8711 0.840947C44.4921 0.847076 46.7035 2.71407 47.2319 5.31414C47.2527 5.41466 47.2944 5.51028 47.3263 5.60957C47.3275 11.9718 47.3275 18.3353 47.3275 24.6988ZM22.3676 15.1738C22.3676 18.0325 22.3664 20.8925 22.3676 23.7512C22.3688 25.058 23.1068 25.7984 24.4111 25.7984C30.1433 25.7996 35.8767 25.7996 41.6088 25.7984C42.9131 25.7984 43.6548 25.0567 43.656 23.7536C43.6572 18.0203 43.6572 12.2856 43.656 6.55226C43.656 5.24549 42.9168 4.50629 41.6125 4.50629C35.8803 4.50506 30.1469 4.50506 24.4148 4.50629C23.108 4.50629 22.3688 5.24426 22.3688 6.54981C22.3664 9.42447 22.3676 12.2991 22.3676 15.1738Z" fill="#E4E4E4"/>
<path d="M4.78153 47.1696C3.88419 46.9268 2.99912 46.6657 2.24398 46.0822C0.813396 44.9728 0.0509064 43.5226 0.0153562 41.7132C-0.010387 40.4604 0.00187167 39.2063 0.0116786 37.9535C0.036196 34.9489 2.46954 32.4971 5.4766 32.4898C11.3755 32.4751 17.2743 32.4751 23.1744 32.4898C26.1827 32.4971 28.6198 34.944 28.6357 37.9535C28.643 39.4503 28.7215 40.9605 28.5499 42.4402C28.2704 44.8478 26.4904 46.6106 24.1184 47.0813C24.0326 47.0985 23.9516 47.1401 23.8695 47.1708C17.506 47.1696 11.1438 47.1696 4.78153 47.1696ZM14.3261 43.4981C17.2302 43.4981 20.1343 43.5018 23.0372 43.4969C24.1907 43.4944 24.9618 42.7221 24.9679 41.5686C24.9752 40.4064 24.9752 39.2443 24.9679 38.0834C24.9605 36.9299 24.1907 36.1588 23.0359 36.1576C17.2278 36.1539 11.4208 36.1539 5.61267 36.1576C4.4579 36.1588 3.68928 36.9311 3.68193 38.0847C3.6758 39.2002 3.67947 40.317 3.6807 41.4325C3.68193 42.7675 4.41254 43.4981 5.75119 43.4981C8.60991 43.4981 11.4674 43.4981 14.3261 43.4981Z" fill="#E4E4E4"/>
<path d="M37.4415 47.1697C36.5441 46.927 35.6578 46.6659 34.9039 46.0811C33.4733 44.9717 32.7121 43.5215 32.6753 41.7121C32.6495 40.4593 32.6618 39.2052 32.6716 37.9512C32.6961 34.9466 35.1307 32.512 38.1377 32.485C39.3452 32.474 40.5527 32.4801 41.7602 32.4838C44.5343 32.4924 46.7299 34.3165 47.2692 37.0514C47.2827 37.1225 47.3244 37.1875 47.3526 37.2549C47.3526 38.9686 47.3526 40.6812 47.3526 42.395C47.3207 42.493 47.2803 42.5886 47.257 42.6879C46.7961 44.7351 45.5898 46.1351 43.6223 46.8669C43.2852 46.992 42.9284 47.068 42.5803 47.166C40.8665 47.1697 39.154 47.1697 37.4415 47.1697ZM36.3406 39.7814C36.3406 40.4078 36.3308 41.0342 36.3431 41.6607C36.3627 42.7002 37.1387 43.4823 38.1794 43.4933C39.4016 43.5068 40.6226 43.508 41.8448 43.4933C42.8855 43.4811 43.6652 42.699 43.6774 41.657C43.6922 40.4348 43.6922 39.2126 43.6774 37.9904C43.6652 36.9484 42.8831 36.1688 41.8423 36.1577C40.6201 36.1442 39.3992 36.1442 38.177 36.1577C37.1374 36.17 36.3639 36.9521 36.3443 37.9941C36.3308 38.5899 36.3406 39.1856 36.3406 39.7814Z" fill="#E4E4E4"/>
</svg>
