<svg width="45" height="50" viewBox="0 0 45 50" fill="none" xmlns="http://www.w3.org/2000/svg">
<path d="M10.1858 30.005C9.61304 31.539 9.12875 32.955 8.69608 34.3882C11.0561 32.6748 13.861 31.5882 17.0987 31.1825C23.2765 30.4106 28.7659 26.3323 31.5438 21.2066L27.9645 17.6298L31.4381 14.1512L33.8965 11.6904C34.9535 10.6333 36.1458 8.68142 37.407 5.86909C23.6575 8.00046 15.2377 16.4203 10.1834 30.005H10.1858ZM34.9167 17.6273L37.375 20.0832C34.9167 27.4582 27.5417 34.8332 17.7083 36.0623C11.147 36.8834 7.049 41.3895 5.41175 49.5832H0.5C2.95833 34.8332 7.875 0.416504 44.75 0.416504C42.2917 7.78413 39.8382 12.6983 37.3824 15.1591L34.9167 17.6273Z" fill="#E4E4E4"/>
</svg>
