<svg width="79" height="75" viewBox="0 0 79 75" fill="none" xmlns="http://www.w3.org/2000/svg">
<path d="M78.5 13.2566C78.417 13.1975 78.424 13.1133 78.4355 13.0292V12.811C78.4355 12.7633 78.4378 12.7133 78.4378 12.6656V12.3723C78.1935 9.44234 77.0552 6.87831 75.1057 4.67344C73.0087 2.30262 70.3703 0.84331 67.2409 0.243219C66.8653 0.17048 66.4851 0.127292 66.1072 0.0681921C66.0335 0.0681921 65.9597 0.0659191 65.886 0.063646C65.8122 0.063646 65.7385 0.0613729 65.6648 0.0613729C65.6164 0.0613729 65.5657 0.063646 65.5173 0.0659191C65.3859 0.0704652 65.2523 0.100015 65.1417 0H13.9321C13.8215 0.100015 13.6878 0.0704652 13.5565 0.0659191C13.5081 0.063646 13.4574 0.0613729 13.409 0.0613729C13.3352 0.0613729 13.2615 0.063646 13.1878 0.063646C13.114 0.0659191 13.0403 0.0681922 12.9665 0.0704652C12.9389 0.0727383 12.9135 0.0772844 12.8859 0.0818306C12.0586 0.204576 11.2337 0.343234 10.4295 0.57736C5.46357 2.02076 1.70057 6.15093 0.78574 11.179C0.730435 11.479 0.686652 11.7813 0.638261 12.0836C0.645174 12.1314 0.647479 12.1814 0.647479 12.2314C0.645174 12.3791 0.610609 12.5246 0.573739 12.6701C0.596783 12.8019 0.587565 12.927 0.5 13.0361V61.7434C0.741957 62.0117 0.631348 62.3344 0.638261 62.6368C0.638261 62.78 0.640565 62.9209 0.64287 63.0618C0.813392 64.1597 1.03691 65.2485 1.47013 66.2782C3.415 70.9198 6.87384 73.7703 11.8674 74.7886C12.1554 74.8477 12.4504 74.8863 12.743 74.9341C12.8168 74.9363 12.8905 74.9386 12.9619 74.9409C13.0126 74.9386 13.0633 74.9386 13.1117 74.9386C13.1601 74.9363 13.2108 74.9341 13.2592 74.9341C13.3583 74.9318 13.4574 74.9318 13.5565 74.9318C13.7085 74.9409 13.8722 74.8773 14.0058 75H65.2892C65.4251 74.8795 65.5864 74.9386 65.7385 74.9318C65.7892 74.9341 65.8399 74.9363 65.8906 74.9386H66.1118C66.2086 74.9363 66.3054 74.9341 66.4045 74.9318C67.5912 74.7545 68.7641 74.5067 69.8702 74.0362C74.4582 72.0814 77.2787 68.6968 78.288 63.8574C78.3687 63.4755 78.4193 63.0891 78.4378 62.6981C78.4378 62.6004 78.4378 62.5026 78.4401 62.4049C78.4378 62.3572 78.4355 62.3094 78.4355 62.2594C78.4355 62.189 78.4355 62.1162 78.4378 62.0435C78.424 61.9367 78.4055 61.8275 78.5 61.7434V13.2566ZM42.6074 31.7412C42.5106 32.9163 42.3079 34.0643 41.8769 35.1667C40.8745 37.7375 39.0495 39.5674 36.5792 40.7948C35.2888 41.4381 33.9039 41.7995 32.4844 42.0359C30.3137 42.3996 28.1269 42.3928 25.9377 42.3019C25.7396 42.2928 25.5414 42.295 25.3432 42.2905C25.2073 42.2859 25.1358 42.3428 25.1427 42.4837C25.1473 42.5815 25.145 42.6792 25.145 42.7769V52.3352C25.145 52.4329 25.1497 52.5307 25.1404 52.6284C25.1197 52.8716 24.9907 53.0012 24.7441 53.0262C24.6588 53.0353 24.5713 53.0285 24.4837 53.0285H18.7343C18.1582 53.0285 18.0937 52.9671 18.0937 52.4011V19.9598C18.0937 19.2938 18.1145 19.2847 18.7735 19.2711C21.1954 19.2211 23.6196 19.1597 26.0437 19.112C27.3296 19.087 28.6154 19.0688 29.9012 19.1211C31.9774 19.2075 34.0053 19.5507 35.9294 20.3622C38.637 21.5078 40.6625 23.3467 41.7848 26.0699C42.5337 27.8883 42.771 29.7863 42.6074 31.7412ZM60.4684 52.517C59.0766 53.1649 57.5995 53.4854 56.0741 53.6195C54.7398 53.7377 53.4033 53.7331 52.0737 53.6058C50.2348 53.4308 48.4282 53.1149 46.7207 52.3693C46.3059 52.1897 46.11 51.9397 46.1262 51.476C46.1561 50.6213 46.1354 49.7666 46.1354 48.912V46.3866C46.1354 46.3252 46.1331 46.2638 46.1354 46.2024C46.1446 45.7478 46.2759 45.6637 46.67 45.8865C47.5318 46.3707 48.4328 46.773 49.3776 47.0639C50.9676 47.5549 52.5899 47.8573 54.2582 47.8709C54.9634 47.8777 55.6685 47.8436 56.3575 47.6822C56.5879 47.6277 56.8068 47.5458 57.0257 47.464C57.8576 47.1481 58.4429 45.9729 57.5074 45.0636C57.2308 44.7954 56.9221 44.5749 56.5833 44.3954C55.6431 43.8998 54.6523 43.5202 53.6568 43.152C52.1567 42.5974 50.7303 41.895 49.426 40.9789C47.889 39.897 46.7622 38.5036 46.3635 36.6374C45.739 33.7006 46.829 30.6592 49.4974 28.8521C50.7602 27.9951 52.1636 27.4814 53.6752 27.2428C55.4219 26.9677 57.1709 26.9927 58.9245 27.1496C60.0214 27.2473 61.1137 27.3701 62.1737 27.6815C62.5285 27.786 62.8765 27.911 63.2245 28.0383C63.5033 28.1406 63.6392 28.3316 63.6577 28.6157C63.6646 28.7248 63.6669 28.8339 63.6669 28.9453V33.7028C63.6669 34.3302 63.3765 34.5007 62.7889 34.2097C61.9801 33.8074 61.1367 33.5028 60.2565 33.2914C58.8324 32.9459 57.3875 32.7709 55.9243 32.7663C55.3044 32.7641 54.6914 32.8573 54.0969 33.0345C53.6913 33.155 53.3572 33.3755 53.1521 33.7506C52.8364 34.3234 52.9079 34.9189 53.3457 35.4145C53.6499 35.7577 54.0209 36.0236 54.4334 36.2282C55.3482 36.6851 56.2745 37.1147 57.2424 37.4557C58.807 38.008 60.2956 38.724 61.6944 39.6105C63.2752 40.6084 64.4227 41.9541 64.8168 43.7998C65.6002 47.4526 64.0241 50.8645 60.4684 52.517Z" fill="#A3A3A3"/>
<path d="M35.4707 31.9595C35.2979 33.1165 34.7218 34.0303 33.7977 34.7531C33.0742 35.3191 32.2492 35.651 31.369 35.8828C30.3735 36.1465 29.3573 36.2829 28.3295 36.3011C27.3893 36.317 26.4492 36.3284 25.5113 36.2579C25.191 36.2329 25.1864 36.2374 25.1864 35.9192C25.1841 34.2371 25.1841 32.5528 25.1841 30.8684V25.9268C25.1841 25.829 25.1887 25.7313 25.1864 25.6336C25.1841 25.5108 25.2555 25.4563 25.3661 25.4449C25.5021 25.4335 25.638 25.4222 25.774 25.4222C26.91 25.4153 28.0484 25.4062 29.1867 25.4062C30.3873 25.4085 31.551 25.6176 32.6525 26.0859C34.3738 26.8178 35.2979 28.1408 35.5352 29.9547C35.6228 30.6275 35.5698 31.2935 35.4707 31.9595Z" fill="#A3A3A3"/>
</svg>
