<svg width="79" height="80" viewBox="0 0 79 80" fill="none" xmlns="http://www.w3.org/2000/svg">
<path d="M39.109 60.8997C35.7256 60.8698 32.5175 60.112 29.5059 58.5545C29.2108 58.402 28.9508 58.3754 28.6319 58.4603C25.2478 59.3607 21.8605 60.2492 18.4731 61.1384C17.961 61.273 17.9319 61.2438 18.0728 60.7266C18.9726 57.4259 19.871 54.1259 20.7814 50.8279C20.8733 50.4957 20.8561 50.2232 20.6868 49.9116C19.1724 47.1214 18.3182 44.145 18.1654 40.963C17.8935 35.3085 19.6011 30.3296 23.2842 26.0602C26.6881 22.1144 31.0044 19.7625 36.1596 19.012C47.2559 17.3961 57.7515 24.8899 59.741 35.9536C60.9954 42.9296 59.1422 49.0874 54.3331 54.2943C51.1587 57.731 47.2017 59.7844 42.6089 60.6013C41.455 60.8069 40.2866 60.9176 39.109 60.899V60.8997ZM39.0713 57.2317C40.0868 57.2429 41.0905 57.1435 42.0882 56.9691C51.2169 55.3798 57.5147 46.8118 56.3145 37.6331C55.8137 33.8007 54.2603 30.4689 51.5444 27.7351C47.117 23.278 41.7534 21.6516 35.6111 22.8225C31.7222 23.5638 28.4831 25.5483 25.9227 28.5818C22.7298 32.3639 21.3947 36.7559 21.8624 41.6738C22.1251 44.4374 23.0546 46.9955 24.5757 49.3234C24.7788 49.6344 24.8218 49.9122 24.7212 50.2676C24.2184 52.0479 23.7354 53.8335 23.2505 55.6185C23.1228 56.0879 23.1532 56.1184 23.6163 55.9984C25.4602 55.5197 27.3054 55.0469 29.1427 54.5456C29.5052 54.4469 29.7791 54.5032 30.0894 54.6915C32.8483 56.3671 35.846 57.2085 39.0713 57.2303V57.2317Z" fill="#8C3EEF"/>
<path d="M44.5859 49.9593C43.0384 50.0342 41.6642 49.4004 40.2716 48.8706C37.1171 47.6711 34.6076 45.5799 32.4409 43.0477C31.1607 41.5518 29.9473 40.0003 29.1342 38.1815C28.4025 36.5444 28.1643 34.8676 28.7452 33.1271C29.0945 32.0794 29.7336 31.2294 30.552 30.5126C31.0641 30.0644 31.7032 30.081 32.3417 30.0618C33.2084 30.0366 33.7218 30.4032 34.0261 31.2241C34.4806 32.4488 35.0046 33.6476 35.5193 34.849C35.7304 35.3417 35.7138 35.7879 35.391 36.2169C34.9933 36.7447 34.6037 37.2784 34.1902 37.793C33.9255 38.1218 33.8898 38.4315 34.1068 38.8001C35.8005 41.6725 38.1743 43.7459 41.2766 44.9745C41.6623 45.127 41.9805 45.0686 42.2604 44.7411C42.7943 44.1158 43.3242 43.4879 43.8131 42.8255C44.2041 42.2958 44.4436 42.2096 45.0583 42.4622C46.5383 43.0702 47.9567 43.8102 49.3805 44.5362C49.8072 44.7537 49.841 45.1548 49.794 45.5639C49.485 48.2546 47.5776 49.9467 44.8505 49.9587C44.7625 49.9587 44.6745 49.9587 44.5865 49.9587L44.5859 49.9593Z" fill="#8C3EEF"/>
</svg>
