<svg width="324" height="98" viewBox="0 0 324 98" fill="none" xmlns="http://www.w3.org/2000/svg">
<path d="M100.833 2.67554H80.199C79.2283 2.67554 78.4414 3.44501 78.4414 4.3942V93.6018C78.4414 94.551 79.2283 95.3205 80.199 95.3205H100.833C101.804 95.3205 102.591 94.551 102.591 93.6018V4.3942C102.591 3.44501 101.804 2.67554 100.833 2.67554Z" fill="#EFEFEF"/>
<path d="M217.849 61.7733C213.289 82.6767 194.045 97.5022 169.575 97.5022C140.597 97.5022 118.674 76.6113 118.674 49.0001C118.674 21.3889 140.597 0.498047 169.575 0.498047C193.994 0.498047 213.208 15.2652 217.819 36.1018C218.067 37.224 217.188 38.2835 216.015 38.2835H193.883C193.14 38.2835 192.466 37.8497 192.185 37.1781C188.7 28.881 180.057 23.3746 169.541 23.3871C155.19 23.408 143.57 34.9672 143.57 49.0043C143.57 63.0414 154.717 74.6173 169.58 74.6173C180.099 74.6173 188.742 69.0901 192.211 60.7721C192.475 60.1339 193.111 59.7251 193.815 59.7251H216.151C217.26 59.7251 218.084 60.7221 217.853 61.7774L217.849 61.7733Z" fill="#EFEFEF"/>
<path d="M268.148 61.3269L258.038 71.7139C257.71 72.0477 257.53 72.494 257.53 72.957V93.5184C257.53 94.5112 256.707 95.3205 255.688 95.3205H235.224C234.208 95.3205 233.381 94.5112 233.381 93.5184V4.47763C233.381 3.48481 234.208 2.67554 235.224 2.67554H255.688C256.707 2.67554 257.53 3.48481 257.53 4.47763V41.2703L255.662 43.2559C255.035 43.9234 254.997 44.9329 255.564 45.6504L268.038 61.1809L268.153 61.3311L268.148 61.3269Z" fill="url(#paint0_linear_2811_898)"/>
<path d="M322.1 95.3247H295.899C295.31 95.3247 294.756 95.0577 294.397 94.603L282.512 79.5188L280.768 77.3205L268.149 61.3311L268.034 61.1809L255.56 45.6504C254.993 44.9371 255.035 43.9234 255.658 43.256L257.527 41.2703L272.765 25.0724L293.484 3.26374C293.843 2.8883 294.346 2.67139 294.871 2.67139H320.121C321.781 2.67139 322.638 4.61114 321.499 5.79584L285.878 42.7595C285.234 43.427 285.187 44.4532 285.767 45.1748L323.594 92.3295C324.57 93.5476 323.683 95.3247 322.1 95.3247Z" fill="#EFEFEF"/>
<path d="M61.0322 4.48178V24.5008C61.0322 25.4936 60.2089 26.3029 59.1893 26.3029H27.6937C25.7527 26.3029 24.1742 27.8422 24.1742 29.7444V93.5226C24.1742 94.5154 23.3466 95.3246 22.3313 95.3246H1.84192C0.822355 95.3246 -0.000976562 94.5154 -0.000976562 93.5226V28.105C-0.000976562 27.1122 0.822355 26.3071 1.84192 26.3071H22.0242C23.3594 26.3071 24.5539 25.5854 25.1725 24.4549L36.456 3.63913C36.7759 3.05095 37.3987 2.67969 38.0856 2.67969H59.1936C60.2131 2.67969 61.0365 3.48479 61.0365 4.48178H61.0322Z" fill="#EFEFEF"/>
<defs>
<linearGradient id="paint0_linear_2811_898" x1="233.381" y1="49.0001" x2="279.675" y2="49.0001" gradientUnits="userSpaceOnUse">
<stop stop-color="#F2F2F2"/>
<stop offset="0.24" stop-color="#EFEFEF"/>
<stop offset="0.38" stop-color="#E7E7E7"/>
<stop offset="0.49" stop-color="#D9D9D9"/>
<stop offset="0.59" stop-color="#C5C5C5"/>
<stop offset="0.66" stop-color="#B3B3B3"/>
</linearGradient>
</defs>
</svg>
