<svg width="78" height="75" viewBox="0 0 78 75" fill="none" xmlns="http://www.w3.org/2000/svg">
<mask id="path-1-inside-1_392_1016" fill="white">
<path d="M29.581 38.4341C26.9664 38.4341 24.4444 38.4313 21.9224 38.4369C21.5464 38.4369 21.5352 38.2913 21.6278 37.9833C22.907 33.7639 24.1779 29.5389 25.5104 25.1179C26.8963 29.6509 28.2288 34.0047 29.581 38.4313V38.4341Z"/>
<path d="M59.4807 36.0793C59.1778 34.3742 58.2127 33.1898 56.5435 32.6774C53.5951 31.7731 50.7364 33.6826 50.3464 36.7401C50.2819 37.2356 50.5597 37.1348 50.8093 37.1348C52.097 37.1404 53.3847 37.1348 54.6751 37.1348V37.1236C55.9909 37.1236 57.3038 37.1376 58.6167 37.118C59.4555 37.104 59.6294 36.9025 59.4807 36.0765V36.0793ZM59.4807 36.0793C59.1778 34.3742 58.2127 33.1898 56.5435 32.6774C53.5951 31.7731 50.7364 33.6826 50.3464 36.7401C50.2819 37.2356 50.5597 37.1348 50.8093 37.1348C52.097 37.1404 53.3847 37.1348 54.6751 37.1348V37.1236C55.9909 37.1236 57.3038 37.1376 58.6167 37.118C59.4555 37.104 59.6294 36.9025 59.4807 36.0765V36.0793ZM77.1238 13.1315C77.1238 12.1459 77.1013 11.1491 76.8376 10.1888C76.2176 7.92648 75.0983 5.92737 73.4571 4.24744C70.5311 1.25157 66.8897 0.00842085 62.7715 0.00562097C47.4653 2.12062e-05 32.162 0.00282109 16.8559 2.12063e-05C15.5177 2.12063e-05 14.1795 -0.00557856 12.847 0.165214C8.14237 0.767188 4.62443 3.12189 2.26792 7.23211C1.41228 8.72445 1.0055 10.3288 0.854005 12.0199V62.6753C0.890475 62.7397 0.926947 62.8013 0.926947 62.8797C0.926947 62.9161 0.92695 62.9525 0.929755 62.9861C1.01392 65.9596 2.39135 68.3815 4.36072 70.4814C7.22221 73.5361 10.8692 74.8296 14.9931 74.8324C30.9669 74.8492 46.9407 74.8464 62.9145 74.8296C64.8306 74.8296 66.7158 74.5412 68.5281 73.8553C73.0784 72.1333 77.1602 67.4071 77.1462 61.7122C77.0985 45.5205 77.1322 29.3288 77.1209 13.1371L77.1238 13.1315ZM35.0095 52.6294C34.3698 52.6658 34.0977 52.4082 33.9041 51.8202C33.186 49.6391 32.4061 47.4776 31.6851 45.2937C31.5364 44.8485 31.3512 44.6833 30.8603 44.6889C27.3396 44.7113 23.8188 44.7169 20.2981 44.6861C19.7566 44.6833 19.5883 44.8877 19.448 45.3469C18.7719 47.5168 18.051 49.6727 17.3777 51.8454C17.2037 52.4054 16.9148 52.6406 16.3144 52.6266C14.6032 52.5958 12.8919 52.6182 11.1834 52.6154C10.1679 52.6154 10.137 52.5706 10.4764 51.6046C12.9003 44.6553 15.3297 37.7032 17.7592 30.7539C18.6541 28.1864 21.0864 19.6384 21.1761 19.5404C21.2828 19.4256 21.4567 19.3892 21.712 19.3892C24.2172 19.406 26.7196 19.4116 29.2248 19.3836C29.7606 19.378 29.9401 19.616 30.1029 20.0668C31.8254 24.933 33.5675 29.7935 35.304 34.6569C37.3239 40.3099 39.3438 45.9657 41.3608 51.6186C41.7059 52.5902 41.6863 52.6154 40.6707 52.6182H37.8429C36.9031 52.6182 35.9577 52.579 35.0151 52.6294H35.0095ZM49.8639 52.0498C46.2422 50.5043 44.2504 47.5168 43.4873 43.7286C42.6289 39.4531 43.1955 35.3961 45.726 31.7507C47.8328 28.71 50.8318 27.2373 54.4844 27.0245C57.2533 26.8649 59.8847 27.3213 62.1655 29.0096C64.4687 30.7147 65.5516 33.1478 66.0425 35.8833C66.3567 37.6276 66.2221 39.3831 66.0481 41.1359C65.9976 41.623 65.7059 41.693 65.2879 41.7462C62.6873 42.0766 60.0811 41.6902 57.8592 41.8134C55.2979 41.8134 53.1182 41.833 50.9356 41.8022C50.3661 41.7938 50.2931 41.9674 50.3997 42.4798C50.9608 45.1873 53.0087 46.898 56.1339 47.2284C58.5914 47.4888 60.9788 47.1024 63.3101 46.3688C63.8459 46.2009 64.0479 46.2008 64.0311 46.842C63.9946 48.2532 64.0114 49.6643 64.0226 51.0754C64.0254 51.5346 63.9385 51.8958 63.4391 52.061C58.9113 53.5617 54.3413 53.9621 49.8639 52.0498ZM50.8121 37.1376C52.0998 37.1432 53.3875 37.1376 54.6779 37.1376V37.1264C55.9937 37.1264 57.3066 37.1404 58.6195 37.1208C59.4583 37.1068 59.6322 36.9052 59.4836 36.0793C59.1806 34.3742 58.2155 33.1898 56.5463 32.6774C53.5979 31.7731 50.7392 33.6826 50.3493 36.7401C50.2847 37.2356 50.5625 37.1348 50.8121 37.1348V37.1376ZM59.4836 36.0793C59.1806 34.3742 58.2155 33.1898 56.5463 32.6774C53.5979 31.7731 50.7392 33.6826 50.3493 36.7401C50.2847 37.2356 50.5625 37.1348 50.8121 37.1348C52.0998 37.1404 53.3875 37.1348 54.6779 37.1348V37.1236C55.9937 37.1236 57.3066 37.1376 58.6195 37.118C59.4583 37.104 59.6322 36.9025 59.4836 36.0765V36.0793ZM59.4836 36.0793C59.1806 34.3742 58.2155 33.1898 56.5463 32.6774C53.5979 31.7731 50.7392 33.6826 50.3493 36.7401C50.2847 37.2356 50.5625 37.1348 50.8121 37.1348C52.0998 37.1404 53.3875 37.1348 54.6779 37.1348V37.1236C55.9937 37.1236 57.3066 37.1376 58.6195 37.118C59.4583 37.104 59.6322 36.9025 59.4836 36.0765V36.0793Z"/>
<path d="M77.1489 61.7095C77.1657 67.4045 73.0811 72.1307 68.5307 73.8526C66.7185 74.5386 64.8333 74.8241 62.9172 74.8269C46.9434 74.8437 30.9696 74.8465 14.9958 74.8297C10.8719 74.8269 7.22488 73.5306 4.3634 70.4787C2.39403 68.3788 1.01659 65.9569 0.932424 62.9834C1.0755 63.563 1.21016 64.1482 1.37287 64.7194C3.05048 70.5403 8.22641 74.4798 14.4319 74.4938C30.7788 74.5302 47.1229 74.5386 63.4699 74.4938C71.2155 74.4714 77.0479 68.5188 77.0507 60.7715C77.0591 45.1986 77.0591 29.6257 77.0507 14.0527C77.0507 7.10903 72.3797 1.61286 65.529 0.49011C64.7267 0.358516 63.8991 0.338917 63.0799 0.336117C47.0079 0.327717 30.9331 0.330517 14.8611 0.330517C7.72705 0.330517 2.40525 4.68713 1.01659 11.6476C0.991342 11.782 1.04745 11.9556 0.851074 12.02C1.00256 10.3317 1.40934 8.72456 2.26498 7.23222C4.62149 3.122 8.13944 0.767299 12.8441 0.165324C14.1794 -0.00546858 15.5177 2.12063e-05 16.8559 2.12063e-05C32.162 0.00282109 47.4653 2.12062e-05 62.7715 0.00562097C66.8897 0.00562097 70.531 1.25168 73.4542 4.24755C75.0981 5.93028 76.2147 7.92659 76.8347 10.1889C77.0984 11.1465 77.118 12.146 77.1208 13.1316C77.132 29.3233 77.0984 45.515 77.1461 61.7067L77.1489 61.7095Z"/>
<path d="M29.581 38.4341C26.9664 38.4341 24.4444 38.4313 21.9224 38.4369C21.5464 38.4369 21.5352 38.2913 21.6278 37.9833C22.907 33.7639 24.1779 29.5389 25.5104 25.1179C26.8963 29.6509 28.2288 34.0047 29.581 38.4313V38.4341Z"/>
<path d="M58.6167 37.1235C57.3038 37.1431 55.9909 37.1291 54.6752 37.1291V37.1403C53.3875 37.1403 52.0998 37.1431 50.8093 37.1403C50.5597 37.1403 50.2819 37.2383 50.3465 36.7455C50.7364 33.6881 53.5979 31.7786 56.5435 32.6829C58.2099 33.1953 59.1778 34.3796 59.4807 36.0848C59.6266 36.9107 59.4527 37.1123 58.6167 37.1263V37.1235Z"/>
<path d="M29.581 38.4341C26.9664 38.4341 24.4444 38.4313 21.9224 38.4369C21.5464 38.4369 21.5352 38.2913 21.6278 37.9833C22.907 33.7639 24.1779 29.5389 25.5104 25.1179C26.8963 29.6509 28.2288 34.0047 29.581 38.4313V38.4341Z"/>
<path d="M58.6167 37.1235C57.3038 37.1431 55.9909 37.1291 54.6752 37.1291V37.1403C53.3875 37.1403 52.0998 37.1431 50.8093 37.1403C50.5597 37.1403 50.2819 37.2383 50.3465 36.7455C50.7364 33.6881 53.5979 31.7786 56.5435 32.6829C58.2099 33.1953 59.1778 34.3796 59.4807 36.0848C59.6266 36.9107 59.4527 37.1123 58.6167 37.1263V37.1235Z"/>
</mask>
<path d="M29.581 38.4341C26.9664 38.4341 24.4444 38.4313 21.9224 38.4369C21.5464 38.4369 21.5352 38.2913 21.6278 37.9833C22.907 33.7639 24.1779 29.5389 25.5104 25.1179C26.8963 29.6509 28.2288 34.0047 29.581 38.4313V38.4341Z" fill="#A3A3A3"/>
<path d="M59.4807 36.0793C59.1778 34.3742 58.2127 33.1898 56.5435 32.6774C53.5951 31.7731 50.7364 33.6826 50.3464 36.7401C50.2819 37.2356 50.5597 37.1348 50.8093 37.1348C52.097 37.1404 53.3847 37.1348 54.6751 37.1348V37.1236C55.9909 37.1236 57.3038 37.1376 58.6167 37.118C59.4555 37.104 59.6294 36.9025 59.4807 36.0765V36.0793ZM59.4807 36.0793C59.1778 34.3742 58.2127 33.1898 56.5435 32.6774C53.5951 31.7731 50.7364 33.6826 50.3464 36.7401C50.2819 37.2356 50.5597 37.1348 50.8093 37.1348C52.097 37.1404 53.3847 37.1348 54.6751 37.1348V37.1236C55.9909 37.1236 57.3038 37.1376 58.6167 37.118C59.4555 37.104 59.6294 36.9025 59.4807 36.0765V36.0793ZM77.1238 13.1315C77.1238 12.1459 77.1013 11.1491 76.8376 10.1888C76.2176 7.92648 75.0983 5.92737 73.4571 4.24744C70.5311 1.25157 66.8897 0.00842085 62.7715 0.00562097C47.4653 2.12062e-05 32.162 0.00282109 16.8559 2.12063e-05C15.5177 2.12063e-05 14.1795 -0.00557856 12.847 0.165214C8.14237 0.767188 4.62443 3.12189 2.26792 7.23211C1.41228 8.72445 1.0055 10.3288 0.854005 12.0199V62.6753C0.890475 62.7397 0.926947 62.8013 0.926947 62.8797C0.926947 62.9161 0.92695 62.9525 0.929755 62.9861C1.01392 65.9596 2.39135 68.3815 4.36072 70.4814C7.22221 73.5361 10.8692 74.8296 14.9931 74.8324C30.9669 74.8492 46.9407 74.8464 62.9145 74.8296C64.8306 74.8296 66.7158 74.5412 68.5281 73.8553C73.0784 72.1333 77.1602 67.4071 77.1462 61.7122C77.0985 45.5205 77.1322 29.3288 77.1209 13.1371L77.1238 13.1315ZM35.0095 52.6294C34.3698 52.6658 34.0977 52.4082 33.9041 51.8202C33.186 49.6391 32.4061 47.4776 31.6851 45.2937C31.5364 44.8485 31.3512 44.6833 30.8603 44.6889C27.3396 44.7113 23.8188 44.7169 20.2981 44.6861C19.7566 44.6833 19.5883 44.8877 19.448 45.3469C18.7719 47.5168 18.051 49.6727 17.3777 51.8454C17.2037 52.4054 16.9148 52.6406 16.3144 52.6266C14.6032 52.5958 12.8919 52.6182 11.1834 52.6154C10.1679 52.6154 10.137 52.5706 10.4764 51.6046C12.9003 44.6553 15.3297 37.7032 17.7592 30.7539C18.6541 28.1864 21.0864 19.6384 21.1761 19.5404C21.2828 19.4256 21.4567 19.3892 21.712 19.3892C24.2172 19.406 26.7196 19.4116 29.2248 19.3836C29.7606 19.378 29.9401 19.616 30.1029 20.0668C31.8254 24.933 33.5675 29.7935 35.304 34.6569C37.3239 40.3099 39.3438 45.9657 41.3608 51.6186C41.7059 52.5902 41.6863 52.6154 40.6707 52.6182H37.8429C36.9031 52.6182 35.9577 52.579 35.0151 52.6294H35.0095ZM49.8639 52.0498C46.2422 50.5043 44.2504 47.5168 43.4873 43.7286C42.6289 39.4531 43.1955 35.3961 45.726 31.7507C47.8328 28.71 50.8318 27.2373 54.4844 27.0245C57.2533 26.8649 59.8847 27.3213 62.1655 29.0096C64.4687 30.7147 65.5516 33.1478 66.0425 35.8833C66.3567 37.6276 66.2221 39.3831 66.0481 41.1359C65.9976 41.623 65.7059 41.693 65.2879 41.7462C62.6873 42.0766 60.0811 41.6902 57.8592 41.8134C55.2979 41.8134 53.1182 41.833 50.9356 41.8022C50.3661 41.7938 50.2931 41.9674 50.3997 42.4798C50.9608 45.1873 53.0087 46.898 56.1339 47.2284C58.5914 47.4888 60.9788 47.1024 63.3101 46.3688C63.8459 46.2009 64.0479 46.2008 64.0311 46.842C63.9946 48.2532 64.0114 49.6643 64.0226 51.0754C64.0254 51.5346 63.9385 51.8958 63.4391 52.061C58.9113 53.5617 54.3413 53.9621 49.8639 52.0498ZM50.8121 37.1376C52.0998 37.1432 53.3875 37.1376 54.6779 37.1376V37.1264C55.9937 37.1264 57.3066 37.1404 58.6195 37.1208C59.4583 37.1068 59.6322 36.9052 59.4836 36.0793C59.1806 34.3742 58.2155 33.1898 56.5463 32.6774C53.5979 31.7731 50.7392 33.6826 50.3493 36.7401C50.2847 37.2356 50.5625 37.1348 50.8121 37.1348V37.1376ZM59.4836 36.0793C59.1806 34.3742 58.2155 33.1898 56.5463 32.6774C53.5979 31.7731 50.7392 33.6826 50.3493 36.7401C50.2847 37.2356 50.5625 37.1348 50.8121 37.1348C52.0998 37.1404 53.3875 37.1348 54.6779 37.1348V37.1236C55.9937 37.1236 57.3066 37.1376 58.6195 37.118C59.4583 37.104 59.6322 36.9025 59.4836 36.0765V36.0793ZM59.4836 36.0793C59.1806 34.3742 58.2155 33.1898 56.5463 32.6774C53.5979 31.7731 50.7392 33.6826 50.3493 36.7401C50.2847 37.2356 50.5625 37.1348 50.8121 37.1348C52.0998 37.1404 53.3875 37.1348 54.6779 37.1348V37.1236C55.9937 37.1236 57.3066 37.1376 58.6195 37.118C59.4583 37.104 59.6322 36.9025 59.4836 36.0765V36.0793Z" fill="#A3A3A3"/>
<path d="M77.1489 61.7095C77.1657 67.4045 73.0811 72.1307 68.5307 73.8526C66.7185 74.5386 64.8333 74.8241 62.9172 74.8269C46.9434 74.8437 30.9696 74.8465 14.9958 74.8297C10.8719 74.8269 7.22488 73.5306 4.3634 70.4787C2.39403 68.3788 1.01659 65.9569 0.932424 62.9834C1.0755 63.563 1.21016 64.1482 1.37287 64.7194C3.05048 70.5403 8.22641 74.4798 14.4319 74.4938C30.7788 74.5302 47.1229 74.5386 63.4699 74.4938C71.2155 74.4714 77.0479 68.5188 77.0507 60.7715C77.0591 45.1986 77.0591 29.6257 77.0507 14.0527C77.0507 7.10903 72.3797 1.61286 65.529 0.49011C64.7267 0.358516 63.8991 0.338917 63.0799 0.336117C47.0079 0.327717 30.9331 0.330517 14.8611 0.330517C7.72705 0.330517 2.40525 4.68713 1.01659 11.6476C0.991342 11.782 1.04745 11.9556 0.851074 12.02C1.00256 10.3317 1.40934 8.72456 2.26498 7.23222C4.62149 3.122 8.13944 0.767299 12.8441 0.165324C14.1794 -0.00546858 15.5177 2.12063e-05 16.8559 2.12063e-05C32.162 0.00282109 47.4653 2.12062e-05 62.7715 0.00562097C66.8897 0.00562097 70.531 1.25168 73.4542 4.24755C75.0981 5.93028 76.2147 7.92659 76.8347 10.1889C77.0984 11.1465 77.118 12.146 77.1208 13.1316C77.132 29.3233 77.0984 45.515 77.1461 61.7067L77.1489 61.7095Z" fill="#A3A3A3"/>
<path d="M29.581 38.4341C26.9664 38.4341 24.4444 38.4313 21.9224 38.4369C21.5464 38.4369 21.5352 38.2913 21.6278 37.9833C22.907 33.7639 24.1779 29.5389 25.5104 25.1179C26.8963 29.6509 28.2288 34.0047 29.581 38.4313V38.4341Z" fill="#A3A3A3"/>
<path d="M58.6167 37.1235C57.3038 37.1431 55.9909 37.1291 54.6752 37.1291V37.1403C53.3875 37.1403 52.0998 37.1431 50.8093 37.1403C50.5597 37.1403 50.2819 37.2383 50.3465 36.7455C50.7364 33.6881 53.5979 31.7786 56.5435 32.6829C58.2099 33.1953 59.1778 34.3796 59.4807 36.0848C59.6266 36.9107 59.4527 37.1123 58.6167 37.1263V37.1235Z" fill="#A3A3A3"/>
<path d="M29.581 38.4341C26.9664 38.4341 24.4444 38.4313 21.9224 38.4369C21.5464 38.4369 21.5352 38.2913 21.6278 37.9833C22.907 33.7639 24.1779 29.5389 25.5104 25.1179C26.8963 29.6509 28.2288 34.0047 29.581 38.4313V38.4341Z" fill="#A3A3A3"/>
<path d="M58.6167 37.1235C57.3038 37.1431 55.9909 37.1291 54.6752 37.1291V37.1403C53.3875 37.1403 52.0998 37.1431 50.8093 37.1403C50.5597 37.1403 50.2819 37.2383 50.3465 36.7455C50.7364 33.6881 53.5979 31.7786 56.5435 32.6829C58.2099 33.1953 59.1778 34.3796 59.4807 36.0848C59.6266 36.9107 59.4527 37.1123 58.6167 37.1263V37.1235Z" fill="#A3A3A3"/>
<path d="M29.581 38.4341V38.9341H30.081V38.4341H29.581ZM21.9224 38.4369V38.9369H21.9235L21.9224 38.4369ZM21.6278 37.9833L21.1493 37.8382L21.149 37.8394L21.6278 37.9833ZM25.5104 25.1179L25.9886 24.9717L25.507 23.3966L25.0317 24.9736L25.5104 25.1179ZM29.581 38.4313H30.081V38.3566L30.0592 38.2852L29.581 38.4313ZM59.4807 36.0793L58.9885 36.1668L59.9807 36.0793H59.4807ZM56.5435 32.6774L56.6902 32.1994L56.6901 32.1994L56.5435 32.6774ZM50.3464 36.7401L50.8423 36.8046L50.8424 36.8033L50.3464 36.7401ZM50.8093 37.1348L50.8115 36.6348H50.8093V37.1348ZM54.6751 37.1348V37.6348H55.1751V37.1348H54.6751ZM54.6751 37.1236V36.6236H54.1751V37.1236H54.6751ZM58.6167 37.118L58.6242 37.618L58.625 37.618L58.6167 37.118ZM59.4807 36.0765L59.9728 35.9879L58.9807 36.0765H59.4807ZM59.4836 36.0793L58.9913 36.1668L59.9836 36.0793H59.4836ZM56.5463 32.6774L56.6931 32.1994L56.693 32.1994L56.5463 32.6774ZM50.3493 36.7401L50.8451 36.8046L50.8452 36.8033L50.3493 36.7401ZM50.8121 37.1348L50.8143 36.6348H50.8121V37.1348ZM54.6779 37.1348V37.6348H55.1779V37.1348H54.6779ZM54.6779 37.1236V36.6236H54.1779V37.1236H54.6779ZM58.6195 37.118L58.627 37.618L58.6278 37.618L58.6195 37.118ZM59.4836 36.0765L59.9756 35.9879L58.9836 36.0765H59.4836ZM58.6167 37.1235H59.1167V36.616L58.6092 36.6236L58.6167 37.1235ZM54.6752 37.1291V36.6291H54.1752V37.1291H54.6752ZM54.6752 37.1403V37.6403H55.1752V37.1403H54.6752ZM50.8093 37.1403L50.8104 36.6403H50.8093V37.1403ZM50.3465 36.7455L50.8422 36.8105L50.8424 36.8088L50.3465 36.7455ZM56.5435 32.6829L56.6905 32.205L56.6903 32.2049L56.5435 32.6829ZM59.4807 36.0848L59.9731 35.9978L59.973 35.9973L59.4807 36.0848ZM58.6167 37.1263H58.1167V37.6348L58.6251 37.6263L58.6167 37.1263ZM29.581 37.9341C26.9672 37.9341 24.444 37.9313 21.9212 37.9369L21.9235 38.9369C24.4448 38.9313 26.9657 38.9341 29.581 38.9341V37.9341ZM21.9224 37.9369C21.8522 37.9369 21.8459 37.929 21.8707 37.9377C21.8865 37.9432 21.9174 37.9565 21.9524 37.9845C21.9892 38.0141 22.0216 38.0529 22.0447 38.0983C22.0885 38.184 22.0778 38.249 22.0791 38.2373C22.0801 38.228 22.0856 38.1972 22.1066 38.1272L21.149 37.8394C21.1237 37.9234 21.0959 38.0263 21.0847 38.1309C21.0738 38.2331 21.0721 38.3923 21.154 38.5529C21.2446 38.7304 21.3956 38.8306 21.5388 38.881C21.6685 38.9266 21.8045 38.9369 21.9224 38.9369V37.9369ZM22.1063 38.1284C23.3857 33.9085 24.6567 29.6828 25.9892 25.2622L25.0317 24.9736C23.699 29.3949 22.4284 33.6193 21.1493 37.8382L22.1063 38.1284ZM25.0323 25.264C26.4182 29.7973 27.7507 34.1508 29.1029 38.5774L30.0592 38.2852C28.707 33.8586 27.3744 29.5045 25.9886 24.9717L25.0323 25.264ZM29.081 38.4313V38.4341H30.081V38.4313H29.081ZM59.973 35.9918C59.6399 34.1172 58.553 32.7712 56.6902 32.1994L56.3968 33.1554C57.8724 33.6084 58.7156 34.6311 58.9885 36.1668L59.973 35.9918ZM56.6901 32.1994C53.4355 31.2011 50.2784 33.3219 49.8505 36.6768L50.8424 36.8033C51.1944 34.0433 53.7546 32.345 56.3969 33.1554L56.6901 32.1994ZM49.8506 36.6755C49.8304 36.8309 49.8261 37.0074 49.884 37.1745C49.9526 37.3725 50.0944 37.5161 50.2756 37.588C50.4228 37.6464 50.5667 37.6446 50.6368 37.6426C50.6761 37.6415 50.7177 37.6389 50.7436 37.6374C50.774 37.6357 50.7934 37.6348 50.8093 37.6348V36.6348C50.7628 36.6348 50.719 36.6372 50.6866 36.639C50.6498 36.6411 50.6292 36.6425 50.6084 36.643C50.589 36.6436 50.5841 36.6429 50.5872 36.6432C50.5904 36.6435 50.6127 36.6459 50.6445 36.6586C50.6791 36.6723 50.7214 36.6968 50.7599 36.737C50.7982 36.777 50.8188 36.8181 50.8289 36.8472C50.8381 36.8739 50.8375 36.8873 50.8371 36.878C50.8367 36.869 50.8369 36.8461 50.8423 36.8046L49.8506 36.6755ZM50.8072 37.6348C52.0961 37.6404 53.3878 37.6348 54.6751 37.6348V36.6348C53.3816 36.6348 52.0979 36.6404 50.8115 36.6348L50.8072 37.6348ZM55.1751 37.1348V37.1236H54.1751V37.1348H55.1751ZM54.6751 37.6236C55.9836 37.6236 57.3064 37.6377 58.6242 37.618L58.6092 36.6181C57.3012 36.6376 55.9981 36.6236 54.6751 36.6236V37.6236ZM58.625 37.618C58.8476 37.6143 59.0618 37.5982 59.2505 37.5499C59.4436 37.5005 59.6481 37.4075 59.8028 37.2222C59.9581 37.0363 60.0128 36.8177 60.0254 36.6171C60.0377 36.4218 60.0124 36.2077 59.9728 35.9879L58.9887 36.1651C59.0234 36.3582 59.0321 36.4791 59.0274 36.5543C59.023 36.6242 59.0097 36.6118 59.0352 36.5813C59.0602 36.5514 59.0732 36.5631 59.0025 36.5812C58.9273 36.6004 58.8052 36.6148 58.6084 36.6181L58.625 37.618ZM58.9807 36.0765V36.0793H59.9807V36.0765H58.9807ZM62.7716 -0.494379C47.4655 -0.499979 32.1618 -0.497179 16.856 -0.499979L16.8558 0.500021C32.1622 0.502821 47.4651 0.500021 62.7713 0.505621L62.7716 -0.494379ZM59.9758 35.9918C59.6427 34.1172 58.5558 32.7712 56.6931 32.1994L56.3996 33.1554C57.8752 33.6084 58.7184 34.6311 58.9913 36.1668L59.9758 35.9918ZM56.693 32.1994C53.4383 31.2011 50.2812 33.3219 49.8533 36.6768L50.8452 36.8033C51.1972 34.0433 53.7574 32.345 56.3997 33.1554L56.693 32.1994ZM49.8534 36.6755C49.8332 36.8309 49.8289 37.0074 49.8868 37.1745C49.9554 37.3725 50.0972 37.5161 50.2784 37.588C50.4256 37.6464 50.5695 37.6446 50.6396 37.6426C50.6789 37.6415 50.7205 37.6389 50.7464 37.6374C50.7768 37.6357 50.7962 37.6348 50.8121 37.6348V36.6348C50.7656 36.6348 50.7218 36.6372 50.6895 36.639C50.6527 36.6411 50.632 36.6425 50.6112 36.643C50.5918 36.6436 50.5869 36.6429 50.59 36.6432C50.5932 36.6435 50.6155 36.6459 50.6473 36.6586C50.6819 36.6723 50.7242 36.6968 50.7627 36.737C50.801 36.777 50.8216 36.8181 50.8317 36.8472C50.841 36.8739 50.8403 36.8873 50.8399 36.878C50.8395 36.869 50.8397 36.8461 50.8451 36.8046L49.8534 36.6755ZM50.81 37.6348C52.0989 37.6404 53.3905 37.6348 54.6779 37.6348V36.6348C53.3844 36.6348 52.1007 36.6404 50.8143 36.6348L50.81 37.6348ZM55.1779 37.1348V37.1236H54.1779V37.1348H55.1779ZM54.6779 37.6236C55.9864 37.6236 57.3092 37.6377 58.627 37.618L58.612 36.6181C57.304 36.6376 56.0009 36.6236 54.6779 36.6236V37.6236ZM58.6278 37.618C58.8504 37.6143 59.0646 37.5982 59.2533 37.5499C59.4464 37.5005 59.651 37.4075 59.8056 37.2222C59.9609 37.0363 60.0156 36.8177 60.0282 36.6171C60.0405 36.4218 60.0152 36.2077 59.9756 35.9879L58.9915 36.1651C59.0262 36.3582 59.0349 36.4791 59.0302 36.5543C59.0258 36.6242 59.0125 36.6118 59.038 36.5813C59.063 36.5514 59.076 36.5631 59.0053 36.5812C58.9301 36.6004 58.808 36.6148 58.6112 36.6181L58.6278 37.618ZM58.9836 36.0765V36.0793H59.9836V36.0765H58.9836ZM58.6092 36.6236C57.3012 36.6431 55.9981 36.6291 54.6752 36.6291V37.6291C55.9837 37.6291 57.3064 37.6431 58.6242 37.6235L58.6092 36.6236ZM54.1752 37.1291V37.1403H55.1752V37.1291H54.1752ZM54.6752 36.6403C53.3859 36.6403 52.1003 36.6431 50.8104 36.6403L50.8083 37.6403C52.0994 37.6431 53.389 37.6403 54.6752 37.6403V36.6403ZM50.8093 36.6403C50.7633 36.6403 50.7198 36.6426 50.6878 36.6443C50.6514 36.6463 50.6307 36.6476 50.6102 36.6481C50.591 36.6486 50.5861 36.6478 50.5893 36.6482C50.5925 36.6485 50.6146 36.651 50.6461 36.6636C50.6802 36.6773 50.7221 36.7017 50.7602 36.7415C50.7981 36.7812 50.8187 36.822 50.8288 36.8512C50.8381 36.8779 50.8375 36.8915 50.8371 36.8826C50.8368 36.874 50.8369 36.8514 50.8422 36.8105L49.8507 36.6806C49.8304 36.8357 49.8261 37.0121 49.8841 37.1791C49.9527 37.3767 50.094 37.5197 50.2741 37.5918C50.4208 37.6506 50.5643 37.6495 50.635 37.6478C50.6747 37.6468 50.7161 37.6443 50.7425 37.6428C50.7731 37.6411 50.7929 37.6403 50.8093 37.6403V36.6403ZM50.8424 36.8088C51.1944 34.0489 53.7573 32.3505 56.3968 33.1609L56.6903 32.2049C53.4384 31.2066 50.2784 33.3273 49.8505 36.6823L50.8424 36.8088ZM56.3966 33.1608C57.8699 33.6139 58.7157 34.637 58.9885 36.1722L59.973 35.9973C59.6399 34.1223 58.5499 32.7767 56.6905 32.205L56.3966 33.1608ZM58.9884 36.1717C59.0225 36.3649 59.0308 36.4859 59.0259 36.5613C59.0213 36.6315 59.008 36.6197 59.0331 36.5896C59.0578 36.56 59.0707 36.5715 59.0006 36.5895C58.9259 36.6087 58.8044 36.6231 58.6083 36.6264L58.6251 37.6263C58.847 37.6225 59.0608 37.6065 59.2492 37.5581C59.4423 37.5086 59.6463 37.4155 59.8007 37.2305C59.9556 37.045 60.0107 36.827 60.0238 36.6267C60.0365 36.4316 60.012 36.2176 59.9731 35.9978L58.9884 36.1717ZM59.1167 37.1263V37.1235H58.1167V37.1263H59.1167ZM77.1238 13.1315L78.0177 13.5797L78.1238 13.3681V13.1315H77.1238ZM76.8376 10.1888L75.8732 10.4531L75.8733 10.4536L76.8376 10.1888ZM73.4571 4.24744L72.7417 4.94616L72.7418 4.94624L73.4571 4.24744ZM62.7715 0.00562097V-0.994379L62.7708 1.00562L62.7715 0.00562097ZM12.847 0.165214L12.9739 1.15713L12.9741 1.1571L12.847 0.165214ZM2.26792 7.23211L3.13544 7.72951L3.13545 7.7295L2.26792 7.23211ZM0.854005 12.0199L-0.142007 11.9307L-0.145995 11.9752V12.0199H0.854005ZM0.854005 62.6753H-0.145995V62.9389L-0.0161442 63.1681L0.854005 62.6753ZM0.929755 62.9861L1.92936 62.9578L1.92858 62.9303L1.92629 62.9029L0.929755 62.9861ZM4.36072 70.4814L5.09053 69.7978L5.09014 69.7973L4.36072 70.4814ZM14.9931 74.8324L14.9942 73.8324H14.9938L14.9931 74.8324ZM62.9145 74.8296V73.8296H62.9135L62.9145 74.8296ZM68.5281 73.8553L68.1741 72.92L68.1741 72.92L68.5281 73.8553ZM77.1462 61.7122L78.1462 61.7097L78.1462 61.7092L77.1462 61.7122ZM77.1209 13.1371L76.227 12.6888L76.1208 12.9007L76.1209 13.1378L77.1209 13.1371ZM35.0095 52.6294V51.6294H34.981L34.9526 51.631L35.0095 52.6294ZM33.9041 51.8202L34.854 51.5075L34.854 51.5075L33.9041 51.8202ZM31.6851 45.2937L32.6347 44.9802L32.6336 44.9769L31.6851 45.2937ZM30.8603 44.6889L30.8667 45.6889L30.8717 45.6889L30.8603 44.6889ZM20.2981 44.6861L20.3068 43.6861L20.3032 43.6861L20.2981 44.6861ZM19.448 45.3469L20.4028 45.6444L20.4044 45.639L19.448 45.3469ZM17.3777 51.8454L18.3327 52.142L18.3329 52.1414L17.3777 51.8454ZM16.3144 52.6266L16.3377 51.6268L16.3324 51.6267L16.3144 52.6266ZM11.1834 52.6154L11.185 51.6154H11.1834V52.6154ZM10.4764 51.6046L11.4199 51.9362L11.4207 51.9339L10.4764 51.6046ZM17.7592 30.7539L18.7032 31.0839L18.7035 31.083L17.7592 30.7539ZM21.1761 19.5404L20.4434 18.8599L20.4388 18.8649L21.1761 19.5404ZM21.712 19.3892L21.7187 18.3892H21.712V19.3892ZM29.2248 19.3836L29.2143 18.3836L29.2136 18.3837L29.2248 19.3836ZM30.1029 20.0668L31.0456 19.7331L31.0435 19.7272L30.1029 20.0668ZM35.304 34.6569L34.3623 34.9932L34.3623 34.9934L35.304 34.6569ZM41.3608 51.6186L42.3032 51.2839L42.3027 51.2826L41.3608 51.6186ZM40.6707 52.6182V53.6182L40.6735 53.6182L40.6707 52.6182ZM35.0151 52.6294V53.6294H35.0418L35.0685 53.6279L35.0151 52.6294ZM49.8639 52.0498L50.2567 51.1302L50.2564 51.13L49.8639 52.0498ZM43.4873 43.7286L42.5069 43.9254L42.507 43.926L43.4873 43.7286ZM45.726 31.7507L46.5475 32.3209L46.548 32.3202L45.726 31.7507ZM54.4844 27.0245L54.4268 26.0261L54.4262 26.0262L54.4844 27.0245ZM62.1655 29.0096L62.7605 28.2059L62.7605 28.2058L62.1655 29.0096ZM66.0425 35.8833L65.0582 36.0599L65.0584 36.0606L66.0425 35.8833ZM66.0481 41.1359L67.0428 41.239L67.0432 41.2346L66.0481 41.1359ZM65.2879 41.7462L65.4139 42.7383L65.4141 42.7382L65.2879 41.7462ZM57.8592 41.8134V42.8134H57.8869L57.9146 42.8119L57.8592 41.8134ZM50.9356 41.8022L50.9208 42.8021L50.9215 42.8021L50.9356 41.8022ZM50.3997 42.4798L51.3789 42.2769L51.3788 42.2761L50.3997 42.4798ZM56.1339 47.2284L56.2393 46.234L56.2391 46.2339L56.1339 47.2284ZM63.3101 46.3688L63.0109 45.4146L63.0099 45.415L63.3101 46.3688ZM64.0311 46.842L63.0314 46.8158L63.0314 46.8162L64.0311 46.842ZM64.0226 51.0754L65.0226 51.0693L65.0226 51.0675L64.0226 51.0754ZM63.4391 52.061L63.1251 51.1116L63.1245 51.1118L63.4391 52.061ZM50.8121 37.1376H49.8121V38.1333L50.8078 38.1376L50.8121 37.1376ZM54.6779 37.1376V38.1376H55.6779V37.1376H54.6779ZM54.6779 37.1264V36.1264H53.6779V37.1264H54.6779ZM58.6195 37.1208L58.6344 38.1207L58.6362 38.1207L58.6195 37.1208ZM77.1489 61.7095L78.1489 61.7065L78.1476 61.2933L77.855 61.0014L77.1489 61.7095ZM68.5307 73.8526L68.1768 72.9173L68.1767 72.9173L68.5307 73.8526ZM62.9172 74.8269L62.9182 75.8269H62.9187L62.9172 74.8269ZM14.9958 74.8297L14.9968 73.8297H14.9965L14.9958 74.8297ZM4.3634 70.4787L5.0929 69.7947L5.09282 69.7947L4.3634 70.4787ZM0.932424 62.9834L1.90328 62.7438L-0.0671757 63.0117L0.932424 62.9834ZM1.37287 64.7194L0.411128 64.9933L0.41198 64.9963L1.37287 64.7194ZM14.4319 74.4938L14.4296 75.4938H14.4297L14.4319 74.4938ZM63.4699 74.4938L63.4726 75.4938L63.4727 75.4937L63.4699 74.4938ZM77.0507 60.7715L76.0507 60.771V60.7712L77.0507 60.7715ZM77.0507 14.0527H76.0507V14.0533L77.0507 14.0527ZM65.529 0.49011L65.3672 1.47693L65.3673 1.47695L65.529 0.49011ZM63.0799 0.336117L63.0833 -0.663881L63.0804 -0.663883L63.0799 0.336117ZM1.01659 11.6476L0.0358549 11.452L0.0337837 11.463L1.01659 11.6476ZM0.851074 12.02L-0.144924 11.9307L-0.280674 13.4435L1.16268 12.9702L0.851074 12.02ZM2.26498 7.23222L3.1325 7.72962L3.13251 7.72961L2.26498 7.23222ZM12.8441 0.165324L12.7172 -0.826596L12.7171 -0.826589L12.8441 0.165324ZM73.4542 4.24755L72.7385 4.94592L72.7389 4.94637L73.4542 4.24755ZM76.8347 10.1889L75.8702 10.4532L75.8706 10.4544L76.8347 10.1889ZM77.1208 13.1316L78.1208 13.1309L78.1208 13.1287L77.1208 13.1316ZM77.1461 61.7067L76.1461 61.7096L76.1473 62.1229L76.4399 62.4148L77.1461 61.7067ZM78.1238 13.1315C78.1238 12.1471 78.1051 11.028 77.8019 9.924L75.8733 10.4536C76.0976 11.2703 76.1238 12.1448 76.1238 13.1315H78.1238ZM77.8021 9.92448C77.1391 7.5053 75.9369 5.35483 74.1724 3.54864L72.7418 4.94624C74.2596 6.49991 75.2962 8.34766 75.8732 10.4531L77.8021 9.92448ZM74.1725 3.54872C71.0262 0.327258 67.1094 -0.99143 62.7721 -0.994379L62.7708 1.00562C66.6701 1.00827 70.036 2.17588 72.7417 4.94616L74.1725 3.54872ZM16.8559 -0.999979C15.5325 -0.999979 14.1276 -1.0071 12.7199 -0.826672L12.9741 1.1571C14.2315 0.995939 15.5029 1.00002 16.8559 1.00002V-0.999979ZM12.7201 -0.826699C7.70413 -0.18489 3.91238 2.35331 1.40039 6.73473L3.13545 7.7295C5.33648 3.89046 8.58061 1.71927 12.9739 1.15713L12.7201 -0.826699ZM1.40039 6.73471C0.455488 8.38274 0.0188026 10.1355 -0.142007 11.9307L1.85002 12.1091C1.99219 10.522 2.36907 9.06616 3.13544 7.72951L1.40039 6.73471ZM-0.145995 12.0199V62.6753H1.854V12.0199H-0.145995ZM-0.0161442 63.1681C-0.0100359 63.1789 -0.00770718 63.183 -0.00455517 63.1886C-0.00202215 63.1931 -0.00147241 63.1942 -0.00190938 63.1934C-0.00253111 63.1922 -0.0106911 63.1769 -0.0206601 63.1527C-0.0427264 63.0991 -0.0730526 63.0032 -0.0730526 62.8797H1.92695C1.92695 62.4923 1.73326 62.1986 1.72415 62.1826L-0.0161442 63.1681ZM-0.0730526 62.8797C-0.0730526 62.9069 -0.0736893 62.9866 -0.0667768 63.0693L1.92629 62.9029C1.92682 62.9093 1.92703 62.9135 1.92711 62.9152C1.92718 62.9168 1.92715 62.9167 1.92711 62.9143C1.92706 62.9119 1.92701 62.9081 1.92698 62.9021C1.92695 62.8959 1.92695 62.8892 1.92695 62.8797H-0.0730526ZM-0.0698442 63.0144C0.0234804 66.3116 1.55863 68.9554 3.63131 71.1655L5.09014 69.7973C3.22407 67.8076 2.00435 65.6076 1.92936 62.9578L-0.0698442 63.0144ZM3.63092 71.1651C6.71275 74.455 10.6419 75.8295 14.9924 75.8324L14.9938 73.8324C11.0966 73.8298 7.73167 72.6172 5.09053 69.7978L3.63092 71.1651ZM14.9921 75.8324C30.9667 75.8492 46.9412 75.8464 62.9156 75.8296L62.9135 73.8296C46.9403 73.8464 30.9672 73.8492 14.9942 73.8324L14.9921 75.8324ZM62.9145 75.8296C64.9317 75.8296 66.9395 75.5258 68.8821 74.7905L68.1741 72.92C66.4921 73.5567 64.7295 73.8296 62.9145 73.8296V75.8296ZM68.882 74.7905C73.7563 72.946 78.1614 67.8874 78.1462 61.7097L76.1462 61.7147C76.159 66.9269 72.4005 71.3207 68.1741 72.92L68.882 74.7905ZM78.1462 61.7092C78.0985 45.5186 78.1322 29.3322 78.1209 13.1364L76.1209 13.1378C76.1322 29.3254 76.0985 45.5223 76.1462 61.7151L78.1462 61.7092ZM78.0149 13.5853L78.0177 13.5797L76.2299 12.6832L76.227 12.6888L78.0149 13.5853ZM34.9526 51.631C34.8603 51.6362 34.825 51.628 34.8258 51.6282C34.8274 51.6286 34.8376 51.6312 34.8533 51.6385C34.8692 51.646 34.8861 51.6561 34.9018 51.6683C34.9349 51.6939 34.9416 51.7117 34.9297 51.6915C34.9155 51.6673 34.8887 51.613 34.854 51.5075L32.9543 52.1329C33.0731 52.4938 33.2695 52.9338 33.6772 53.2496C34.1089 53.5839 34.6098 53.6537 35.0663 53.6278L34.9526 51.631ZM34.854 51.5075C34.4923 50.409 34.1155 49.3168 33.7409 48.2317C33.3656 47.1445 32.9927 46.0646 32.6347 44.9802L30.7355 45.6072C31.0985 46.7067 31.476 47.7995 31.8504 48.8843C32.2256 49.9712 32.5978 51.0503 32.9543 52.133L34.854 51.5075ZM32.6336 44.9769C32.5405 44.6981 32.3771 44.3089 32.0073 44.027C31.6241 43.7348 31.1905 43.6851 30.8489 43.689L30.8717 45.6889C30.9422 45.688 30.9566 45.6944 30.9383 45.6899C30.9272 45.6872 30.9065 45.6811 30.8797 45.6688C30.8523 45.6562 30.8232 45.6392 30.7948 45.6175C30.7353 45.5721 30.7068 45.5281 30.7009 45.5181C30.6982 45.5136 30.7116 45.5358 30.7366 45.6105L32.6336 44.9769ZM30.8539 43.6889C27.3362 43.7113 23.8208 43.7169 20.3068 43.6862L20.2893 45.6861C23.8168 45.7169 27.3429 45.7113 30.8667 45.6889L30.8539 43.6889ZM20.3032 43.6861C19.9204 43.6842 19.4623 43.7523 19.0751 44.0812C18.7159 44.3863 18.5714 44.7936 18.4917 45.0547L20.4044 45.639C20.417 45.5977 20.4274 45.5678 20.4357 45.5461C20.4441 45.5244 20.4488 45.5152 20.4492 45.5146C20.4493 45.5143 20.4437 45.5251 20.4306 45.5422C20.4171 45.5599 20.3971 45.5824 20.3701 45.6054C20.3427 45.6286 20.3136 45.6477 20.285 45.6624C20.257 45.6768 20.2347 45.6842 20.2223 45.6876C20.2012 45.6935 20.216 45.6857 20.2929 45.6861L20.3032 43.6861ZM18.4933 45.0494C18.157 46.1287 17.8094 47.2052 17.4601 48.2881C17.1113 49.3694 16.7611 50.4568 16.4225 51.5494L18.3329 52.1414C18.6676 51.0613 19.0144 49.9844 19.3635 48.9021C19.7121 47.8214 20.063 46.735 20.4028 45.6444L18.4933 45.0494ZM16.4227 51.5488C16.3956 51.6358 16.3746 51.6755 16.3673 51.6875C16.3625 51.6955 16.3733 51.6758 16.4051 51.6519C16.4199 51.6408 16.4344 51.6324 16.4469 51.6266C16.4591 51.6209 16.466 51.6192 16.4647 51.6196C16.46 51.6207 16.4235 51.6288 16.3377 51.6268L16.2911 53.6263C16.7184 53.6363 17.1932 53.5615 17.6068 53.2506C18.0128 52.9455 18.2151 52.5205 18.3327 52.142L16.4227 51.5488ZM16.3324 51.6267C14.6111 51.5958 12.873 51.6181 11.185 51.6154L11.1818 53.6154C12.9107 53.6182 14.5952 53.5958 16.2964 53.6264L16.3324 51.6267ZM11.1834 51.6154C11.0578 51.6154 10.9598 51.6146 10.8795 51.6121C10.7973 51.6094 10.7534 51.6054 10.7329 51.6026C10.7079 51.5992 10.7496 51.6017 10.8202 51.6321C10.9009 51.667 11.0335 51.745 11.1414 51.8993C11.2489 52.053 11.2761 52.2028 11.2813 52.2871C11.2859 52.3611 11.2747 52.3989 11.2802 52.3727C11.2847 52.3509 11.2959 52.3067 11.3211 52.2272C11.3457 52.1495 11.3779 52.0557 11.4199 51.9362L9.53301 51.2731C9.45334 51.4998 9.36674 51.7494 9.32163 51.9674C9.28507 52.1441 9.2006 52.6137 9.50217 53.0451C9.80632 53.4803 10.2799 53.5591 10.4606 53.584C10.6815 53.6143 10.9454 53.6154 11.1834 53.6154V51.6154ZM11.4207 51.9339C13.8444 44.985 16.2737 38.0332 18.7032 31.0839L16.8152 30.4239C14.3857 37.3733 11.9562 44.3256 9.53224 51.2753L11.4207 51.9339ZM18.7035 31.083C19.1607 29.7712 20.0005 26.9644 20.7285 24.5049C21.095 23.2668 21.4342 22.1127 21.6887 21.2581C21.8159 20.8309 21.9204 20.4834 21.9955 20.2409C22.0333 20.1187 22.0618 20.0292 22.0811 19.9716C22.0858 19.9577 22.0894 19.947 22.0922 19.9391C22.0951 19.9308 22.0962 19.9279 22.0959 19.9289C22.0956 19.9295 22.0945 19.9325 22.0925 19.9373C22.0907 19.9417 22.087 19.9508 22.0815 19.9629C22.0768 19.9732 22.066 19.9968 22.0497 20.0265C22.042 20.0404 21.9964 20.1254 21.9135 20.2159L20.4388 18.8649C20.3545 18.9569 20.3072 19.0445 20.2976 19.062C20.2793 19.0952 20.2662 19.1234 20.259 19.1393C20.2442 19.172 20.2328 19.2013 20.2261 19.2189C20.2118 19.2567 20.1974 19.2984 20.1845 19.3369C20.1579 19.4165 20.124 19.5233 20.085 19.6492C20.0064 19.903 19.8992 20.2595 19.7718 20.6874C19.517 21.5434 19.1754 22.7052 18.8107 23.9373C18.0764 26.4182 17.2526 29.1691 16.8149 30.4248L18.7035 31.083ZM21.9089 20.2209C21.8029 20.335 21.6893 20.3765 21.6438 20.3885C21.6241 20.3938 21.6179 20.3934 21.6317 20.392C21.6453 20.3907 21.6707 20.3892 21.712 20.3892V18.3892C21.4389 18.3892 20.8634 18.4076 20.4434 18.8599L21.9089 20.2209ZM21.7053 20.3892C24.2131 20.406 26.7222 20.4116 29.2359 20.3835L29.2136 18.3837C26.717 18.4116 24.2213 18.406 21.7187 18.3892L21.7053 20.3892ZM29.2352 20.3835C29.2975 20.3829 29.3034 20.3901 29.2764 20.382C29.2618 20.3776 29.2406 20.3696 29.2159 20.3561C29.1909 20.3424 29.1675 20.326 29.147 20.3081C29.1057 20.2722 29.0929 20.2453 29.1005 20.2588C29.1044 20.2657 29.1119 20.2803 29.123 20.3056C29.134 20.3311 29.1469 20.3637 29.1623 20.4063L31.0435 19.7272C30.9528 19.476 30.7973 19.0933 30.4605 18.8C30.084 18.472 29.6347 18.3793 29.2143 18.3836L29.2352 20.3835ZM29.1602 20.4004C30.8833 25.2684 32.6263 30.1313 34.3623 34.9932L36.2458 34.3207C34.5087 29.4558 32.7674 24.5976 31.0455 19.7331L29.1602 20.4004ZM34.3623 34.9934C36.3822 40.6463 38.402 46.3019 40.419 51.9547L42.3027 51.2826C40.2855 45.6294 38.2656 39.9735 36.2457 34.3205L34.3623 34.9934ZM40.4185 51.9533C40.4617 52.075 40.4951 52.1704 40.521 52.25C40.5475 52.3314 40.5598 52.3771 40.5651 52.4007C40.5714 52.4292 40.5596 52.3917 40.5628 52.3172C40.5666 52.2323 40.5915 52.0747 40.7039 51.9123C40.817 51.749 40.9577 51.6689 41.0403 51.6343C41.1123 51.6042 41.1548 51.6022 41.1278 51.6056C41.1058 51.6085 41.0606 51.6122 40.9767 51.6147C40.8945 51.6171 40.7954 51.6178 40.6679 51.6182L40.6735 53.6182C40.9072 53.6175 41.1685 53.6169 41.3832 53.5892C41.5499 53.5678 42.0392 53.4971 42.3481 53.0511C42.6535 52.6101 42.5537 52.1303 42.5177 51.9679C42.4707 51.756 42.383 51.5088 42.3032 51.2839L40.4185 51.9533ZM40.6707 51.6182H37.8429V53.6182H40.6707V51.6182ZM37.8429 51.6182C36.9599 51.6182 35.9385 51.5786 34.9617 51.6308L35.0685 53.6279C35.9769 53.5794 36.8463 53.6182 37.8429 53.6182V51.6182ZM35.0151 51.6294H35.0095V53.6294H35.0151V51.6294ZM50.2564 51.13C46.9986 49.7398 45.1799 47.0674 44.4676 43.5311L42.507 43.926C43.3208 47.9662 45.4858 51.2687 49.4714 52.9696L50.2564 51.13ZM44.4677 43.5317C43.6536 39.4771 44.1969 35.7072 46.5475 32.3209L44.9045 31.1804C42.1942 35.085 41.6041 39.4291 42.5069 43.9254L44.4677 43.5317ZM46.548 32.3202C48.458 29.5635 51.1569 28.22 54.5425 28.0228L54.4262 26.0262C50.5066 26.2545 47.2076 27.8565 44.904 31.1811L46.548 32.3202ZM54.5419 28.0228C57.1648 27.8716 59.538 28.3087 61.5705 29.8133L62.7605 28.2058C60.2315 26.3338 57.3417 25.8581 54.4268 26.0261L54.5419 28.0228ZM61.5705 29.8133C63.5991 31.3151 64.5943 33.4748 65.0582 36.0599L67.0268 35.7066C66.5089 32.8209 65.3383 30.1143 62.7605 28.2059L61.5705 29.8133ZM65.0584 36.0606C65.3452 37.653 65.2271 39.2825 65.053 41.0371L67.0432 41.2346C67.217 39.4837 67.3682 37.6023 67.0267 35.706L65.0584 36.0606ZM65.0535 41.0328C65.0505 41.0618 65.0499 41.0227 65.0869 40.9542C65.1058 40.9192 65.1315 40.8821 65.1646 40.8467C65.1976 40.8114 65.2318 40.7841 65.2628 40.7641C65.3212 40.7263 65.3582 40.7206 65.3342 40.7266C65.3079 40.7331 65.2607 40.7416 65.1616 40.7542L65.4141 42.7382C65.5944 42.7153 65.9983 42.6702 66.3489 42.4435C66.7989 42.1524 66.9952 41.6985 67.0428 41.239L65.0535 41.0328ZM65.1618 40.7542C63.9448 40.9088 62.7098 40.8977 61.4633 40.858C60.2448 40.8193 58.9717 40.7502 57.8039 40.815L57.9146 42.8119C58.9686 42.7535 60.1096 42.816 61.3997 42.857C62.662 42.8972 64.0303 42.914 65.4139 42.7383L65.1618 40.7542ZM57.8592 40.8134C55.286 40.8134 53.1229 40.833 50.9497 40.8023L50.9215 42.8021C53.1134 42.8331 55.3099 42.8134 57.8592 42.8134V40.8134ZM50.9503 40.8023C50.7716 40.7997 50.5524 40.8084 50.3351 40.8673C50.1023 40.9304 49.8122 41.0683 49.6008 41.364C49.3981 41.6473 49.3601 41.9479 49.3585 42.1481C49.3568 42.3449 49.3899 42.5354 49.4207 42.6835L51.3788 42.2761C51.3563 42.168 51.3586 42.1447 51.3584 42.165C51.3582 42.1889 51.354 42.3505 51.2275 42.5275C51.0921 42.7167 50.9204 42.7808 50.8581 42.7977C50.8113 42.8104 50.8148 42.8006 50.9208 42.8021L50.9503 40.8023ZM49.4206 42.6827C49.7437 44.2421 50.507 45.5524 51.6666 46.515C52.8197 47.4721 54.3105 48.0412 56.0288 48.2229L56.2391 46.2339C54.8321 46.0852 53.7364 45.6338 52.944 44.976C52.1581 44.3238 51.6169 43.425 51.3789 42.2769L49.4206 42.6827ZM56.0286 48.2228C58.6602 48.5017 61.1897 48.0844 63.6102 47.3227L63.0099 45.415C60.768 46.1204 58.5227 46.4759 56.2393 46.234L56.0286 48.2228ZM63.6092 47.323C63.6692 47.3043 63.7137 47.2912 63.7483 47.2822C63.7836 47.273 63.7967 47.2711 63.7944 47.2714C63.7934 47.2716 63.7566 47.2772 63.697 47.2724C63.6344 47.2673 63.5341 47.2495 63.4216 47.1919C63.1573 47.0564 63.0633 46.8327 63.0391 46.748C63.0222 46.6885 63.0348 46.6881 63.0314 46.8158L65.0307 46.8683C65.0358 46.6754 65.0294 46.4345 64.9626 46.2C64.8886 45.9402 64.7137 45.6068 64.334 45.4121C64.0012 45.2415 63.6761 45.2677 63.5079 45.292C63.3274 45.3182 63.1474 45.3718 63.0109 45.4146L63.6092 47.323ZM63.0314 46.8162C62.9944 48.2482 63.0115 49.6792 63.0227 51.0834L65.0226 51.0675C65.0113 49.6494 64.9948 48.2581 65.0307 46.8679L63.0314 46.8162ZM63.0227 51.0816C63.0232 51.1676 63.019 51.2186 63.0145 51.2477C63.0103 51.2752 63.0086 51.2637 63.024 51.2328C63.032 51.2168 63.0434 51.1979 63.0589 51.1783C63.0744 51.1585 63.0911 51.1419 63.1071 51.1288C63.1398 51.102 63.1547 51.1018 63.1251 51.1116L63.7532 53.0104C64.2177 52.8568 64.5949 52.565 64.8144 52.1241C65.0067 51.738 65.0243 51.3367 65.0226 51.0693L63.0227 51.0816ZM63.1245 51.1118C58.7355 52.5665 54.4338 52.9142 50.2567 51.1302L49.4711 52.9694C54.2488 55.01 59.087 54.557 63.7538 53.0102L63.1245 51.1118ZM50.8078 38.1376C52.098 38.1432 53.3936 38.1376 54.6779 38.1376V36.1376C53.3813 36.1376 52.1016 36.1432 50.8165 36.1376L50.8078 38.1376ZM55.6779 37.1376V37.1264H53.6779V37.1376H55.6779ZM54.6779 38.1264C55.9792 38.1264 57.3118 38.1405 58.6344 38.1207L58.6046 36.1209C57.3014 36.1404 56.0081 36.1264 54.6779 36.1264V38.1264ZM58.6362 38.1207C58.8716 38.1168 59.1318 38.0999 59.3773 38.0371C59.6316 37.972 59.9449 37.8383 60.1894 37.5455C60.4351 37.2513 60.5105 36.9173 60.5273 36.6512C60.5433 36.3959 60.5097 36.1353 60.4677 35.9021L58.4994 36.2564C58.5146 36.3409 58.5233 36.4048 58.5278 36.4528C58.5323 36.5016 58.5313 36.5234 58.5312 36.5258C58.5311 36.5279 58.5325 36.4977 58.5491 36.4484C58.567 36.3955 58.5996 36.3291 58.6542 36.2636C58.7087 36.1983 58.7676 36.1552 58.8144 36.1291C58.8579 36.1049 58.8853 36.0985 58.8813 36.0996C58.8772 36.1006 58.8542 36.1059 58.8042 36.1109C58.7548 36.1158 58.6893 36.1195 58.6028 36.121L58.6362 38.1207ZM49.8121 37.1348V37.1376H51.8121V37.1348H49.8121ZM76.1489 61.7125C76.1643 66.924 72.4035 71.3178 68.1768 72.9173L68.8847 74.7878C73.7586 72.9435 78.1671 67.885 78.1489 61.7065L76.1489 61.7125ZM68.1767 72.9173C66.4956 73.5537 64.7328 73.8243 62.9157 73.8269L62.9187 75.8269C64.9337 75.824 66.9414 75.5234 68.8848 74.7878L68.1767 72.9173ZM62.9161 73.8269C46.9429 73.8437 30.9698 73.8465 14.9968 73.8297L14.9947 75.8297C30.9693 75.8465 46.9439 75.8437 62.9182 75.8269L62.9161 73.8269ZM14.9965 73.8297C11.0997 73.8271 7.7344 72.612 5.0929 69.7947L3.63391 71.1627C6.71537 74.4492 10.644 75.8268 14.9951 75.8297L14.9965 73.8297ZM5.09282 69.7947C3.22675 67.8049 2.00702 65.6049 1.93202 62.9552L-0.0671757 63.0117C0.0261489 66.309 1.56131 68.9527 3.63399 71.1628L5.09282 69.7947ZM-0.0384315 63.2231C0.0995129 63.7819 0.241944 64.3994 0.411132 64.9933L2.33461 64.4454C2.17837 63.897 2.05148 63.3441 1.90328 62.7438L-0.0384315 63.2231ZM0.41198 64.9963C2.21342 71.2469 7.78171 75.4788 14.4296 75.4938L14.4342 73.4938C8.67111 73.4808 3.88755 69.8337 2.33376 64.4424L0.41198 64.9963ZM14.4297 75.4938C30.7777 75.5302 47.1235 75.5386 63.4726 75.4938L63.4671 73.4938C47.1223 73.5386 30.7799 73.5302 14.4341 73.4938L14.4297 75.4938ZM63.4727 75.4937C71.7796 75.4697 78.0477 69.06 78.0507 60.7719L76.0507 60.7712C76.0481 67.9777 70.6514 73.473 63.467 73.4938L63.4727 75.4937ZM78.0507 60.7721C78.0591 45.1988 78.0591 29.6255 78.0507 14.0522L76.0507 14.0533C76.0591 29.6258 76.0591 45.1984 76.0507 60.771L78.0507 60.7721ZM78.0507 14.0527C78.0507 6.619 73.0247 0.705227 65.6907 -0.496725L65.3673 1.47695C71.7347 2.5205 76.0507 7.59905 76.0507 14.0527H78.0507ZM65.6909 -0.496705C64.8039 -0.642171 63.9078 -0.661059 63.0833 -0.663877L63.0765 1.33611C63.8904 1.33889 64.6494 1.3592 65.3672 1.47693L65.6909 -0.496705ZM63.0804 -0.663883C47.0081 -0.672283 30.9329 -0.669483 14.8611 -0.669483V1.33052C30.9334 1.33052 47.0077 1.32772 63.0794 1.33612L63.0804 -0.663883ZM14.8611 -0.669483C7.2527 -0.669483 1.51836 4.02138 0.0359166 11.452L1.99726 11.8433C3.29214 5.35288 8.2014 1.33052 14.8611 1.33052V-0.669483ZM0.0337837 11.463C0.011095 11.5838 0.00903362 11.699 0.00839669 11.7159C0.00656515 11.7647 0.00599623 11.721 0.017498 11.6636C0.0319319 11.5916 0.0720257 11.4532 0.186513 11.3152C0.304793 11.1726 0.443156 11.1014 0.539473 11.0698L1.16268 12.9702C1.35718 12.9064 1.56217 12.7894 1.72595 12.5919C1.88594 12.399 1.9504 12.1968 1.97851 12.0566C2.00369 11.9309 2.0061 11.8146 2.00699 11.791C2.00907 11.7356 2.00946 11.7787 1.9994 11.8323L0.0337837 11.463ZM1.84707 12.1094C1.98926 10.5247 2.36621 9.06611 3.1325 7.72962L1.39746 6.73482C0.452461 8.38301 0.0158697 10.1386 -0.144924 11.9307L1.84707 12.1094ZM3.13251 7.72961C5.33354 3.89058 8.57768 1.71938 12.971 1.15724L12.7171 -0.826589C7.7012 -0.18478 3.90945 2.35342 1.39745 6.73484L3.13251 7.72961ZM12.9709 1.15724C14.2313 0.996036 15.5031 1.00002 16.8559 1.00002V-0.999979C15.5323 -0.999979 14.1275 -1.00697 12.7172 -0.826596L12.9709 1.15724ZM62.7715 1.00562C66.6698 1.00562 70.0354 2.17571 72.7385 4.94592L74.1699 3.54918C71.0265 0.327646 67.1097 -0.994379 62.7715 -0.994379V1.00562ZM72.7389 4.94637C74.2594 6.50271 75.2932 8.34761 75.8702 10.4532L77.7991 9.92459C77.1362 7.50558 75.9369 5.35785 74.1695 3.54873L72.7389 4.94637ZM75.8706 10.4544C76.0944 11.2672 76.118 12.142 76.1208 13.1344L78.1208 13.1287C78.118 12.15 78.1023 11.0257 77.7988 9.92339L75.8706 10.4544ZM76.1208 13.1323C76.132 29.3199 76.0984 45.5168 76.1461 61.7096L78.1461 61.7038C78.0984 45.5131 78.132 29.3267 78.1208 13.1309L76.1208 13.1323ZM76.4399 62.4148L76.4427 62.4176L77.855 61.0014L77.8522 60.9986L76.4399 62.4148Z" fill="#A3A3A3" mask="url(#path-1-inside-1_392_1016)"/>
</svg>
