<svg width="35" height="35" viewBox="0 0 35 35" fill="none" xmlns="http://www.w3.org/2000/svg">
<rect x="0.864746" y="0.494629" width="34.0107" height="34.0107" rx="17.0054" fill="#8C3EEF"/>
<g clip-path="url(#clip0_2525_404)">
<path d="M15.3036 25.5001C14.881 25.4462 14.4565 25.3949 14.053 25.2585C12.0335 24.5755 10.7775 23.2609 10.4362 21.2629C9.96639 18.5181 12.078 16.0386 14.9041 15.6472C15.3962 15.5792 15.8869 15.5742 16.3799 15.6234C16.4951 15.6347 16.5445 15.6798 16.5441 15.7916C16.5414 16.5826 16.5405 17.3736 16.545 18.1651C16.5458 18.304 16.4893 18.3161 16.3621 18.2861C14.9228 17.9481 13.5515 18.7684 13.265 20.1352C12.9865 21.4636 14.0863 22.7782 15.5234 22.8779C16.8337 22.9688 18.0555 22.1006 18.2156 20.7969C18.2312 20.6684 18.2268 20.5369 18.2268 20.4072C18.2276 16.8784 18.2281 13.3497 18.229 9.82089C18.229 9.76374 18.2321 9.70616 18.229 9.649C18.2232 9.54178 18.277 9.50089 18.3891 9.50215C18.6779 9.50548 18.9662 9.50298 19.255 9.50298C19.788 9.50298 20.3205 9.50757 20.8536 9.50006C21.0057 9.49797 21.06 9.55054 21.0662 9.68697C21.1121 10.6924 21.5187 11.5557 22.2608 12.2766C22.9602 12.9562 23.8154 13.3534 24.8164 13.4686C24.9481 13.4836 25.0812 13.4961 25.2138 13.4973C25.3294 13.4986 25.3695 13.5462 25.369 13.6496C25.3673 14.4252 25.3655 15.2008 25.3704 15.976C25.3713 16.1174 25.2965 16.1395 25.1728 16.1345C24.505 16.107 23.8492 16.0131 23.2107 15.8229C22.4966 15.6101 21.8342 15.2993 21.2233 14.8921C21.1846 14.8662 21.1481 14.8099 21.0969 14.8328C21.0369 14.86 21.0649 14.9263 21.0649 14.9747C21.0662 16.8225 21.0729 18.6699 21.0716 20.5177C21.0698 22.8328 19.3871 24.8254 16.9872 25.3657C16.7065 25.4287 16.4199 25.455 16.1361 25.4996C15.8584 25.5001 15.5808 25.5001 15.3036 25.5001Z" fill="#F0F0F0"/>
</g>
<defs>
<clipPath id="clip0_2525_404">
<rect width="15" height="16" fill="white" transform="translate(10.3701 9.5)"/>
</clipPath>
</defs>
</svg>
