<svg width="49" height="50" viewBox="0 0 49 50" fill="none" xmlns="http://www.w3.org/2000/svg">
<path d="M16.9505 49.1668H19.3672V44.3335H16.9771C16.2327 44.319 9.7005 43.9154 9.7005 34.6668C9.7005 29.8504 8.09342 26.8223 6.07067 25.0002C8.09342 23.178 9.7005 20.1499 9.7005 15.3335C9.7005 6.08491 16.2327 5.68133 16.9505 5.66683H19.3672V0.833496H16.9457C12.7673 0.843163 4.86717 3.88816 4.86717 15.3335C4.86717 22.1002 0.812 22.5593 0 22.5835L0.0338335 27.4168C0.232 27.4168 4.86717 27.499 4.86717 34.6668C4.86717 46.1122 12.7673 49.1572 16.9505 49.1668ZM48.3672 22.5835C48.169 22.5835 43.5338 22.5013 43.5338 15.3335C43.5338 3.88816 35.6338 0.843163 31.4505 0.833496H29.0338V5.66683H31.4239C32.1683 5.68133 38.7005 6.08491 38.7005 15.3335C38.7005 20.1499 40.3076 23.178 42.3303 25.0002C40.3076 26.8223 38.7005 29.8504 38.7005 34.6668C38.7005 43.9154 32.1683 44.319 31.4505 44.3335H29.0338V49.1668H31.4553C35.6338 49.1572 43.5338 46.1122 43.5338 34.6668C43.5338 27.9002 47.589 27.441 48.401 27.4168L48.3672 22.5835Z" fill="#E4E4E4"/>
</svg>
