<svg width="35" height="35" viewBox="0 0 35 35" fill="none" xmlns="http://www.w3.org/2000/svg">
<rect x="0.83252" y="0.494629" width="34.0107" height="34.0107" rx="17.0054" fill="#8C3EEF"/>
<path d="M25.1236 9.5H10.5484C9.88052 9.5 9.33789 10.0179 9.33789 10.6536V24.3464C9.33789 24.9821 9.88052 25.5 10.5484 25.5H25.1236C25.7915 25.5 26.3379 24.9821 26.3379 24.3464V10.6536C26.3379 10.0179 25.7915 9.5 25.1236 9.5ZM14.4758 23.2143H11.9562V15.5786H14.4796V23.2143H14.4758ZM13.216 14.5357C12.4078 14.5357 11.7551 13.9179 11.7551 13.1607C11.7551 12.4036 12.4078 11.7857 13.216 11.7857C14.0205 11.7857 14.677 12.4036 14.677 13.1607C14.677 13.9214 14.0243 14.5357 13.216 14.5357ZM23.9207 23.2143H21.4011V19.5C21.4011 18.6143 21.3821 17.475 20.0919 17.475C18.779 17.475 18.5778 18.4393 18.5778 19.4357V23.2143H16.0582V15.5786H18.4754V16.6214H18.5095C18.8473 16.0214 19.6707 15.3893 20.8964 15.3893C23.4464 15.3893 23.9207 16.9714 23.9207 19.0286V23.2143Z" fill="#F0F0F0"/>
</svg>
