<svg width="803" height="108" viewBox="0 0 803 108" fill="none" xmlns="http://www.w3.org/2000/svg">
<path d="M192.073 54.1135C192.073 33.2504 204.878 16.4401 224.941 16.4401C233.355 16.4401 242.415 19.7561 247.639 26.7105V17.8679H266.685V90.3131H247.639V81.6086C242.554 88.563 233.401 91.7408 224.941 91.7408C204.878 91.7408 192.073 74.9305 192.073 54.0674V54.1135ZM247.177 54.1135C247.177 42.8299 239.919 34.4018 229.887 34.4018C219.856 34.4018 211.858 42.7838 211.858 54.1135C211.858 65.4431 219.44 73.8252 229.887 73.8252C240.335 73.8252 247.177 65.7195 247.177 54.1135Z" fill="white"/>
<path d="M294.746 17.9139V27.6316C298.953 21.0917 307.551 16.4862 316.288 16.4862C327.799 16.4862 334.918 21.276 338.709 29.3817C343.933 20.6772 353.965 16.4862 362.286 16.4862C382.811 16.4862 389.191 30.5331 389.191 49.0934V90.4052H369.682V51.5804C369.682 42.0009 367.371 34.9084 357.016 34.9084C347.4 34.9084 342.176 42.5996 342.176 52.1331V90.4052H322.668V51.5804C322.668 42.0009 320.495 34.9084 310.001 34.9084C300.108 34.9084 295.162 43.2904 295.162 52.87V90.4052H275.654V17.9139H294.746Z" fill="white"/>
<path d="M397.974 17.9139H416.465V26.6184C422.429 19.5258 431.027 16.4862 439.718 16.4862C459.781 16.4862 472.587 33.2964 472.587 54.0214C472.587 74.7463 459.504 91.8329 439.441 91.8329C430.981 91.8329 422.706 88.5169 417.482 82.1152V107.998H397.974V17.9139ZM452.662 54.1135C452.662 42.6457 445.266 34.4018 434.633 34.4018C424.74 34.4018 417.344 42.5075 417.344 54.1135C417.344 65.7195 424.602 73.8252 434.633 73.8252C445.266 73.8252 452.662 65.5813 452.662 54.1135Z" fill="white"/>
<path d="M477.025 54.1135C477.025 33.1122 494.175 16.4401 515.857 16.4401C537.538 16.4401 554.827 33.1122 554.827 54.1135C554.827 75.1148 537.676 91.7868 515.857 91.7868C494.037 91.7868 477.025 75.1148 477.025 54.1135ZM534.903 54.1135C534.903 42.8299 526.766 34.4018 515.857 34.4018C504.947 34.4018 496.81 42.7838 496.81 54.1135C496.81 65.4431 504.947 73.8252 515.857 73.8252C526.766 73.8252 534.903 65.5813 534.903 54.1135Z" fill="white"/>
<path d="M559.265 69.1736V4.88022L570.314 2.34717V17.9139H594.445V27.0329H570.314V69.496C570.314 79.2137 574.52 81.977 580.206 81.977C586.771 81.977 591.856 78.0623 591.856 78.0623L595.508 86.6286C592.734 88.5169 586.91 91.8329 579.236 91.8329C566.708 91.8329 559.311 85.7536 559.311 69.2197L559.265 69.1736Z" fill="white"/>
<path d="M598.79 55.1267C598.79 34.6781 614.184 18.3284 634.432 18.3284C653.34 18.3284 668.318 34.5399 668.318 54.7122C668.318 56.7386 668.04 58.9032 668.04 59.0414H610.301C612.058 73.0883 622.968 81.931 636.05 81.931C644.048 81.931 652.045 79.1676 657.87 74.3779L662.678 82.4836C655.097 88.4248 645.666 91.7408 635.912 91.7408C615.849 91.7408 598.837 77.4175 598.837 55.0806L598.79 55.1267ZM657.408 50.6593C656.252 37.6256 646.221 28.1843 633.831 28.1843C621.442 28.1843 611.873 37.4414 610.255 50.6593H657.408Z" fill="white"/>
<path d="M672.802 53.9293C673.588 33.3425 690.6 17.7757 711.403 18.5587C721.157 18.9271 729.894 22.7497 736.32 28.9212L729.062 36.4742C724.855 32.2371 718.568 29.5659 711.125 29.2896C696.286 28.7369 684.683 39.3297 684.128 54.3898C683.573 69.0354 693.882 80.7335 709.461 81.2862C717.459 81.6086 724.855 78.7992 729.987 74.1015L736.089 82.5757C729.016 88.8393 719.262 92.3856 708.675 91.9711C687.872 91.1881 672.062 74.516 672.848 53.9293H672.802Z" fill="white"/>
<path d="M740.758 4.46572L751.806 2.43928V31.7766C756.753 23.2103 765.767 18.2823 776.261 18.2823C793.736 18.2823 802.01 28.5527 802.01 47.5736V90.313H790.823V49.0013C790.823 35.9676 785.738 29.0133 772.933 29.0133C760.127 29.0133 751.853 39.2836 751.853 50.4751V90.313H740.804V4.46572H740.758Z" fill="white"/>
<path d="M183.012 67.2853C183.012 67.2853 182.734 67.7459 182.549 67.9301C178.759 71.5224 172.795 73.8713 166.693 73.8713C154.35 73.8713 146.63 65.4431 146.63 54.1595C146.63 42.876 154.766 34.4478 166.138 34.4478C171.917 34.4478 176.586 36.3361 179.914 39.3757C180.515 39.9745 181.625 41.1719 182.642 42.8299C183.89 35.9676 186.34 29.658 189.761 24.2696C182.919 19.2495 174.829 16.4862 165.676 16.4862C143.995 16.4862 126.844 33.1122 126.844 54.1595C126.844 75.2069 143.995 91.8329 165.676 91.8329C174.829 91.8329 183.382 89.1617 190.085 84.5101C186.756 79.49 184.399 73.641 183.012 67.2853Z" fill="white"/>
<path d="M108.353 43.3827C102.898 16.256 77.8419 -2.028 50.8445 0.182664C48.7642 0.366886 46.6839 0.643219 44.5574 1.05772C43.7253 1.24194 42.9394 1.42616 42.1535 1.61038C14.1853 8.5187 -3.70509 36.2441 2.07346 64.6603C7.52842 91.7869 32.538 110.025 59.5354 107.814C61.6619 107.676 63.7422 107.354 65.8687 106.939C66.6546 106.801 67.4405 106.617 68.2726 106.433C96.2408 99.5242 114.039 71.7989 108.306 43.3827H108.353ZM83.528 87.5498C79.2287 91.1882 74.1898 93.9976 68.5037 95.7937C66.8395 96.3004 65.1753 96.7149 63.511 97.0372H63.4648C62.8638 97.2215 62.2629 97.3596 61.6157 97.4057C61.3845 97.4057 61.1996 97.4057 61.0147 97.4057C54.0342 97.8202 47.9321 92.7541 47.1924 85.7997C46.7764 81.9771 48.0245 78.3387 50.4284 75.7136C50.7058 75.3912 50.9831 75.0688 51.3067 74.7925H51.353L54.4503 71.7068L64.7592 61.3903L72.5718 53.653L76.4088 49.8304C77.8419 47.5737 78.5353 44.8104 78.2117 41.9549C77.9805 39.6061 77.1022 37.5336 75.7616 35.7835L58.5184 53.0083L54.1267 57.3375L43.1705 68.2526C41.1827 70.279 39.6109 72.72 38.5015 75.3451C37.0222 78.8914 36.4212 82.8061 36.8372 86.859C36.9297 87.5498 37.0222 88.2407 37.1608 88.8854C37.5769 90.9579 38.2241 92.9383 39.1487 94.7805C27.2217 90.1289 17.4213 80.3652 13.2607 67.2394C7.71333 49.7844 13.6306 31.5004 26.8519 20.401C31.1511 16.8087 36.19 13.9993 41.8761 12.2031C43.4941 11.6965 45.1121 11.236 46.7301 10.9596C46.7764 10.9136 46.8226 10.9136 46.8688 10.9136C47.4698 10.7294 48.117 10.6372 48.7642 10.5451C48.9491 10.5451 49.134 10.4991 49.3189 10.4991H49.4576C56.3919 10.1306 62.4478 15.2428 63.1874 22.1511C63.6035 25.9277 62.3553 29.52 59.9977 32.1912H59.9515C59.6741 32.5596 59.3967 32.836 59.1193 33.1123C59.0269 33.2044 58.8882 33.2965 58.7957 33.3886L34.6183 57.4756C32.8616 59.8245 31.937 62.8641 32.3069 66.0419C32.538 68.2987 33.4163 70.3712 34.7107 72.0291L67.1169 39.7443C69.1509 37.6718 70.7689 35.1848 71.8784 32.5136C73.3577 29.0134 73.9587 25.0987 73.5426 21.0458C73.4501 20.3549 73.3577 19.6641 73.219 19.0193C72.803 16.9468 72.1095 14.9665 71.2312 13.1703C83.1581 17.8219 92.9123 27.5857 97.1191 40.7114C102.667 58.1204 96.7493 76.4505 83.528 87.5038V87.5498Z" fill="white"/>
</svg>
