<svg width="261" height="314" viewBox="0 0 261 314" fill="none" xmlns="http://www.w3.org/2000/svg">
<g clip-path="url(#clip0_2815_4463)">
<path d="M106.764 43.4182C111.868 38.3088 117.973 35.7663 125.079 35.7663V123.85C114.554 123.85 106.837 119.156 101.88 109.768C90.6467 119.156 77.5576 123.85 62.6127 123.85C45.4943 123.85 30.7935 117.836 18.4615 105.808C6.15382 93.7795 0 79.209 0 62.0715C0 44.934 6.15382 30.3145 18.4859 18.1887C30.7935 6.06291 45.5187 0 62.6127 0H99.096C99.096 6.82077 96.7028 12.6148 91.9165 17.4064C87.1302 22.1981 81.3183 24.5939 74.5296 24.5939H62.6127C52.4051 24.5939 43.7605 28.2854 36.6299 35.6685C29.5237 43.0515 25.9584 51.8525 25.9584 62.0715C25.9584 72.2904 29.5237 81.0425 36.6299 88.3033C43.7361 95.5642 52.4051 99.2068 62.6127 99.2068C72.8202 99.2068 81.4404 95.5397 88.5222 88.2055C95.5795 80.8714 99.1204 72.0459 99.1204 61.7292C99.1204 54.6151 101.66 48.5033 106.764 43.3938V43.4182Z" fill="white"/>
<path d="M198.363 0C215.481 0 230.182 6.06291 242.514 18.1887C254.821 30.3145 261 44.934 261 62.0715C261 79.209 254.846 93.7795 242.514 105.808C230.182 117.836 215.481 123.85 198.363 123.85C181.244 123.85 166.568 117.836 154.285 105.808C142.026 93.7795 135.872 79.209 135.872 62.0715C135.872 44.934 142.001 30.3145 154.285 18.1887C166.543 6.06291 181.244 0 198.363 0ZM198.363 24.6183C188.155 24.6183 179.535 28.3099 172.453 35.6929C165.396 43.076 161.855 51.877 161.855 62.0959C161.855 72.3149 165.396 81.067 172.453 88.3278C179.51 95.613 188.155 99.2312 198.363 99.2312C208.57 99.2312 217.239 95.5886 224.345 88.3278C231.452 81.067 235.017 72.3149 235.017 62.0959C235.017 51.877 231.452 43.076 224.345 35.6929C217.239 28.3099 208.57 24.6183 198.363 24.6183Z" fill="white"/>
<path d="M62.4661 134.998C79.5845 134.998 94.2853 141.06 106.617 153.186C118.925 165.312 125.103 179.932 125.103 197.069C125.103 214.207 118.949 228.777 106.617 240.805C94.2853 252.833 79.5845 258.847 62.4661 258.847C45.3478 258.847 30.6714 252.833 18.3882 240.805C6.1294 228.777 -0.0244141 214.207 -0.0244141 197.069C-0.0244141 179.932 6.10498 165.312 18.3882 153.186C30.647 141.06 45.3478 134.998 62.4661 134.998ZM62.4661 159.616C52.2586 159.616 43.614 163.307 36.5566 170.69C29.4993 178.074 25.9584 186.875 25.9584 197.093C25.9584 207.312 29.4993 216.065 36.5566 223.325C43.614 230.611 52.2586 234.229 62.4661 234.229C72.6737 234.229 81.3183 230.586 88.4489 223.325C95.5795 216.065 99.1204 207.312 99.1204 197.093C99.1204 186.875 95.5551 178.074 88.4489 170.69C81.3427 163.307 72.6737 159.616 62.4661 159.616Z" fill="white"/>
<path d="M153.626 153.186C165.933 141.06 180.658 134.998 197.777 134.998C214.895 134.998 229.62 141.06 242.001 153.186C254.382 165.312 260.56 179.932 260.56 197.069C260.56 214.207 254.406 228.777 242.074 240.805C229.742 252.833 214.993 258.847 197.777 258.847H135.164V197.093C135.164 179.956 141.318 165.337 153.65 153.211L153.626 153.186ZM197.777 234.229C207.984 234.229 216.604 230.586 223.686 223.325C230.744 216.04 234.284 207.312 234.284 197.093C234.284 186.875 230.744 178.074 223.686 170.69C216.629 163.307 207.984 159.616 197.777 159.616C187.569 159.616 178.949 163.307 171.867 170.69C164.81 178.074 161.269 186.875 161.269 197.093V234.253H197.752L197.777 234.229Z" fill="white"/>
<path d="M34.1142 298.036C32.9176 299.552 31.5745 300.725 30.1094 301.581C28.6442 302.412 27.008 302.828 25.1765 302.828C23.7358 302.828 22.4415 302.583 21.2693 302.119C20.0972 301.654 19.096 300.97 18.2657 300.065C17.4354 299.161 16.7761 298.085 16.3121 296.814C15.8481 295.542 15.6039 294.124 15.6039 292.584C15.6039 291.044 15.8481 289.602 16.3121 288.355C16.7761 287.084 17.4354 286.008 18.2657 285.103C19.096 284.199 20.0972 283.514 21.2693 283.05C22.4415 282.585 23.7358 282.341 25.1765 282.341C27.008 282.341 28.6442 282.756 30.1094 283.588C31.5745 284.419 32.8932 285.617 34.1142 287.132L42.8077 279.358C40.7809 276.718 38.2168 274.689 35.1154 273.271C32.0141 271.877 28.4732 271.168 24.4439 271.168C21.1717 271.168 18.1436 271.682 15.3597 272.709C12.5759 273.735 10.1583 275.202 8.10701 277.134C6.05574 279.04 4.46845 281.314 3.34513 283.905C2.22181 286.521 1.66016 289.406 1.66016 292.56C1.66016 295.713 2.22181 298.598 3.34513 301.214C4.46845 303.83 6.05574 306.079 8.10701 308.01C10.1583 309.917 12.5759 311.384 15.3597 312.435C18.1436 313.462 21.1717 313.976 24.4439 313.976C28.4488 313.976 32.0141 313.267 35.1154 311.849C38.2168 310.431 40.7809 308.402 42.8077 305.786L34.1142 298.012V298.036Z" fill="white"/>
<path d="M59.6576 272.122L41.7822 313.071H55.7993L58.5343 305.933H74.0898L76.8248 313.071H91.086L73.2106 272.122H59.6576ZM62.3438 295.983L66.2998 285.666L70.2558 295.983H62.3438Z" fill="white"/>
<path d="M120.17 290.751L104.614 272.122H93.2832V313.071H106.739V294.442L122.27 313.071H133.6V272.122H120.17V290.751Z" fill="white"/>
<path d="M172.453 274.616C168.985 272.953 164.981 272.122 160.414 272.122H140.268V313.071H160.414C164.981 313.071 168.985 312.24 172.453 310.578C175.921 308.915 178.631 306.568 180.585 303.512C182.538 300.456 183.515 296.789 183.515 292.536C183.515 288.282 182.538 284.688 180.585 281.656C178.631 278.625 175.921 276.254 172.453 274.616ZM168.35 297.889C167.545 299.356 166.397 300.456 164.932 301.19C163.466 301.923 161.757 302.29 159.828 302.29H154.04V282.879H159.828C161.782 282.879 163.491 283.246 164.932 283.979C166.397 284.712 167.52 285.813 168.35 287.255C169.156 288.697 169.571 290.457 169.571 292.511C169.571 294.565 169.156 296.398 168.35 297.865V297.889Z" fill="white"/>
<path d="M202.294 272.122H188.521V313.071H220.756V302.363H202.294V272.122Z" fill="white"/>
<path d="M238.118 302.657V297.278H255.408V287.328H238.118V282.537H257.801V272.122H224.565V313.071H258.558V302.657H238.118Z" fill="white"/>
</g>
<defs>
<clipPath id="clip0_2815_4463">
<rect width="261" height="314" fill="white"/>
</clipPath>
</defs>
</svg>
