<svg width="47" height="48" viewBox="0 0 47 48" fill="none" xmlns="http://www.w3.org/2000/svg">
<path d="M23.4994 47.4988C36.4778 47.4988 46.9988 36.9778 46.9988 23.9994C46.9988 11.021 36.4778 0.5 23.4994 0.5C10.521 0.5 0 11.021 0 23.9994C0 36.9778 10.521 47.4988 23.4994 47.4988Z" fill="#141414"/>
<path d="M10.1626 23.8974C10.1626 21.4711 10.1626 19.0447 10.1626 16.6183C10.1626 15.9408 10.3232 15.7838 11.0101 15.7838C13.2196 15.7838 15.4291 15.7802 17.6386 15.7838C21.0895 15.7896 23.2556 19.3108 21.6896 22.3783C21.5642 22.6233 21.6064 22.7382 21.8033 22.9163C23.4209 24.3768 24.0351 26.1855 23.4197 28.2848C22.8125 30.3525 21.3462 31.5458 19.2339 31.9502C18.955 32.0041 18.6748 32.0099 18.3935 32.0099C15.9238 32.0099 13.454 32.0099 10.9843 32.0099C10.3337 32.0099 10.1626 31.8365 10.1626 31.1765C10.1626 28.7502 10.1626 26.3238 10.1626 23.8974ZM16.0703 28.9811C16.8603 28.9811 17.6492 28.9846 18.4392 28.9811C19.6583 28.974 20.5913 28.0809 20.6136 26.9052C20.6358 25.7448 19.6665 24.8 18.4357 24.7965C16.8345 24.7918 15.2345 24.8012 13.6334 24.7894C13.345 24.7871 13.2313 24.8621 13.236 25.1692C13.2512 26.3156 13.2512 27.462 13.236 28.6083C13.2325 28.919 13.3509 28.9928 13.6369 28.9869C14.448 28.9717 15.2591 28.9823 16.0703 28.9811ZM15.7069 18.856C15.0036 18.856 14.3003 18.8642 13.597 18.8525C13.3298 18.8478 13.2337 18.9474 13.2383 19.2135C13.2501 19.9273 13.2524 20.6424 13.2383 21.3562C13.2325 21.6328 13.3415 21.7055 13.6017 21.7032C14.9438 21.6926 16.286 21.7032 17.6281 21.6961C18.4791 21.6914 19.112 21.062 19.105 20.2509C19.098 19.4702 18.4814 18.8701 17.6562 18.8583C17.0068 18.849 16.3575 18.856 15.7081 18.856H15.7069Z" fill="#F0F0F0"/>
<path d="M31.987 26.6028C30.6554 26.6028 29.3239 26.6028 27.9923 26.6028C27.6184 26.6028 27.6078 26.6204 27.7239 26.9603C28.3533 28.7959 30.3964 29.6773 32.0327 28.8182C32.1288 28.7677 32.2367 28.7244 32.307 28.647C32.6481 28.2719 33.0783 28.2379 33.5495 28.2543C34.2844 28.2801 35.0217 28.259 35.7578 28.2626C36.2009 28.2649 36.2994 28.4384 36.0896 28.8299C35.0604 30.7475 33.4756 31.9056 31.3142 32.1682C29.3942 32.4014 27.7145 31.7849 26.3431 30.4252C24.0585 28.1606 23.7702 24.5163 25.7124 21.9645C27.2632 19.9262 29.3543 19.0306 31.8839 19.5839C34.4356 20.1418 35.9759 21.8368 36.6487 24.337C36.7753 24.8094 36.8034 25.297 36.8339 25.7834C36.869 26.3297 36.6264 26.5946 36.079 26.5993C35.1694 26.6075 34.2598 26.6016 33.3514 26.6016C32.8966 26.6016 32.4418 26.6016 31.987 26.6016V26.6028ZM28.0568 23.9713C28.1974 23.9713 28.2935 23.9713 28.3885 23.9713C29.9123 23.9713 31.4373 23.9713 32.9611 23.9701C33.2377 23.9701 33.0982 23.8318 33.0291 23.731C31.8581 22.0278 29.1351 22.1322 28.0568 23.9725V23.9713Z" fill="#F0F0F0"/>
<path d="M30.4339 16.3898C31.2661 16.3898 32.0995 16.3863 32.9318 16.3909C33.5026 16.3945 33.6585 16.5586 33.6608 17.1317C33.662 17.4881 33.6667 17.8456 33.6585 18.2019C33.6515 18.5547 33.5096 18.713 33.1627 18.7669C33.056 18.7833 32.947 18.788 32.8392 18.7892C31.2274 18.7903 29.6169 18.7903 28.0052 18.7892C27.8868 18.7892 27.7684 18.7751 27.65 18.7587C27.3605 18.7177 27.2046 18.5407 27.1987 18.2547C27.1882 17.8116 27.1835 17.3673 27.1987 16.9243C27.2116 16.5632 27.4097 16.3991 27.8364 16.3933C28.528 16.3827 29.2207 16.3898 29.9123 16.3886C30.0858 16.3886 30.2581 16.3886 30.4316 16.3886L30.4339 16.3898Z" fill="#F0F0F0"/>
</svg>
