<svg width="57" height="57" viewBox="0 0 57 57" fill="none" xmlns="http://www.w3.org/2000/svg">
<g clip-path="url(#clip0_2922_1577)">
<path d="M28.4363 56.8725C44.1412 56.8725 56.8725 44.1412 56.8725 28.4363C56.8725 12.7314 44.1412 0 28.4363 0C12.7314 0 0 12.7314 0 28.4363C0 44.1412 12.7314 56.8725 28.4363 56.8725Z" fill="#8C3EEF"/>
<path d="M38.7806 29.8757C38.2629 32.7835 36.5409 34.5933 33.697 35.355C33.0389 35.5309 32.3694 35.6274 31.6985 35.7281C31.5013 35.7579 31.436 35.8004 31.5949 35.9763C32.2559 36.711 32.514 37.6004 32.5225 38.5635C32.5367 40.0727 32.5225 41.5804 32.5254 43.0896C32.5254 43.2499 32.5325 43.413 32.5623 43.5705C32.6474 44.03 32.9438 44.2938 33.3708 44.2995C31.8133 44.7846 30.1581 45.0442 28.4418 45.0442C26.7255 45.0442 25.0674 44.7832 23.5086 44.2981C24.0022 44.3151 24.3483 44.0173 24.378 43.4641C24.4263 42.5832 24.388 41.6982 24.3837 40.8145C24.3837 40.6315 24.2858 40.5677 24.1085 40.6088C23.7511 40.6911 23.3852 40.7223 23.0192 40.7407C21.771 40.8074 20.6207 40.5592 19.6718 39.6755C19.2278 39.2613 18.947 38.7464 18.7129 38.1947C18.3172 37.2557 17.7796 36.4245 16.8874 35.8699C16.7342 35.7749 16.5938 35.6486 16.4733 35.5125C16.252 35.2643 16.3116 35.0884 16.6406 35.016C16.9966 34.938 17.347 34.9891 17.6888 35.1111C18.4264 35.3763 18.9938 35.8543 19.425 36.4983C19.6533 36.8387 19.8661 37.1905 20.1483 37.4897C21.3228 38.7351 22.9483 38.667 24.2745 38.1082C24.4277 38.0443 24.4518 37.9082 24.4802 37.7677C24.6036 37.1337 24.8319 36.5479 25.256 36.0501C25.4716 35.7976 25.4603 35.7735 25.1156 35.721C24.3284 35.599 23.544 35.4699 22.7823 35.2217C20.9072 34.6104 19.4718 33.4927 18.6704 31.6516C18.2278 30.6317 18.0605 29.5523 17.9697 28.4502C17.8151 26.5652 18.2094 24.8531 19.4434 23.3808C19.5796 23.2191 19.6264 23.0688 19.5569 22.8532C19.1356 21.5482 19.2831 20.2617 19.7143 18.988C19.7711 18.8178 19.8689 18.7511 20.0448 18.7469C20.381 18.7398 20.71 18.7809 21.0349 18.8646C22.1128 19.1455 23.0731 19.6759 23.9951 20.2802C24.1965 20.4121 24.3837 20.4646 24.6291 20.4022C27.1851 19.7568 29.7439 19.7568 32.2999 20.4036C32.5155 20.4575 32.6928 20.4362 32.8786 20.3128C33.4091 19.9625 33.9537 19.632 34.5324 19.3667C35.2601 19.0334 35.9991 18.7384 36.8203 18.7483C36.9905 18.7497 37.1295 18.7625 37.199 18.9653C37.6146 20.1823 37.7891 21.4192 37.4146 22.673C37.3068 23.0347 37.3721 23.2645 37.6033 23.5397C38.1933 24.2446 38.5749 25.0602 38.7905 25.9538C39.1068 27.2602 39.0132 28.5694 38.782 29.8672L38.7806 29.8757Z" fill="#8C3EEF"/>
<path d="M45.0133 27.1517V29.868C44.8728 30.6737 44.7948 31.4878 44.6048 32.285C44.0516 34.6026 43.0644 36.7132 41.6105 38.6026C39.6205 41.1883 37.0915 43.0422 34.022 44.1542C33.8702 44.2095 33.7156 44.2663 33.5582 44.2904C33.493 44.3003 33.4291 44.3046 33.3681 44.3031C32.9412 44.2975 32.6447 44.0322 32.5596 43.5741C32.5313 43.4166 32.5228 43.2535 32.5228 43.0932C32.5213 41.5841 32.5341 40.0763 32.5199 38.5671C32.5114 37.604 32.2533 36.7147 31.5923 35.9799C31.4334 35.804 31.5001 35.7615 31.6958 35.7317C32.3667 35.631 33.0376 35.5345 33.6944 35.3587C36.5397 34.5956 38.2602 32.7871 38.7779 29.8793C39.0091 28.5815 39.1028 27.2723 38.7865 25.966C38.5709 25.0709 38.1879 24.2554 37.5992 23.5518C37.368 23.2766 37.3028 23.0469 37.4106 22.6852C37.7851 21.4313 37.6106 20.1944 37.195 18.9775C37.1255 18.7746 36.9851 18.7619 36.8163 18.7604C35.995 18.7519 35.256 19.0455 34.5284 19.3789C33.9497 19.6441 33.405 19.9746 32.8745 20.3249C32.6887 20.4483 32.5114 20.471 32.2958 20.4157C29.7398 19.7689 27.1824 19.7689 24.6251 20.4143C24.3797 20.4767 24.191 20.4228 23.991 20.2923C23.0676 19.6881 22.1088 19.159 21.0308 18.8767C20.7046 18.7931 20.3769 18.7519 20.0408 18.759C19.8649 18.7619 19.7684 18.8299 19.7103 19.0001C19.2791 20.2739 19.1316 21.5604 19.5528 22.8653C19.6223 23.0809 19.5755 23.2313 19.4394 23.393C18.2053 24.8653 17.811 26.5773 17.9656 28.4624C18.0564 29.5659 18.2224 30.6453 18.6663 31.6637C19.4677 33.5048 20.9032 34.6211 22.7783 35.2338C23.54 35.4821 24.3244 35.6111 25.1116 35.7331C25.4562 35.7856 25.4676 35.8097 25.252 36.0622C24.8265 36.5601 24.5995 37.1459 24.4761 37.7799C24.4478 37.9203 24.4251 38.0551 24.2705 38.1203C22.9442 38.6792 21.3202 38.7472 20.1443 37.5019C19.862 37.2026 19.6493 36.8508 19.4209 36.5104C18.9897 35.8664 18.4224 35.3884 17.6848 35.1232C17.3429 35.0012 16.9926 34.9502 16.6366 35.0282C16.3075 35.1005 16.2479 35.2764 16.4692 35.5246C16.5898 35.6608 16.7302 35.787 16.8834 35.8821C17.777 36.4367 18.3131 37.2678 18.7089 38.2068C18.9415 38.7586 19.2238 39.2735 19.6677 39.6876C20.6152 40.5713 21.767 40.8195 23.0152 40.7529C23.3811 40.7344 23.7456 40.7032 24.1045 40.621C24.2818 40.5798 24.3797 40.6422 24.3797 40.8266C24.3839 41.7103 24.4222 42.5954 24.374 43.4762C24.3428 44.0294 23.9967 44.3258 23.5045 44.3102C23.3655 44.306 23.2152 44.2776 23.0577 44.2209C21.2209 43.5755 19.5372 42.6535 18.0323 41.4153C15.4167 39.265 13.5955 36.631 12.6409 33.5204C12.1331 31.9304 11.8594 30.2354 11.8594 28.4751C11.8594 28.3177 11.8622 28.1602 11.8665 28.0042C11.926 24.3206 13.1842 20.9292 15.6536 17.9066C18.4607 14.4683 22.1116 12.4315 26.5413 11.9507C32.1625 11.3393 36.9241 13.1776 40.7538 17.3165C43.1098 19.8625 44.4658 22.915 44.9083 26.3631C44.9423 26.6298 44.9778 26.895 45.0119 27.1617L45.0133 27.1517Z" fill="#F0F0F0"/>
</g>
<defs>
<clipPath id="clip0_2922_1577">
<rect width="56.874" height="56.874" fill="white"/>
</clipPath>
</defs>
</svg>
