<svg width="47" height="47" viewBox="0 0 47 47" fill="none" xmlns="http://www.w3.org/2000/svg">
<path d="M23.4994 40.6954C32.9943 40.6954 40.6914 32.9964 40.6914 23.4991C40.6914 14.0019 32.9943 6.30285 23.4994 6.30285C14.0045 6.30285 6.30736 14.0019 6.30736 23.4991C6.30736 32.9964 14.0045 40.6954 23.4994 40.6954Z" fill="white"/>
<path d="M25.52 0L28.5469 0.503246C47.3649 4.61513 53.613 28.865 38.6769 41.4544C25.0844 52.9083 4.30101 45.6563 0.531695 28.5255L0.0285743 25.4978C0.0960662 24.1783 -0.0614148 22.7709 0.0285743 21.4616C0.791437 10.4147 10.4407 0.763052 21.4848 0H25.52ZM26.2543 30.3584C26.3422 30.6714 26.6142 30.876 26.7574 31.1828C27.5693 32.9299 26.9619 35.2109 27.0785 37.005C27.1828 38.5945 28.9703 37.5696 29.7986 37.1604C41.5381 31.3936 40.1596 13.3094 27.555 9.65373C14.0894 5.75051 3.87765 21.4534 11.8744 32.5883C13.2263 34.4703 16.5866 37.4223 18.8936 37.858C20.5788 38.1751 19.6155 35.6834 19.8344 34.7608C18.5561 34.9245 17.2247 34.994 16.1366 34.1941C14.9463 33.3206 14.9259 31.8845 13.9196 30.9087C13.6537 30.651 12.0789 29.7386 13.2774 29.624C15.7787 29.3847 15.6662 32.6783 18.2289 32.7478C18.4947 32.756 19.7914 32.5146 19.908 32.355C20.0982 32.0952 20.1207 30.7573 20.7506 30.4934C20.7506 30.3441 19.7566 30.2664 19.5583 30.2214C17.0508 29.6526 15.294 28.3945 14.5864 25.8394C14.0301 23.8285 14.073 21.8053 15.0874 19.9641C15.1958 19.7678 15.6744 19.195 15.6969 19.1029C15.7337 18.9474 15.4719 18.1128 15.4494 17.8264C15.4106 17.362 15.5783 15.5454 15.8483 15.2222C16.2368 14.7578 18.0775 15.574 18.5561 15.8175C18.8711 15.977 19.6319 16.558 19.8916 16.5989C20.2352 16.6521 21.4235 16.2921 21.9041 16.2348C22.9901 16.1059 24.1088 16.108 25.1928 16.245C25.698 16.3084 26.6306 16.6255 27.0376 16.6071C27.3873 16.5908 28.0847 16.0118 28.457 15.8195C28.9887 15.5433 30.6065 14.8355 31.1219 15.1751C31.3959 15.3572 31.6004 17.3477 31.5759 17.7466C31.5554 18.0534 31.2793 18.9454 31.3182 19.1049C31.3407 19.197 31.8193 19.7698 31.9277 19.9662C32.9421 21.8094 32.983 23.8326 32.4308 25.8435C31.625 28.7791 29.1748 30.1784 26.2624 30.3584H26.2543Z" fill="#141414"/>
</svg>
