<svg width="58" height="57" viewBox="0 0 58 57" fill="none" xmlns="http://www.w3.org/2000/svg">
<path d="M29.3723 56.9986C45.1121 56.9986 57.8716 44.239 57.8716 28.4993C57.8716 12.7596 45.1121 0 29.3723 0C13.6326 0 0.873047 12.7596 0.873047 28.4993C0.873047 44.239 13.6326 56.9986 29.3723 56.9986Z" fill="#8C3EEF"/>
<path d="M22.4551 13.6355C27.058 13.6355 31.661 13.6355 36.2626 13.6355C36.3479 13.654 36.4318 13.6768 36.5171 13.6881C37.3842 13.8061 38.2314 14.0179 39.0147 14.4074C42.3966 16.0934 44.1863 18.8199 44.2205 22.6141C44.256 26.529 44.2276 30.444 44.2276 34.3589C44.2276 34.7655 44.2176 35.1692 44.1664 35.5744C43.6106 39.9741 39.9004 43.3133 35.4694 43.3446C31.3995 43.373 27.3296 43.3687 23.2597 43.3446C19.5423 43.3232 16.267 40.9677 15.0047 37.4721C14.7602 36.7941 14.6422 36.0918 14.5057 35.391C14.5057 30.788 14.5057 26.185 14.5057 21.5834C14.5512 21.3276 14.5853 21.0688 14.6422 20.8158C15.3615 17.5818 17.2593 15.3542 20.3483 14.1445C21.0278 13.8786 21.7429 13.7692 22.4536 13.6355H22.4551ZM17.5308 28.478H17.5294C17.5294 30.4113 17.5294 32.346 17.5294 34.2793C17.5294 34.6461 17.5379 35.0114 17.5919 35.3782C17.99 38.1275 20.3981 40.2911 23.1744 40.3096C27.3026 40.3366 31.4322 40.3209 35.5604 40.3124C36.5284 40.311 37.4396 40.0451 38.2641 39.5462C40.169 38.3947 41.1712 36.696 41.1812 34.4641C41.1997 30.4809 41.1854 26.4963 41.1854 22.5131C41.1854 22.2032 41.167 21.8962 41.1215 21.5891C40.7277 18.8612 38.3111 16.689 35.5561 16.672C31.408 16.645 27.2599 16.6634 23.1118 16.6691C22.3669 16.6691 21.649 16.844 20.9809 17.1667C18.7448 18.2513 17.5734 20.0439 17.5351 22.533C17.5052 24.5147 17.5294 26.4977 17.5294 28.4794L17.5308 28.478Z" fill="#F0F0F0"/>
<path d="M21.6434 28.4453C21.7429 23.9859 25.2797 20.7376 29.4136 20.7845C33.8502 20.8357 37.0999 24.3896 37.0615 28.5263C37.0203 32.9814 33.4437 36.234 29.3041 36.187C24.8603 36.1359 21.6661 32.5763 21.6434 28.4453ZM34.0208 28.5249C34.089 25.9988 31.9994 23.8807 29.388 23.8252C26.8633 23.7712 24.7893 25.8111 24.6968 28.4367C24.6087 30.9486 26.6856 33.0682 29.3141 33.1492C31.833 33.2274 33.9497 31.1462 34.0208 28.5235V28.5249Z" fill="#F0F0F0"/>
<path d="M35.2021 20.8556C35.205 19.8193 36.028 19.0076 37.0729 19.0118C38.0936 19.0175 38.9181 19.8392 38.9223 20.857C38.9266 21.8791 38.085 22.7193 37.0558 22.7221C36.0252 22.7235 35.2007 21.8919 35.2021 20.8556Z" fill="#F0F0F0"/>
</svg>
