<svg width="57" height="57" viewBox="0 0 57 57" fill="none" xmlns="http://www.w3.org/2000/svg">
<path d="M48.3548 29.9412C48.3548 42.0256 38.5611 51.8219 26.4801 51.8219C14.3991 51.8219 4.60547 42.0256 4.60547 29.9412C4.60547 17.8569 14.3991 8.06055 26.4801 8.06055C38.5611 8.06055 48.3548 17.8569 48.3548 29.9412Z" fill="#F0F0F0"/>
<path d="M33.5947 0.403282C32.7054 0.241683 31.8047 0.132997 30.9097 0H26.1274C24.5691 0.203071 23.005 0.37611 21.4881 0.809423C10.4553 3.95416 3.50844 11.0917 0.634779 22.1962C0.300233 23.4876 0.177281 24.8175 0 26.1361V30.8067C0.22732 32.7016 0.481803 34.595 1.07226 36.4155C4.6479 47.4457 12.0737 54.3544 23.4668 56.5066C38.8416 59.4125 53.5473 49.176 56.4868 33.8399C59.4676 18.2907 49.1482 3.21338 33.5947 0.403282ZM20.0999 33.418C20.0999 36.4569 20.0999 39.4959 20.0999 42.5348C20.0999 43.3485 20.0827 43.3642 19.2492 43.3656C17.7295 43.3656 16.2112 43.3556 14.6928 43.3714C14.2196 43.3771 14.0381 43.2112 14.0381 42.7235C14.0495 36.517 14.0495 30.3105 14.0395 24.1025C14.0381 23.632 14.2253 23.4947 14.67 23.5005C16.2626 23.5162 17.8553 23.5233 19.448 23.4976C19.977 23.489 20.1099 23.7035 20.1071 24.1912C20.0928 27.2673 20.0999 30.3434 20.0999 33.418ZM17.0275 20.6474C15.1032 20.636 13.4748 18.9928 13.4991 17.0851C13.5234 15.1231 15.0932 13.5814 17.0647 13.5814C19.0377 13.5829 20.6275 15.1517 20.6175 17.0908C20.6089 19.0529 18.9876 20.6575 17.0275 20.6474ZM42.6131 43.3642C41.0762 43.3685 39.5379 43.3685 38.001 43.3642C37.3261 43.3628 37.289 43.3213 37.289 42.6249C37.289 39.4 37.2847 36.1752 37.289 32.9504C37.289 32.2253 37.2375 31.5074 37.0674 30.801C36.7042 29.2951 35.8907 28.5458 34.4167 28.3584C32.917 28.1697 31.5159 28.8246 30.8683 30.0302C30.365 30.9697 30.2135 31.9937 30.2092 33.0391C30.1978 36.2081 30.2049 39.3772 30.202 42.5462C30.202 43.3428 30.1835 43.3642 29.4014 43.3656C27.956 43.3685 26.5106 43.3656 25.0666 43.3656C24.4623 43.3656 24.1597 43.071 24.1588 42.4819C24.1588 39.4615 24.1588 36.4412 24.1588 33.4209C24.1588 30.4006 24.1588 27.3059 24.1588 24.2484C24.1602 23.5248 24.1788 23.5076 24.9179 23.5062C26.3991 23.5047 27.8817 23.5176 29.3642 23.5005C29.8146 23.4947 30.0076 23.6449 29.9862 24.1111C29.9604 24.6645 29.9776 25.2223 29.9847 25.7786C29.9876 25.8958 29.9375 26.066 30.1091 26.1061C30.2349 26.1361 30.2935 26.0017 30.3493 25.9116C32.3709 22.7068 36.6313 22.5151 39.4678 23.6077C41.3579 24.3356 42.3629 25.8401 42.869 27.7263C43.1535 28.7846 43.3208 29.8672 43.3251 30.9626C43.3423 34.8553 43.3465 38.7465 43.3508 42.6377C43.3508 43.3099 43.2965 43.3628 42.6131 43.3642Z" fill="#8C3EEF"/>
</svg>
