<svg width="57" height="57" viewBox="0 0 57 57" fill="none" xmlns="http://www.w3.org/2000/svg">
<path d="M28.5006 57.0011C44.241 57.0011 57.0011 44.241 57.0011 28.5006C57.0011 12.7601 44.241 0 28.5006 0C12.7601 0 0 12.7601 0 28.5006C0 44.241 12.7601 57.0011 28.5006 57.0011Z" fill="#8C3EEF"/>
<path d="M23.7462 44.3013C22.9626 44.1945 22.1768 44.0935 21.4295 43.8243C17.6888 42.4752 15.3631 39.8792 14.7305 35.9329C13.8618 30.5115 17.7728 25.6147 23.0058 24.8414C23.9165 24.7074 24.8262 24.6971 25.7392 24.7937C25.9527 24.8164 26.0447 24.905 26.0435 25.1264C26.039 26.689 26.0367 28.2516 26.0447 29.8142C26.0458 30.0891 25.9425 30.1129 25.7063 30.0539C23.041 29.3861 20.5006 31.0066 19.9703 33.706C19.4547 36.3293 21.492 38.9264 24.1527 39.1229C26.5796 39.3023 28.8428 37.5875 29.1392 35.012C29.1688 34.7576 29.1597 34.4987 29.1597 34.242C29.1619 27.2727 29.1619 20.3023 29.1631 13.333C29.1631 13.2195 29.1688 13.107 29.1631 12.9935C29.1529 12.7811 29.2517 12.7016 29.4595 12.7039C29.9943 12.7107 30.5281 12.705 31.063 12.705C32.0498 12.705 33.0367 12.7141 34.0235 12.6994C34.3052 12.6948 34.4062 12.7993 34.4176 13.0684C34.5027 15.0546 35.2557 16.7592 36.6298 18.1833C37.9244 19.5256 39.5085 20.3103 41.363 20.5374C41.6072 20.5669 41.8536 20.5919 42.0989 20.5942C42.3135 20.5964 42.3873 20.6907 42.3862 20.8951C42.3828 22.4271 42.3805 23.959 42.3885 25.4898C42.3896 25.7692 42.2511 25.8123 42.0217 25.8032C40.785 25.7487 39.5699 25.5636 38.3877 25.1877C37.0647 24.7676 35.8382 24.1532 34.7072 23.3492C34.6356 23.2981 34.5675 23.1868 34.4732 23.2322C34.3619 23.2856 34.4142 23.4162 34.4142 23.5127C34.4164 27.1626 34.4289 30.8113 34.4267 34.4612C34.4233 39.0332 31.3071 42.9692 26.8623 44.0367C26.3422 44.1616 25.8119 44.2127 25.2861 44.3013H23.7439H23.7462Z" fill="#F0F0F0"/>
</svg>
