<svg width="47" height="48" viewBox="0 0 47 48" fill="none" xmlns="http://www.w3.org/2000/svg">
<path d="M23.5 47.5C36.4787 47.5 47 36.9787 47 24C47 11.0213 36.4787 0.5 23.5 0.5C10.5213 0.5 0 11.0213 0 24C0 36.9787 10.5213 47.5 23.5 47.5Z" fill="#141414"/>
<path d="M22.4156 11.7243C23.1255 11.7243 23.8365 11.7243 24.5464 11.7243C24.8818 11.77 25.2195 11.797 25.5502 11.865C30.6722 12.9164 34.0058 15.9147 35.4943 20.8774C35.9352 22.345 36.0205 23.8605 35.7953 25.3819C35.6958 26.0524 35.0641 26.4966 34.3886 26.4052C33.6432 26.3044 33.213 25.6984 33.3054 24.8627C33.4192 23.8371 33.3445 22.8255 33.1135 21.821C33.0696 21.63 32.9878 21.5573 32.7876 21.5585C31.3998 21.5643 30.0109 21.5643 28.6231 21.5585C28.4264 21.5585 28.3589 21.603 28.3731 21.8163C28.4205 22.5079 28.4513 23.2018 28.4726 23.8957C28.4845 24.286 28.3624 24.6411 28.0578 24.906C27.6597 25.2518 27.201 25.3503 26.708 25.1381C26.2209 24.9283 25.9472 24.5439 25.9389 24.0164C25.927 23.2979 25.8832 22.5817 25.8358 21.8656C25.8251 21.7061 25.8074 21.562 25.5857 21.562C24.1731 21.5643 22.7605 21.5643 21.349 21.562C21.1985 21.562 21.1357 21.6206 21.1227 21.773C20.9923 23.2229 20.9828 24.6716 21.1108 26.1227C21.1333 26.3724 21.2293 26.4239 21.4569 26.4193C22.143 26.4075 22.8292 26.4064 23.5154 26.4193C24.3604 26.4357 24.9446 27.2585 24.6874 28.0497C24.512 28.5877 24.0356 28.9206 23.4087 28.93C22.8766 28.937 22.3433 28.937 21.8112 28.93C21.6204 28.9276 21.5683 28.9932 21.6133 29.1726C21.9949 30.6987 22.5294 32.165 23.3424 33.5235C23.4384 33.6841 23.5545 33.7556 23.7453 33.7743C24.1411 33.8142 24.5357 33.7392 24.9292 33.7954C25.5383 33.881 26.0124 34.4518 25.9851 35.0649C25.9567 35.7013 25.466 36.251 24.8534 36.2616C23.6611 36.2815 22.4642 36.3296 21.2838 36.0823C16.2899 35.0309 13.0451 32.0783 11.5092 27.2749C11.2781 26.5505 11.1857 25.7957 11.0849 25.0444C11.0849 24.3423 11.0849 23.639 11.0849 22.9369C11.143 22.5512 11.1786 22.1609 11.2627 21.78C12.3423 16.8524 15.3276 13.6443 20.1888 12.1416C20.9141 11.9177 21.6678 11.8286 22.418 11.7278L22.4156 11.7243ZM16.2413 26.4122C16.9109 26.4122 17.5804 26.4122 18.25 26.4122C18.5664 26.4122 18.5972 26.3818 18.5676 26.0664C18.506 25.4147 18.4775 24.763 18.4752 24.1078C18.474 23.3823 18.4941 22.6567 18.5664 21.9347C18.5984 21.6135 18.5664 21.562 18.3259 21.562C16.931 21.5596 15.535 21.562 14.1401 21.5585C13.9742 21.5585 13.8936 21.6194 13.8557 21.7812C13.5132 23.2428 13.5144 24.7033 13.8474 26.1661C13.8924 26.3653 13.9932 26.4181 14.184 26.4157C14.8689 26.4075 15.5551 26.4122 16.2401 26.4122H16.2413ZM26.6393 14.759C26.6156 14.8293 26.6571 14.8844 26.6819 14.9406C27.2271 16.1807 27.6478 17.4595 27.9216 18.784C27.9654 18.9938 28.0709 19.0478 28.2712 19.0466C29.416 19.0396 30.5619 19.0442 31.7067 19.0419C31.7826 19.0419 31.8857 19.0806 31.9248 18.9903C31.9592 18.9106 31.8786 18.8438 31.8359 18.7793C30.6248 16.911 28.9704 15.5818 26.868 14.8035C26.7957 14.7765 26.7258 14.7261 26.6393 14.7578V14.759ZM16.963 19.0431C17.5354 19.0431 18.109 19.0372 18.6814 19.0466C18.8876 19.0501 18.9788 18.9786 19.0227 18.7723C19.3 17.4818 19.6899 16.2265 20.2184 15.0133C20.2481 14.9441 20.3275 14.8633 20.2599 14.7953C20.1947 14.7296 20.107 14.8 20.0359 14.8269C17.9466 15.6158 16.3017 16.945 15.1024 18.8122C14.9697 19.0196 14.9851 19.0419 15.2434 19.0431C15.8158 19.0454 16.3894 19.0431 16.9618 19.0431H16.963ZM16.9654 28.9288C16.3847 28.9288 15.804 28.9264 15.2233 28.9288C14.991 28.93 14.9756 28.9581 15.1024 29.1562C16.3005 31.0234 17.9454 32.3514 20.0336 33.1426C20.1047 33.1695 20.1936 33.2375 20.2576 33.1777C20.3287 33.1109 20.2493 33.0289 20.2196 32.9609C19.6911 31.7407 19.2846 30.4807 19.0156 29.1808C18.9741 28.9804 18.8746 28.9241 18.6826 28.9264C18.1102 28.9335 17.5378 28.9288 16.9642 28.9288H16.9654ZM23.4395 19.0431C23.9953 19.0431 24.5523 19.0396 25.1081 19.0442C25.3001 19.0454 25.3677 18.988 25.3167 18.7864C24.9387 17.2861 24.4018 15.8479 23.6126 14.5093C23.4739 14.2749 23.4621 14.2737 23.327 14.5034C22.5341 15.8502 21.9996 17.2978 21.6228 18.8063C21.5766 18.9903 21.6335 19.0489 21.8207 19.0454C22.3611 19.0372 22.9003 19.0431 23.4407 19.0419L23.4395 19.0431Z" fill="#F0F0F0"/>
<path d="M27.3538 27.1823C27.4794 27.1776 27.592 27.2234 27.7022 27.2726C29.9717 28.2923 32.2399 29.3133 34.5106 30.333C34.776 30.4514 34.9526 30.6378 34.9609 30.9308C34.9692 31.2344 34.7938 31.4325 34.526 31.5637C33.8825 31.879 33.2437 32.2049 32.5978 32.5132C32.3667 32.6233 32.2115 32.7816 32.1013 33.009C31.7955 33.6337 31.472 34.2502 31.1639 34.8738C31.0288 35.1458 30.8392 35.3403 30.5204 35.3392C30.2004 35.3368 30.0131 35.1399 29.8863 34.8633C28.8672 32.6397 27.8421 30.4186 26.8241 28.195C26.5859 27.6746 26.8501 27.1847 27.3585 27.1823H27.3538Z" fill="#F0F0F0"/>
</svg>
